<svg id="Layer_1" data-name="Layer 1" xmlns="http://www.w3.org/2000/svg" viewBox="0 0 141.48 141.48"><defs><style>.cls-1{fill:#f1583c;}</style></defs><title>H-red</title><path class="cls-1" d="M123.67,30.93V17.8H110.59a65.94,65.94,0,0,0-79.69,0H17.81V30.94a66,66,0,0,0,0,79.17v27H123.67v-27a66,66,0,0,0,0-79.18ZM17.81,107.36a64.33,64.33,0,0,1,0-73.67ZM70.74,6a64.15,64.15,0,0,1,37.12,11.8H33.62A64.15,64.15,0,0,1,70.74,6ZM18.62,18.6H29.88A66.27,66.27,0,0,0,18.62,29.92Zm0,117.68V111.13A66.11,66.11,0,0,0,63.8,136.28Zm104.25,0H77.68a66.13,66.13,0,0,0,45.19-25.15Zm0-27.8a64.43,64.43,0,0,1-104.25,0V32.56a64.93,64.93,0,0,1,13.88-14H109a65.2,65.2,0,0,1,13.89,14Zm0-78.56A66.69,66.69,0,0,0,111.6,18.6h11.27Zm.8,3.77a64.33,64.33,0,0,1,0,73.67ZM83.22,66.09h-25V45.79H45.31V101.4H58.26V77.78h25V101.4h13V45.79h-13Z"/></svg>