<?xml version="1.0" encoding="UTF-8" standalone="no"?>
<!-- Generator: Adobe Illustrator 24.3.0, SVG Export Plug-In . SVG Version: 6.00 Build 0)  -->

<svg
   xmlns:dc="http://purl.org/dc/elements/1.1/"
   xmlns:cc="http://creativecommons.org/ns#"
   xmlns:rdf="http://www.w3.org/1999/02/22-rdf-syntax-ns#"
   xmlns:svg="http://www.w3.org/2000/svg"
   xmlns="http://www.w3.org/2000/svg"
   xmlns:sodipodi="http://sodipodi.sourceforge.net/DTD/sodipodi-0.dtd"
   xmlns:inkscape="http://www.inkscape.org/namespaces/inkscape"
   version="1.1"
   id="Layer_1"
   x="0px"
   y="0px"
   viewBox="0 0 246 88.934825"
   xml:space="preserve"
   sodipodi:docname="logo-socap-digital.svg"
   width="246"
   height="88.934822"
   inkscape:version="0.92.3 (2405546, 2018-03-11)"><metadata
   id="metadata99"><rdf:RDF><cc:Work
       rdf:about=""><dc:format>image/svg+xml</dc:format><dc:type
         rdf:resource="http://purl.org/dc/dcmitype/StillImage" /><dc:title></dc:title></cc:Work></rdf:RDF></metadata><defs
   id="defs97" /><sodipodi:namedview
   pagecolor="#ffffff"
   bordercolor="#666666"
   borderopacity="1"
   objecttolerance="10"
   gridtolerance="10"
   guidetolerance="10"
   inkscape:pageopacity="0"
   inkscape:pageshadow="2"
   inkscape:window-width="1920"
   inkscape:window-height="1017"
   id="namedview95"
   showgrid="false"
   fit-margin-top="0"
   fit-margin-left="0"
   fit-margin-right="0"
   fit-margin-bottom="0"
   inkscape:zoom="1"
   inkscape:cx="229.82811"
   inkscape:cy="110.67277"
   inkscape:window-x="1912"
   inkscape:window-y="-8"
   inkscape:window-maximized="1"
   inkscape:current-layer="Layer_1" />
<style
   type="text/css"
   id="style2">
	.st0{fill:#3A3836;}
	.st1{fill:#F2CD31;}
	.st2{fill:#66B5DF;}
</style>
<g
   id="g14"
   transform="matrix(0.42984449,0,0,0.42984449,-6.5766207,-5.502005)">
	<path
   class="st0"
   d="m 44.2,168.6 c -1.8,0.7 -4.6,1.6 -9.1,1.6 -8.4,0 -13,-3.5 -15.2,-6.2 -4.3,-4.9 -4.6,-10.5 -4.6,-16.5 V 130.3 H 28 v 19 c 0,5 0.7,7.2 2.9,8.7 0.6,0.4 1.9,1.3 4.1,1.3 6.8,-0.1 6.6,-7.5 6.6,-12.2 0,-7.5 -1.2,-11.6 -5,-18.1 -3.8,-6.8 -8.5,-12.8 -12.5,-19.4 -2.2,-3.5 -8,-12.4 -8,-24.5 0,-11.5 5,-17.5 9.3,-20 2.2,-1.3 5.9,-2.8 11.8,-2.8 2.8,0 13.3,-0.1 16.5,10 0.6,1.9 1,3.7 1,7.8 V 98.5 H 42.3 V 80 c -0.1,-1.2 0.3,-7.1 -5.5,-7.1 -6.6,0 -6.8,5.7 -6.8,10.6 0,8.7 2.4,13.6 6.9,20.8 1.9,3.1 4,6 6,9.1 1.6,2.2 3.1,4.4 4.6,6.8 7.2,11.3 8.1,19.2 8.1,25.2 0.1,2.2 0.2,17.9 -11.4,23.2 z"
   id="path4"
   inkscape:connector-curvature="0"
   style="fill:#3a3836" />
	<path
   class="st0"
   d="m 106,157.2 c -4.4,12.2 -18,12.1 -21.1,12.1 -1.2,0 -5.2,0 -8.7,-1.3 -2.8,-1 -9,-4.6 -11.2,-12.7 -0.9,-3.1 -1,-5 -1,-10.9 V 92.5 c 0,-9.3 0,-18.3 8.1,-24.5 2.5,-1.9 6.9,-4.6 14.3,-4.6 2.2,0 8.4,0 13.6,4.1 2.7,2.1 4.1,4.4 4.7,5.6 2.9,5.2 3.1,10.6 3.1,22.2 V 145 c 0,4 -0.3,8.2 -1.8,12.2 z M 94.1,91.4 c 0,-6.3 0,-10.3 -1.6,-12.8 -0.9,-1.3 -2.7,-3.1 -6.3,-3.1 -0.7,0 -3.1,0.1 -5,1.5 -3.7,2.4 -3.4,6.6 -3.4,14.4 v 55.7 c 0,5.6 0.9,10.9 8,10.9 8.8,0 8.4,-8 8.4,-14.1 V 91.4 Z"
   id="path6"
   inkscape:connector-curvature="0"
   style="fill:#3a3836" />
	<path
   class="st0"
   d="m 154.8,160.5 c -2.5,3.7 -7.8,9.1 -18.9,9.1 -10.6,0 -15.9,-4.9 -18.4,-8.5 -3.7,-5.3 -3.7,-11.8 -3.7,-17.8 V 93 c 0,-2.4 0.1,-4.7 0.3,-7.1 0.3,-4 1,-17.1 14.3,-21.4 2.9,-1 5.5,-1.3 8.7,-1.3 7.7,0 11.8,2.4 14.4,4.6 2.2,1.8 3.8,4 4.9,6.5 2.1,4.7 2.2,9.4 2.2,14.4 V 102 H 144.8 V 85.9 c 0,-2.2 0.7,-10.8 -8.4,-10.8 -2.9,0 -4.4,0.9 -5.6,1.8 -3.4,2.9 -3.1,7.4 -3.1,11.3 v 57.5 c 0,1.2 0,2.4 0.1,3.5 0.1,2.8 0.6,8.4 8.3,8.4 0.9,0 3.2,0.1 5.3,-1.5 3.5,-2.5 3.4,-6.9 3.4,-10.8 v -20.2 h 13.8 v 19.4 c 0.1,5.9 -0.4,10.9 -3.8,16 z"
   id="path8"
   inkscape:connector-curvature="0"
   style="fill:#3a3836" />
	<path
   class="st0"
   d="m 197,168.3 -2.7,-19.2 h -15.6 l -2.4,19.2 H 163 l 14.7,-104 h 16.6 l 16.1,104 z m -11.1,-85.9 -5.7,54.1 h 12.4 z"
   id="path10"
   inkscape:connector-curvature="0"
   style="fill:#3a3836" />
	<path
   class="st0"
   d="m 254,118.6 c -2.2,2.1 -4.9,2.5 -10.3,2.5 H 230 v 47.1 h -13.4 v -104 h 26.8 c 1,0 8,-0.6 11.5,4 2.9,3.7 2.7,9.4 2.7,13.8 v 19.7 c 0,8.8 -0.2,13.8 -3.6,16.9 z M 243.7,82.1 c 0,-3.8 -0.9,-5.2 -5.2,-5.2 h -8.4 v 31.8 h 8.7 c 3.7,0 4.9,-1 4.9,-4.6 z"
   id="path12"
   inkscape:connector-curvature="0"
   style="fill:#3a3836" />
</g>
<path
   class="st1"
   d="m 221.02604,77.844835 c 0.30089,-0.086 0.64476,0.086 0.77372,0.34388 l 1.50445,2.92294 c 0.086,0.21492 0.086,0.42984 0,0.64477 l -0.90267,1.84833 c -0.12896,0.25791 -0.42985,0.42984 -0.73074,0.38686 l -2.06325,-0.30089 c -0.21492,-0.043 -0.42985,-0.17194 -0.51581,-0.38686 l -1.50446,-2.92295 c -0.12895,-0.30089 -0.086,-0.64476 0.12895,-0.85968 0.94566,-0.81671 2.06326,-1.41849 3.30981,-1.6764"
   id="path16"
   inkscape:connector-curvature="0"
   style="fill:#f2cd31;stroke-width:0.4298445" />
<path
   class="st1"
   d="m 226.01223,74.363095 c 0.30089,-0.12895 0.64477,-0.043 0.81671,0.21492 l 1.9343,2.62206 c 0.12895,0.17193 0.17193,0.42984 0.086,0.64476 l -0.60178,1.97729 c -0.086,0.30089 -0.34387,0.47283 -0.68775,0.51581 h -2.06325 c -0.21492,0 -0.42985,-0.086 -0.5588,-0.30089 l -1.9343,-2.62205 c -0.17194,-0.25791 -0.17194,-0.60178 0,-0.85969 0.8167,-0.94566 1.80535,-1.71938 3.00891,-2.19221"
   id="path18"
   inkscape:connector-curvature="0"
   style="fill:#f2cd31;stroke-width:0.4298445" />
<path
   class="st1"
   d="m 230.35366,70.150625 c 0.25791,-0.17194 0.64477,-0.12896 0.85969,0.086 l 2.32116,2.27818 c 0.17194,0.17194 0.25791,0.38686 0.21492,0.60178 l -0.30089,2.06326 c -0.043,0.30089 -0.30089,0.55879 -0.60178,0.60178 l -2.02027,0.34387 c -0.21492,0.043 -0.47283,-0.043 -0.60178,-0.17193 l -2.32116,-2.27818 c -0.21493,-0.21492 -0.25791,-0.5588 -0.12896,-0.85969 0.60179,-1.07461 1.50446,-2.02027 2.57907,-2.66503"
   id="path20"
   inkscape:connector-curvature="0"
   style="fill:#f2cd31;stroke-width:0.4298445" />
<path
   class="st1"
   d="m 234.05032,65.336365 c 0.25791,-0.21492 0.60179,-0.21492 0.85969,-0.043 l 2.66504,1.89132 c 0.17194,0.12895 0.30089,0.34387 0.30089,0.5588 v 2.06325 c 0,0.30089 -0.17194,0.60178 -0.47283,0.68775 l -1.97728,0.64477 c -0.21493,0.086 -0.47283,0.043 -0.64477,-0.086 l -2.66504,-1.89132 c -0.2579,-0.17193 -0.38686,-0.51581 -0.2579,-0.8167 0.47283,-1.16058 1.20356,-2.19221 2.1922,-3.00891"
   id="path22"
   inkscape:connector-curvature="0"
   style="fill:#f2cd31;stroke-width:0.4298445" />
<path
   class="st1"
   d="m 236.8873,60.006295 c 0.21492,-0.25791 0.55879,-0.3009 0.85969,-0.17194 l 2.92294,1.46147 c 0.21492,0.086 0.34387,0.30089 0.38686,0.51581 l 0.34387,2.02027 c 0.043,0.30089 -0.086,0.60178 -0.38686,0.73074 l -1.84833,0.94566 c -0.21492,0.086 -0.42984,0.086 -0.64476,0 l -2.92295,-1.46148 c -0.30089,-0.12895 -0.42984,-0.47282 -0.38686,-0.77372 0.30089,-1.20356 0.85969,-2.32116 1.6764,-3.26681"
   id="path24"
   inkscape:connector-curvature="0"
   style="fill:#f2cd31;stroke-width:0.4298445" />
<path
   class="st1"
   d="m 238.90757,54.246375 c 0.17193,-0.25791 0.51581,-0.38686 0.8167,-0.30089 l 3.13787,0.98864 c 0.21492,0.086 0.38686,0.21492 0.47282,0.42985 l 0.64477,1.97728 c 0.086,0.30089 0,0.60178 -0.25791,0.77372 l -1.67639,1.24655 c -0.17194,0.12895 -0.42984,0.17194 -0.64477,0.086 l -3.13786,-0.98864 c -0.30089,-0.086 -0.51581,-0.38686 -0.51581,-0.68776 0.086,-1.24654 0.47282,-2.45011 1.16058,-3.52472"
   id="path26"
   inkscape:connector-curvature="0"
   style="fill:#f2cd31;stroke-width:0.4298445" />
<path
   class="st1"
   d="m 239.98218,48.314525 c 0.12895,-0.3009 0.42984,-0.47283 0.77372,-0.42985 l 3.22383,0.47283 c 0.21492,0.043 0.42985,0.17194 0.51581,0.38686 l 0.94566,1.84833 c 0.12896,0.25791 0.086,0.60178 -0.12895,0.81671 l -1.46147,1.46147 c -0.17194,0.17194 -0.38686,0.2579 -0.60178,0.21492 l -3.22384,-0.47283 c -0.30089,-0.043 -0.5588,-0.30089 -0.60178,-0.60178 -0.12895,-1.28953 0.043,-2.57907 0.5588,-3.69666"
   id="path28"
   inkscape:connector-curvature="0"
   style="fill:#f2cd31;stroke-width:0.4298445" />
<path
   class="st1"
   d="m 240.11113,42.210725 c 0.086,-0.30089 0.34388,-0.51581 0.68775,-0.51581 l 3.26682,-0.043 c 0.21492,0 0.42984,0.086 0.5588,0.30089 l 1.24655,1.67639 c 0.17193,0.25791 0.17193,0.60178 0,0.81671 l -1.20357,1.67639 c -0.12895,0.17194 -0.34387,0.30089 -0.5588,0.30089 l -3.26681,0.043 c -0.30089,0 -0.60179,-0.21492 -0.68776,-0.51581 -0.34387,-1.20356 -0.38686,-2.4931 -0.043,-3.73965"
   id="path30"
   inkscape:connector-curvature="0"
   style="fill:#f2cd31;stroke-width:0.4298445" />
<path
   class="st1"
   d="m 239.25144,36.235895 c 0.043,-0.3009 0.25791,-0.60179 0.60178,-0.64477 l 3.22384,-0.5588 c 0.21492,-0.043 0.47283,0.043 0.60178,0.17194 l 1.46147,1.46147 c 0.21492,0.21492 0.25791,0.5588 0.12895,0.8167 l -0.90267,1.84834 c -0.086,0.21492 -0.30089,0.34387 -0.51581,0.38686 l -3.22384,0.55879 c -0.30089,0.043 -0.64476,-0.12895 -0.77372,-0.38686 -0.47283,-1.16058 -0.68775,-2.40713 -0.60178,-3.65367"
   id="path32"
   inkscape:connector-curvature="0"
   style="fill:#f2cd31;stroke-width:0.4298445" />
<path
   class="st1"
   d="m 237.48908,30.432995 c 0,-0.3009 0.17194,-0.60179 0.47283,-0.73074 l 3.09488,-1.03163 c 0.21492,-0.086 0.47283,-0.043 0.64477,0.086 l 1.67639,1.20357 c 0.25791,0.17193 0.34387,0.51581 0.25791,0.77372 l -0.60179,1.97728 c -0.086,0.21492 -0.21492,0.38686 -0.42984,0.47283 l -3.09488,1.03163 c -0.30089,0.086 -0.64477,0 -0.81671,-0.30089 -0.68775,-1.03163 -1.11759,-2.2352 -1.20356,-3.48174"
   id="path34"
   inkscape:connector-curvature="0"
   style="fill:#f2cd31;stroke-width:0.4298445" />
<path
   class="st1"
   d="m 234.86703,24.973965 c -0.086,-0.30089 0.086,-0.64477 0.34387,-0.77372 l 2.92295,-1.50446 c 0.21492,-0.086 0.42984,-0.086 0.64476,0 l 1.84833,0.90268 c 0.25791,0.12895 0.42985,0.42984 0.38686,0.73073 l -0.30089,2.06326 c -0.043,0.21492 -0.17193,0.42984 -0.38686,0.51581 l -2.92294,1.50446 c -0.30089,0.12895 -0.64477,0.086 -0.85969,-0.12896 -0.8167,-0.94566 -1.3755,-2.10624 -1.67639,-3.3098"
   id="path36"
   inkscape:connector-curvature="0"
   style="fill:#f2cd31;stroke-width:0.4298445" />
<path
   class="st1"
   d="m 231.42827,19.987765 c -0.12895,-0.30089 -0.043,-0.64476 0.21492,-0.8167 l 2.62206,-1.9343 c 0.17193,-0.12895 0.42984,-0.17194 0.64476,-0.086 l 1.97729,0.60178 c 0.30089,0.086 0.47283,0.34388 0.51581,0.68775 v 2.06326 c 0,0.21492 -0.086,0.42984 -0.30089,0.5588 l -2.62205,1.9343 c -0.25791,0.17193 -0.60178,0.17193 -0.85969,0 -0.98864,-0.81671 -1.76236,-1.84834 -2.19221,-3.00892"
   id="path38"
   inkscape:connector-curvature="0"
   style="fill:#f2cd31;stroke-width:0.4298445" />
<path
   class="st1"
   d="m 227.2158,15.603355 c -0.17194,-0.25791 -0.12896,-0.64477 0.086,-0.85969 l 2.27818,-2.32116 c 0.17194,-0.17194 0.38686,-0.25791 0.60178,-0.21492 l 2.06326,0.30089 c 0.30089,0.043 0.55879,0.30089 0.60178,0.60178 l 0.34387,2.02027 c 0.043,0.21492 -0.043,0.47283 -0.17193,0.60178 l -2.27818,2.32116 c -0.21492,0.21493 -0.5588,0.25791 -0.85969,0.12896 -1.11759,-0.60178 -2.02027,-1.50446 -2.66503,-2.57907"
   id="path40"
   inkscape:connector-curvature="0"
   style="fill:#f2cd31;stroke-width:0.4298445" />
<path
   class="st1"
   d="m 222.35855,11.949675 c -0.21492,-0.2579 -0.21492,-0.60178 -0.043,-0.85969 l 1.89131,-2.66503 c 0.12896,-0.17194 0.34388,-0.30089 0.5588,-0.30089 h 2.06326 c 0.30089,0 0.60178,0.17193 0.68775,0.47283 l 0.64476,1.97728 c 0.086,0.21492 0.043,0.47283 -0.086,0.64477 l -1.89131,2.66503 c -0.17194,0.25791 -0.51581,0.38686 -0.81671,0.25791 -1.16058,-0.47283 -2.1922,-1.24655 -3.00891,-2.19221"
   id="path42"
   inkscape:connector-curvature="0"
   style="fill:#f2cd31;stroke-width:0.4298445" />
<path
   class="st1"
   d="m 217.02848,9.069715 c -0.25791,-0.21492 -0.30089,-0.55879 -0.17194,-0.85968 l 1.46148,-2.92295 c 0.086,-0.21492 0.30089,-0.34387 0.51581,-0.38686 l 2.02027,-0.34387 c 0.30089,-0.043 0.60178,0.086 0.73073,0.38686 l 0.94566,1.84833 c 0.086,0.21492 0.086,0.42984 0,0.64477 l -1.46147,2.92294 c -0.12895,0.30089 -0.47283,0.42984 -0.77372,0.38686 -1.16058,-0.25791 -2.32116,-0.81671 -3.26682,-1.6764"
   id="path44"
   inkscape:connector-curvature="0"
   style="fill:#f2cd31;stroke-width:0.4298445" />
<path
   class="st1"
   d="m 211.31155,7.092435 c -0.25791,-0.17194 -0.38686,-0.51581 -0.30089,-0.8167 l 0.98864,-3.13787 c 0.086,-0.21492 0.21492,-0.38686 0.42985,-0.47283 l 1.97728,-0.64477 c 0.30089,-0.086 0.60178,0 0.77372,0.25791 l 1.24655,1.67639 c 0.12895,0.17194 0.17194,0.42985 0.086,0.64477 l -0.98864,3.13787 c -0.086,0.30089 -0.38686,0.51581 -0.68776,0.51581 -1.24654,-0.12895 -2.45011,-0.51581 -3.52472,-1.16058"
   id="path46"
   inkscape:connector-curvature="0"
   style="fill:#f2cd31;stroke-width:0.4298445" />
<path
   class="st1"
   d="m 205.33671,6.017825 c -0.30089,-0.12895 -0.47283,-0.42985 -0.42984,-0.77372 l 0.47283,-3.26682 c 0.043,-0.21492 0.17193,-0.42984 0.38686,-0.51581 l 1.84833,-0.94566 c 0.2579,-0.12895 0.60178,-0.086 0.8167,0.12895 l 1.46147,1.46147 c 0.17194,0.17194 0.25791,0.38686 0.21493,0.60179 l -0.47283,3.22383 c -0.043,0.30089 -0.30089,0.5588 -0.60179,0.60178 -1.28953,0.17194 -2.53608,-0.043 -3.69666,-0.51581"
   id="path48"
   inkscape:connector-curvature="0"
   style="fill:#f2cd31;stroke-width:0.4298445" />
<path
   class="st1"
   d="m 199.2759,5.888875 c -0.30089,-0.086 -0.51581,-0.34388 -0.51581,-0.68776 l -0.043,-3.26681 c 0,-0.21493 0.086,-0.42985 0.30089,-0.5588 l 1.67639,-1.24655 c 0.25791,-0.17194 0.60178,-0.17194 0.81671,0 l 1.67639,1.20356 c 0.17194,0.12896 0.30089,0.34388 0.30089,0.5588 l 0.043,3.26682 c 0,0.30089 -0.21492,0.60178 -0.51581,0.68775 -1.24655,0.34388 -2.53608,0.34388 -3.73965,0.043"
   id="path50"
   inkscape:connector-curvature="0"
   style="fill:#f2cd31;stroke-width:0.4298445" />
<path
   class="st1"
   d="m 193.25808,6.705575 c -0.30089,-0.043 -0.60178,-0.25791 -0.64477,-0.60178 l -0.55879,-3.22384 c -0.043,-0.21492 0.043,-0.47283 0.17193,-0.60178 l 1.46148,-1.46147 c 0.21492,-0.21492 0.55879,-0.25791 0.8167,-0.12895 l 1.84833,0.90267 c 0.21492,0.086 0.34388,0.30089 0.38686,0.51581 l 0.5588,3.22384 c 0.043,0.30089 -0.12895,0.64476 -0.38686,0.77372 -1.1176,0.51581 -2.40713,0.73073 -3.65368,0.60178"
   id="path52"
   inkscape:connector-curvature="0"
   style="fill:#f2cd31;stroke-width:0.4298445" />
<path
   class="st1"
   d="m 187.45518,8.467935 c -0.30089,0 -0.60178,-0.17194 -0.73073,-0.47283 l -1.03163,-3.09488 c -0.086,-0.21492 -0.043,-0.47283 0.086,-0.64476 l 1.20356,-1.6764 c 0.17194,-0.2579 0.51582,-0.34387 0.77372,-0.2579 l 1.97729,0.60178 c 0.21492,0.086 0.38686,0.21492 0.47283,0.42984 l 1.03162,3.09488 c 0.086,0.30089 0,0.64477 -0.30089,0.81671 -0.98864,0.73073 -2.23519,1.11759 -3.48174,1.20356"
   id="path54"
   inkscape:connector-curvature="0"
   style="fill:#f2cd31;stroke-width:0.4298445" />
<path
   class="st1"
   d="m 181.99616,11.089985 c -0.3009,0.086 -0.64477,-0.086 -0.77372,-0.34387 l -1.50446,-2.92294 c -0.086,-0.21493 -0.12895,-0.42985 0,-0.64477 l 0.90267,-1.84833 c 0.12896,-0.25791 0.42985,-0.42985 0.73074,-0.38686 l 2.06325,0.30089 c 0.21492,0.043 0.42985,0.17194 0.51582,0.38686 l 1.50445,2.92294 c 0.12896,0.30089 0.086,0.64477 -0.12895,0.85969 -0.94566,0.8167 -2.06326,1.41849 -3.3098,1.67639"
   id="path56"
   inkscape:connector-curvature="0"
   style="fill:#f2cd31;stroke-width:0.4298445" />
<path
   class="st1"
   d="m 177.00996,14.571725 c -0.30089,0.12896 -0.64477,0.043 -0.8167,-0.21492 l -1.9343,-2.62205 c -0.12896,-0.17194 -0.17194,-0.42984 -0.086,-0.64477 l 0.60178,-1.97728 c 0.086,-0.30089 0.34387,-0.47283 0.68775,-0.51581 h 2.06325 c 0.21493,0 0.42985,0.086 0.5588,0.30089 l 1.9343,2.62205 c 0.17194,0.2579 0.17194,0.60178 0,0.85969 -0.8167,0.94565 -1.80535,1.71937 -3.00891,2.1922"
   id="path58"
   inkscape:connector-curvature="0"
   style="fill:#f2cd31;stroke-width:0.4298445" />
<path
   class="st1"
   d="m 172.66853,18.784205 c -0.25791,0.17194 -0.64477,0.12895 -0.85969,-0.086 l -2.32116,-2.27817 c -0.17194,-0.17194 -0.25791,-0.38687 -0.21492,-0.60179 l 0.30089,-2.06325 c 0.043,-0.30089 0.30089,-0.5588 0.60178,-0.60178 l 2.02027,-0.34388 c 0.21492,-0.043 0.47283,0.043 0.60178,0.17194 l 2.32116,2.27817 c 0.21493,0.21493 0.25791,0.5588 0.12896,0.85969 -0.60178,1.07462 -1.50446,2.02027 -2.57907,2.66504"
   id="path60"
   inkscape:connector-curvature="0"
   style="fill:#f2cd31;stroke-width:0.4298445" />
<path
   class="st1"
   d="m 175.8064,73.331475 c 0.17193,0.2579 0.12895,0.64476 -0.086,0.85968 l -2.27818,2.32116 c -0.17194,0.17194 -0.38686,0.25791 -0.60178,0.21493 l -2.06326,-0.30089 c -0.30089,-0.043 -0.55879,-0.3009 -0.60178,-0.60179 l -0.34387,-2.02027 c -0.043,-0.21492 0.043,-0.47282 0.17193,-0.60178 l 2.27818,-2.32116 c 0.21492,-0.21492 0.5588,-0.25791 0.85969,-0.12895 1.1176,0.60178 2.02027,1.50445 2.66504,2.57907"
   id="path62"
   inkscape:connector-curvature="0"
   style="fill:#f2cd31;stroke-width:0.4298445" />
<path
   class="st1"
   d="m 180.66364,76.985145 c 0.21492,0.25791 0.21492,0.60179 0.043,0.85969 l -1.89131,2.66504 c -0.12896,0.17194 -0.34388,0.30089 -0.5588,0.30089 h -2.06325 c -0.3009,0 -0.60179,-0.17194 -0.68776,-0.47283 l -0.64476,-1.97728 c -0.086,-0.21493 -0.043,-0.47283 0.086,-0.64477 l 1.89131,-2.66504 c 0.17194,-0.2579 0.51582,-0.38686 0.81671,-0.2579 1.16058,0.47283 2.1922,1.24655 3.00891,2.1922"
   id="path64"
   inkscape:connector-curvature="0"
   style="fill:#f2cd31;stroke-width:0.4298445" />
<path
   class="st1"
   d="m 185.99371,79.865105 c 0.25791,0.21492 0.30089,0.5588 0.17194,0.85969 l -1.46147,2.92294 c -0.086,0.21493 -0.3009,0.34388 -0.51582,0.38686 l -2.02027,0.34388 c -0.30089,0.043 -0.60178,-0.086 -0.73073,-0.38686 l -0.94566,-1.84833 c -0.086,-0.21493 -0.086,-0.42985 0,-0.64477 l 1.46147,-2.92294 c 0.12895,-0.30089 0.47283,-0.42985 0.77372,-0.38686 1.16058,0.2579 2.32116,0.85969 3.26682,1.67639"
   id="path66"
   inkscape:connector-curvature="0"
   style="fill:#f2cd31;stroke-width:0.4298445" />
<path
   class="st1"
   d="m 191.71064,81.842395 c 0.25791,0.17193 0.38686,0.51581 0.30089,0.8167 l -0.98864,3.13787 c -0.086,0.21492 -0.21492,0.38686 -0.42984,0.47282 l -1.97729,0.64477 c -0.30089,0.086 -0.60178,0 -0.77372,-0.25791 l -1.24655,-1.67639 c -0.12895,-0.17194 -0.17194,-0.42984 -0.086,-0.64477 l 0.98865,-3.13786 c 0.086,-0.30089 0.38686,-0.51581 0.68775,-0.51581 1.24655,0.12895 2.45011,0.51581 3.52472,1.16058"
   id="path68"
   inkscape:connector-curvature="0"
   style="fill:#f2cd31;stroke-width:0.4298445" />
<path
   class="st1"
   d="m 197.68548,82.917005 c 0.30089,0.12895 0.47283,0.42984 0.42984,0.77372 l -0.47282,3.22383 c -0.043,0.21492 -0.17194,0.42985 -0.38686,0.51581 l -1.84834,0.94566 c -0.2579,0.12896 -0.60178,0.086 -0.8167,-0.12895 l -1.46147,-1.46147 c -0.17194,-0.17194 -0.25791,-0.38686 -0.21492,-0.60178 l 0.47282,-3.22384 c 0.043,-0.30089 0.3009,-0.5588 0.60179,-0.60178 1.28953,-0.12895 2.53608,0.086 3.69666,0.5588"
   id="path70"
   inkscape:connector-curvature="0"
   style="fill:#f2cd31;stroke-width:0.4298445" />
<path
   class="st1"
   d="m 203.74629,83.045955 c 0.30089,0.086 0.51581,0.34388 0.51581,0.68775 l 0.043,3.26682 c 0,0.21492 -0.086,0.42984 -0.30089,0.5588 l -1.67639,1.24655 c -0.25791,0.17193 -0.60178,0.17193 -0.8167,0 l -1.6764,-1.20357 c -0.17194,-0.12895 -0.30089,-0.34387 -0.30089,-0.5588 l -0.043,-3.26681 c 0,-0.30089 0.21492,-0.60179 0.51581,-0.68776 1.24655,-0.34387 2.53608,-0.34387 3.73965,-0.043"
   id="path72"
   inkscape:connector-curvature="0"
   style="fill:#f2cd31;stroke-width:0.4298445" />
<path
   class="st1"
   d="m 209.76411,82.229255 c 0.30089,0.043 0.60178,0.2579 0.64477,0.60178 l 0.55879,3.22383 c 0.043,0.21492 -0.043,0.47283 -0.17193,0.60178 l -1.46147,1.46148 c -0.21493,0.21492 -0.5588,0.2579 -0.81671,0.12895 l -1.89132,-0.90267 c -0.21492,-0.086 -0.34387,-0.3009 -0.38686,-0.51582 l -0.55879,-3.22383 c -0.043,-0.30089 0.12895,-0.64477 0.38686,-0.77372 1.16058,-0.51582 2.45011,-0.73074 3.69666,-0.60178"
   id="path74"
   inkscape:connector-curvature="0"
   style="fill:#f2cd31;stroke-width:0.4298445" />
<path
   class="st1"
   d="m 215.56701,80.466885 c 0.30089,0 0.60178,0.17194 0.73074,0.47283 l 1.03162,3.09488 c 0.086,0.21493 0.043,0.42985 -0.086,0.64477 l -1.20356,1.67639 c -0.17194,0.25791 -0.51581,0.34388 -0.77372,0.25791 l -1.97729,-0.60178 c -0.21492,-0.086 -0.38686,-0.21492 -0.47282,-0.42985 l -1.03163,-3.09488 c -0.086,-0.30089 0,-0.64476 0.30089,-0.8167 0.98864,-0.73074 2.23519,-1.1176 3.48174,-1.20357"
   id="path76"
   inkscape:connector-curvature="0"
   style="fill:#f2cd31;stroke-width:0.4298445" />
<g
   id="g92"
   transform="matrix(0.42984449,0,0,0.42984449,-6.5766207,-5.502005)">
	<path
   class="st2"
   d="m 268.5,64.6 25,0.1 c 14.6,0.1 15.7,8.4 15.7,16.7 l -0.4,68.6 c -0.1,13.6 -3.6,17.8 -14.7,17.7 L 268,167.6 Z m 13.6,12.6 -0.4,77.8 h 9 c 3.9,0 4.4,-2.3 4.4,-5.7 l 0.3,-64.9 c 0,-3.9 -0.1,-7.2 -5.5,-7.2 z"
   id="path78"
   inkscape:connector-curvature="0"
   style="fill:#66b5df" />
	<path
   class="st2"
   d="m 334.2,64.9 -0.5,103 -13.4,-0.1 0.5,-103 z"
   id="path80"
   inkscape:connector-curvature="0"
   style="fill:#66b5df" />
	<path
   class="st2"
   d="m 346.3,93 c 0,-8.9 0.1,-14.9 3.9,-20.7 4.9,-7.7 12.6,-8.4 17,-8.4 18.4,0.1 18.3,15.1 18.3,22.7 l -0.1,10.8 -12.6,-0.1 0.1,-11.5 c 0,-5.8 -0.2,-10.5 -6.2,-10.5 -6.9,0 -6.9,6.2 -6.9,11.3 l -0.3,59.2 c 0,6.7 -0.1,12.4 6.6,12.4 6.9,0 6.9,-6.1 6.9,-9.2 l 0.1,-23.3 h -8.3 l 0.1,-12.5 21.7,0.1 -0.3,54.9 h -8.2 l -1.1,-4.8 c -1.9,2.3 -4.8,6.4 -12.4,6.4 C 345.9,169.7 346,151.5 346.1,144 Z"
   id="path82"
   inkscape:connector-curvature="0"
   style="fill:#66b5df" />
	<path
   class="st2"
   d="m 413.6,65.3 -0.5,103 -13.4,-0.1 0.5,-103 z"
   id="path84"
   inkscape:connector-curvature="0"
   style="fill:#66b5df" />
	<path
   class="st2"
   d="m 417.1,65.3 45.5,0.2 -0.1,12.1 -16.1,-0.1 -0.5,90.9 -13.9,-0.1 0.5,-90.9 H 417 Z"
   id="path86"
   inkscape:connector-curvature="0"
   style="fill:#66b5df" />
	<path
   class="st2"
   d="m 489.5,65.7 15.4,103.1 -13.3,-0.1 -2.5,-19 -15.5,-0.1 -2.4,19 -13.1,-0.1 15,-103 z m -9,19.4 C 480,98.5 480,100 479.7,101.7 l -4.6,35.4 12.3,0.1 -4.9,-35.8 c -0.6,-3.9 -0.7,-7.9 -0.8,-16.3 z"
   id="path88"
   inkscape:connector-curvature="0"
   style="fill:#66b5df" />
	<path
   class="st2"
   d="m 525.4,65.7 -0.5,90.6 22.5,0.1 -0.1,12.6 -36.2,-0.2 0.5,-103.2 z"
   id="path90"
   inkscape:connector-curvature="0"
   style="fill:#66b5df" />
</g>
</svg>