<?xml version="1.0" standalone="no"?>
<!DOCTYPE svg PUBLIC "-//W3C//DTD SVG 20010904//EN"
 "http://www.w3.org/TR/2001/REC-SVG-20010904/DTD/svg10.dtd">
<svg version="1.0" xmlns="http://www.w3.org/2000/svg"
 width="700.000000pt" height="700.000000pt" viewBox="0 0 700.000000 700.000000"
 preserveAspectRatio="xMidYMid meet">
<metadata>
Created by potrace 1.14, written by Peter Selinger 2001-2017
</metadata>
<g transform="translate(0.000000,700.000000) scale(0.100000,-0.100000)"
fill="#000000" stroke="none">
<path d="M3508 6786 c-1 -2 -73 -6 -158 -10 -85 -4 -171 -9 -190 -11 -19 -3
-55 -7 -79 -10 -334 -38 -764 -173 -1081 -338 -147 -77 -338 -196 -431 -269
l-37 -28 -326 0 -326 0 1 -324 0 -324 -94 -138 c-137 -205 -241 -402 -327
-617 -54 -138 -128 -369 -145 -457 -2 -8 -10 -49 -18 -90 -23 -111 -46 -258
-54 -352 -10 -106 -10 -544 0 -623 4 -33 10 -80 13 -105 3 -25 7 -52 9 -60 2
-8 6 -33 10 -55 28 -196 102 -464 187 -675 92 -228 207 -442 344 -642 l74
-107 0 -664 c0 -625 1 -665 18 -669 9 -2 1187 -3 2617 -3 l2600 0 5 675 5 676
31 39 c125 159 326 532 405 753 11 31 24 66 29 77 29 69 115 396 126 480 3 28
7 52 9 55 2 3 6 30 10 60 3 30 8 62 10 70 27 99 27 694 0 830 -2 13 -7 42 -10
65 -42 308 -158 675 -305 965 -94 186 -100 197 -207 359 l-103 154 0 324 0
323 -326 0 -326 0 -37 28 c-145 114 -416 270 -631 365 -259 113 -617 212 -877
242 -26 3 -64 7 -83 10 -19 3 -96 7 -170 11 -74 3 -140 7 -147 9 -6 2 -13 2
-15 1z m162 -90 c80 -3 156 -8 170 -10 14 -3 48 -7 75 -11 59 -7 204 -32 260
-45 22 -5 54 -12 70 -16 54 -11 236 -65 309 -90 240 -85 493 -211 701 -350
l80 -54 -80 0 c-100 -1 -3378 -1 -3499 0 l-89 0 58 41 c133 93 380 226 545
293 36 15 74 31 85 36 148 67 532 163 735 186 30 3 66 8 80 10 14 2 86 7 160
10 74 4 136 8 138 9 2 2 15 2 30 0 15 -2 92 -6 172 -9z m1794 -670 c99 -76
165 -135 281 -251 127 -126 169 -173 283 -317 l52 -66 0 -1877 -1 -1878 -31
-46 c-18 -25 -37 -51 -43 -57 -5 -6 -28 -33 -50 -60 -425 -518 -1035 -900
-1695 -1063 -69 -16 -143 -33 -164 -36 -21 -4 -48 -9 -60 -11 -11 -2 -41 -7
-66 -10 -25 -3 -56 -7 -70 -10 -167 -27 -627 -26 -820 2 -47 7 -110 18 -220
38 -56 10 -161 37 -270 69 -611 181 -1171 557 -1569 1051 l-100 125 0 1879 0
1880 29 39 c16 21 33 43 38 48 4 6 17 23 30 39 119 154 356 387 527 519 52 40
67 46 115 49 30 2 882 2 1894 1 l1838 -2 72 -55z m-3994 50 c0 -2 -33 -30 -72
-62 -96 -77 -305 -286 -397 -396 -40 -49 -75 -88 -77 -88 -2 0 -3 124 -3 275
l1 275 274 0 c151 0 274 -2 274 -4z m4609 -271 c0 -151 -2 -275 -3 -275 -2 0
-34 37 -72 83 -87 104 -275 293 -379 382 -44 37 -84 72 -89 76 -6 5 112 9 267
9 l277 0 -1 -275z m-5201 -3202 l-3 -908 -52 81 c-153 239 -271 484 -354 737
-26 81 -75 255 -85 302 -18 93 -34 177 -39 215 -4 25 -8 56 -10 70 -16 107
-20 196 -20 405 0 276 5 334 51 610 10 61 56 243 85 340 80 260 228 574 377
798 l47 70 3 -906 c1 -499 1 -1315 0 -1814z m5309 2625 c190 -296 319 -594
407 -938 19 -74 37 -153 40 -175 4 -23 8 -52 11 -65 3 -13 7 -42 10 -65 4 -22
8 -51 10 -65 15 -99 20 -195 20 -400 0 -309 -14 -446 -70 -700 -3 -14 -7 -34
-9 -45 -45 -226 -207 -630 -345 -864 -57 -96 -133 -212 -137 -208 -3 2 -6
2971 -4 3570 0 26 2 47 4 47 2 0 31 -42 63 -92z m-5154 -3863 c79 -95 293
-300 413 -397 245 -197 459 -325 786 -472 168 -75 497 -174 675 -202 21 -3 41
-8 44 -9 3 -2 37 -7 75 -10 38 -4 71 -9 73 -11 6 -5 36 -5 -1141 -7 l-1037 -2
0 623 0 623 35 -43 c20 -24 54 -65 77 -93z m5046 -485 c0 -576 -1 -620 -17
-621 -78 -4 -2144 -1 -2148 3 -3 3 23 9 58 13 219 24 554 118 807 227 119 50
359 172 408 206 15 11 62 41 103 67 238 151 559 438 725 648 33 42 61 76 62
76 1 1 2 -278 2 -619z"/>
<path d="M2244 3360 l1 -1375 317 -1 c283 -1 317 1 320 15 2 9 3 271 2 584
l-1 567 619 0 618 0 0 -583 0 -584 320 0 c319 0 320 0 321 21 5 129 2 2711 -3
2719 -5 9 -95 12 -323 12 l-315 0 0 -190 c-1 -104 -2 -329 -3 -500 l-2 -310
-618 -3 -618 -2 1 177 c0 98 1 324 0 503 l0 325 -319 0 -319 0 2 -1375z"/>
</g>
</svg>
