<svg id="Layer_1" data-name="Layer 1" xmlns="http://www.w3.org/2000/svg" viewBox="0 0 450.72 74.28"><defs><style>.cls-1{fill:#f9f8f8;}</style></defs><title>humanature-offwhite</title><path class="cls-1" d="M47.43,41.32v23.9H35.62V43c0-5.15-2.95-8.45-7.11-8.45s-7.27,3.71-7.27,9.1V65.22H9.36V8.57H21.24V29.41a12.44,12.44,0,0,1,11.05-6.35c9,0,15.14,6.92,15.14,18.26"/><path class="cls-1" d="M54.93,46.88V24H66.81V46.39c0,5.07,2.8,8.37,7.19,8.37s7.19-3.3,7.19-8.37V24H93V46.88c0,11.66-7.5,19.31-19,19.31S54.93,58.54,54.93,46.88"/><path class="cls-1" d="M157,42.29V65.22H145.14v-22c0-6.28-2-8.62-5.45-8.62s-5.52,2.5-5.52,8.45V65.22H122.51V43c0-5.95-2.12-8.45-5.6-8.45-3.33,0-5.45,2.34-5.45,8.62v22H99.65V42.29c0-11.59,6.51-19.23,17.26-19.23,4.62,0,8.48,2.17,11.43,6a13.92,13.92,0,0,1,11.35-6c10.82,0,17.33,7.64,17.33,19.23"/><path class="cls-1" d="M193.13,44.62c0-5.79-3.94-10.14-9.16-10.14s-9.08,4.35-9.08,10.14,3.93,10.14,9.08,10.14,9.16-4.34,9.16-10.14M204.94,24v41.2H193.13V59.75c-2.27,4.19-6.36,6.44-11.58,6.44-10.52,0-18.7-9.09-18.7-21.57s8.18-21.56,18.7-21.56c5.22,0,9.31,2.25,11.58,6.43V24Z"/><path class="cls-1" d="M250.88,42.37V65.22H239.07V42.85c0-5.07-2.8-8.37-7.19-8.37s-7.19,3.3-7.19,8.37V65.22H212.81V42.37c0-11.67,7.49-19.31,19.07-19.31s19,7.64,19,19.31"/><path class="cls-1" d="M279.72,50.26V50.1a13.3,13.3,0,0,0-6.36-1.78c-3,0-5.14,1.86-5.14,4.27s2.11,4.27,5.14,4.27c3.41,0,6.06-2.74,6.36-6.6m11.88-9.9V65.22H279.72V60.15a10.9,10.9,0,0,1-10,6c-7.34,0-12.72-5.63-12.72-13.28s5.6-12.79,13.4-12.79a16.6,16.6,0,0,1,9.31,2.81V41c0-4.58-3.56-7.48-9.23-7.48a17.17,17.17,0,0,0-11.05,4.18V27.16a22.4,22.4,0,0,1,13.24-4.1c11.13,0,18.92,7.08,18.92,17.3"/><path class="cls-1" d="M314,34.4V47.68c0,5.47,3.1,7.57,6.05,7.57a11.17,11.17,0,0,0,6.13-1.69V64.5a24.6,24.6,0,0,1-8.4,1.69c-8.7,0-15.67-5.55-15.67-17.86V34.4h-6.05V24h6.05V13.24H314V24h12.18V34.4Z"/><path class="cls-1" d="M332.18,46.88V24h11.88V46.39c0,5.07,2.8,8.37,7.19,8.37s7.19-3.3,7.19-8.37V24h11.81V46.88c0,11.66-7.5,19.31-19,19.31s-19.07-7.65-19.07-19.31"/><path class="cls-1" d="M395.83,34.81c-3.78,0-6.2,3.46-6.2,9.65V65.22H377.74V42.29c0-11.67,4.85-19.23,15.9-19.23a26.8,26.8,0,0,1,6.88,1V35.93a14.27,14.27,0,0,0-4.69-1.12"/><path class="cls-1" d="M429.36,39.07a6.7,6.7,0,0,0-6.88-6.6c-3.64,0-6.66,2.17-8,6.6ZM441,47.2H414.3c1.14,5.23,5.45,8.61,12.34,8.61A21.54,21.54,0,0,0,439.51,51V61.52c-3.11,2.82-8.25,4.67-15,4.67-12.56,0-20.89-8.61-20.89-21.57,0-12,8-21.56,19.83-21.56,12.87,0,19.53,10.7,17.56,24.14"/></svg>