<svg width="70" height="70" viewBox="0 0 70 70" fill="none" xmlns="http://www.w3.org/2000/svg">
<path d="M70 34.8839C70 27.0498 67.3941 19.8281 63.0085 14V7.07391H56.0805C50.2331 2.63952 42.9237 0 35 0C27.0763 0 19.7669 2.63952 13.8983 7.07391H6.99153V14C2.60593 19.8281 0 27.0498 0 34.8839C0 42.7179 2.60593 49.9397 6.99153 55.7677V70H63.0297V55.7677C67.3941 49.9397 70 42.7179 70 34.8839ZM69.1525 34.8839C69.1525 42.1056 66.8856 48.8205 63.0085 54.3318V15.4359C66.8856 20.9472 69.1525 27.6621 69.1525 34.8839ZM62.6059 54.9231C56.3983 63.4118 46.3347 68.9231 35.0212 68.9231C23.7076 68.9231 13.6441 63.3907 7.43644 54.9231V14.8446C9.47034 12.0362 11.9492 9.56561 14.7458 7.49623H55.2542C58.0508 9.56561 60.5297 12.0362 62.6059 14.8658V54.9231ZM62.6059 7.49623V13.451C60.8686 11.2338 58.8771 9.22775 56.6525 7.49623H62.6059ZM35 0.844646C42.3093 0.844646 49.1102 3.1463 54.661 7.07391H15.339C20.911 3.1463 27.6907 0.844646 35 0.844646ZM7.41525 7.49623H13.3475C11.1441 9.22775 9.15254 11.2338 7.41525 13.451V7.49623ZM0.847458 34.8839C0.847458 27.6621 3.11441 20.9472 6.99153 15.4359V54.3318C3.11441 48.8205 0.847458 42.1056 0.847458 34.8839ZM7.41525 56.3167C13.1144 63.5807 21.6314 68.5641 31.3347 69.5777H7.41525V56.3167ZM62.6059 69.5777H38.6864C48.3686 68.5641 56.9068 63.6018 62.6059 56.3167V69.5777Z" fill="white"/>
<path d="M41.6104 32.5399H28.3901V21.834H21.5469V51.1854H28.3901V38.7058H41.6104V51.1854H48.4748V21.834H41.6104V32.5399Z" fill="white"/>
</svg>
