<svg width="395" height="39" viewBox="0 0 395 39" fill="none" xmlns="http://www.w3.org/2000/svg">
<path d="M72.2158 4.73045C72.2158 7.17197 70.1765 9.36171 67.4269 9.36171C64.6772 9.36171 62.6914 7.17197 62.6914 4.73045C62.6914 2.28893 64.6772 0 67.4269 0C70.1765 0 72.2158 2.18974 72.2158 4.73045ZM71.452 38.3166H63.4552V12.261H71.452V38.3166Z" fill="#4B40D9"/>
<path d="M102.316 23.8661V38.3169H94.3731V24.1713C94.3731 20.9668 92.4865 18.8763 89.5307 18.8763C86.5748 18.8763 84.6882 20.9592 84.6882 24.1713V38.3169H76.6914V23.8661C76.6914 16.4881 81.7324 11.6509 89.5307 11.6509C97.3289 11.6509 102.316 16.4881 102.316 23.8661Z" fill="#4B40D9"/>
<path d="M132.982 23.8661V38.3169H125.039V24.1713C125.039 20.9668 123.153 18.8763 120.197 18.8763C117.241 18.8763 115.354 20.9592 115.354 24.1713V38.3169H107.357V23.8661C107.357 16.4881 112.398 11.6509 120.197 11.6509C127.995 11.6509 132.982 16.4881 132.982 23.8661Z" fill="#4B40D9"/>
<path d="M162.121 26.918H144.141C144.905 30.2217 147.808 32.3657 152.444 32.3657C155.445 32.3657 158.508 31.1983 161.105 29.3138V35.9822C159.02 37.7599 155.552 38.9349 151.015 38.9349C142.56 38.9349 136.954 33.4872 136.954 25.2929C136.954 17.7089 142.354 11.6509 150.297 11.6509C158.959 11.6509 163.442 18.4185 162.113 26.918H162.121ZM154.277 21.7756C154.124 19.2806 152.192 17.6021 149.641 17.6021C147.09 17.6021 145.157 18.9754 144.294 21.7756H154.277Z" fill="#4B40D9"/>
<path d="M178.519 19.0823C175.976 19.0823 174.342 21.272 174.342 25.1861V38.3169H166.345V23.8127C166.345 16.4347 169.606 11.6509 177.045 11.6509C177.962 11.6509 180.612 11.8569 181.682 12.2613V19.7918C181.17 19.4332 179.031 19.0823 178.519 19.0823Z" fill="#4B40D9"/>
<path d="M212.096 12.2611V38.3167H204.152V34.8528C202.625 37.5003 199.875 38.9271 196.362 38.9271C189.281 38.9271 183.782 33.1742 183.782 25.2851C183.782 17.3959 189.281 11.6431 196.362 11.6431C199.875 11.6431 202.625 13.0698 204.152 15.7174V12.2534H212.096V12.2611ZM204.152 25.2851C204.152 21.6228 201.502 18.8761 197.989 18.8761C194.475 18.8761 191.878 21.6228 191.878 25.2851C191.878 28.9473 194.529 31.6941 197.989 31.6941C201.449 31.6941 204.152 28.9473 204.152 25.2851Z" fill="#4B40D9"/>
<path d="M238.477 14.0998V21.989C236.59 19.9519 234.146 18.8837 231.343 18.8837C227.371 18.8837 224.362 21.6304 224.362 25.2927C224.362 28.955 227.371 31.7017 231.343 31.7017C234.146 31.7017 236.743 30.5343 238.63 28.4438V36.4321C236.392 38.2633 232.924 38.9271 230.938 38.9271C222.483 38.9271 216.319 33.5328 216.319 25.2851C216.319 17.0373 222.483 11.6431 230.938 11.6431C232.924 11.6431 236.185 12.2 238.477 14.0846V14.0998Z" fill="#4B40D9"/>
<path d="M253.402 18.8303V27.2231C253.402 30.687 255.487 32.0069 257.48 32.0069C259.367 32.0069 260.635 31.4957 261.605 30.9388V37.8589C259.772 38.5227 257.679 38.9271 255.953 38.9271C250.094 38.9271 245.405 35.4174 245.405 27.6274V18.8227H241.326V12.2611H245.405V5.44775H253.402V12.2688H261.605V18.8303H253.402Z" fill="#4B40D9"/>
<path d="M275.459 4.73045C275.459 7.17197 273.42 9.36171 270.67 9.36171C267.92 9.36171 265.935 7.17197 265.935 4.73045C265.935 2.28893 267.92 0 270.67 0C273.42 0 275.459 2.18974 275.459 4.73045ZM274.695 38.3166H266.698V12.261H274.695V38.3166Z" fill="#4B40D9"/>
<path d="M278.874 25.2929C278.874 17.5105 285.038 11.6509 293.088 11.6509C301.138 11.6509 307.302 17.5029 307.302 25.2929C307.302 33.0829 301.138 38.9349 293.088 38.9349C285.038 38.9349 278.874 33.0295 278.874 25.2929ZM299.252 25.2929C299.252 21.6306 296.602 18.8839 293.088 18.8839C289.575 18.8839 286.978 21.6306 286.978 25.2929C286.978 28.9552 289.628 31.7019 293.088 31.7019C296.548 31.7019 299.252 28.9552 299.252 25.2929Z" fill="#4B40D9"/>
<path d="M336.891 23.8661V38.3169H328.947V24.1713C328.947 20.9668 327.061 18.8763 324.105 18.8763C321.149 18.8763 319.262 20.9592 319.262 24.1713V38.3169H311.266V23.8661C311.266 16.4881 316.307 11.6509 324.105 11.6509C331.903 11.6509 336.891 16.4881 336.891 23.8661Z" fill="#4B40D9"/>
<path d="M351.8 38.1337C351.388 38.3244 350.517 38.4694 349.692 38.4694C345.774 38.4694 343.734 35.9821 343.734 32.0299V11.811H348.447V31.8391C348.447 33.3422 349.165 34.3646 350.593 34.3646C350.967 34.3646 351.456 34.2883 351.762 34.1738L351.8 38.1261V38.1337Z" fill="#4B40D9"/>
<path d="M370.651 26.7192V38.3164H365.938V35.5697C365.075 37.4542 363.036 38.7666 360.622 38.7666C356.819 38.7666 354.1 36.1724 354.1 32.5941C354.1 29.0157 356.964 26.6429 360.882 26.6429C362.921 26.6429 364.762 27.3219 365.931 28.2222V26.9404C365.931 24.3387 363.968 22.7212 360.882 22.7212C358.85 22.7212 356.811 23.5528 355.154 25.0559V21.0274C356.887 19.5625 359.339 18.8071 361.676 18.8071C367.031 18.8071 370.651 21.9658 370.651 26.7116V26.7192ZM365.938 31.236V31.0834C364.884 30.2899 363.448 29.7635 362.02 29.7635C360.019 29.7635 358.629 30.9308 358.629 32.472C358.629 34.0132 360.027 35.2187 362.02 35.2187C364.166 35.2187 365.862 33.5249 365.938 31.2284V31.236Z" fill="#4B40D9"/>
<path d="M394.999 28.7949C394.999 34.4409 390.631 38.7746 384.711 38.7746C378.792 38.7746 374.423 34.5172 374.423 28.7949L374.385 11.811H379.097L379.136 20.509C380.717 19.456 382.641 18.8152 384.711 18.8152C390.631 18.8152 394.999 23.1412 394.999 28.7949ZM389.913 28.7949C389.913 25.5217 387.652 23.3701 384.711 23.3701C381.771 23.3701 379.433 25.5141 379.433 28.7949C379.433 32.0757 381.732 34.2578 384.711 34.2578C387.69 34.2578 389.913 32.0757 389.913 28.7949Z" fill="#4B40D9"/>
<path d="M31.8501 0.0380859C22.9597 0.0380859 15.7342 7.26346 15.7342 16.1369V27.2534C15.7342 29.1532 14.1838 30.7021 12.2819 30.7021C10.3801 30.7021 8.82961 29.1532 8.82961 27.2534V12.1465H0.779297V27.2534C0.779297 33.5861 5.93486 38.7362 12.2819 38.7362C18.629 38.7362 23.7769 33.5861 23.7769 27.2534V16.1369C23.7769 11.6887 27.3973 8.07222 31.8501 8.07222C36.303 8.07222 39.9234 11.6887 39.9234 16.1369V38.3013H47.966V16.1369C47.966 7.26346 40.7406 0.0380859 31.8501 0.0380859Z" fill="#4B40D9"/>
<path d="M31.857 17.022C29.2066 17.022 27.0527 19.1736 27.0527 21.8211C27.0527 24.4686 29.2066 26.6202 31.857 26.6202C34.5073 26.6202 36.6612 24.4686 36.6612 21.8211C36.6612 19.1736 34.5073 17.022 31.857 17.022Z" fill="#4B40D9"/>
<path d="M4.80422 9.63632C7.45456 9.63632 9.60844 7.48472 9.60844 4.8372C9.60844 2.18968 7.45456 0.0380859 4.80422 0.0380859C2.15388 0.0380859 0 2.18968 0 4.8372C0 7.48472 2.15388 9.63632 4.80422 9.63632Z" fill="#4B40D9"/>
</svg>
