<svg width="298" height="313" viewBox="0 0 298 313" fill="none" xmlns="http://www.w3.org/2000/svg">
<path d="M91.9226 312.859C91.908 309.344 91.889 306.11 91.8781 302.89C91.8333 280.628 91.7964 258.379 91.7654 236.109C91.7242 213.789 91.7049 191.475 91.6855 169.161C91.6711 159.564 91.6428 149.975 91.6721 140.39C91.6806 138.772 91.2535 137.776 89.7144 136.903C70.7826 126.009 51.896 115.033 33.0035 104.079C22.4747 97.9751 11.9321 91.8794 1.38941 85.7837C-0.351038 84.7859 -0.355435 84.7143 1.47432 83.6579C8.07254 79.8484 14.6788 76.0528 21.269 72.2294C62.3554 48.5082 103.428 24.795 144.506 1.05981C147.334 -0.57283 147.392 -0.569033 147.393 2.73073C147.414 21.9103 147.421 41.0979 147.442 60.2775C147.461 75.1005 147.508 89.9075 147.491 104.733C147.49 106.106 147.928 106.928 149.178 107.653C165.484 117.041 181.759 126.503 198.031 135.928C218.032 147.522 238.047 159.108 258.062 170.693C270.614 177.965 283.188 185.243 295.741 192.514C296.106 192.73 296.465 192.968 296.844 193.176C297.751 193.69 297.612 194.123 296.786 194.581C294.865 195.672 292.952 196.776 291.026 197.888C225.251 235.863 159.477 273.838 93.7027 311.813C93.176 312.117 92.6631 312.413 91.8591 312.877L91.9226 312.859ZM147.654 170.447C146.888 170.017 146.354 169.732 145.834 169.439C128.855 159.624 111.863 149.816 94.8964 139.957C93.6164 139.212 93.4034 139.483 93.4015 140.857C93.4565 152.284 93.4757 163.714 93.481 175.152C93.5041 201.154 93.5271 227.156 93.564 253.15C93.5809 270.978 93.6256 288.79 93.6783 306.616C93.6836 307.522 93.2519 308.791 93.9678 309.231C94.8332 309.769 95.7072 308.69 96.5111 308.226C160.422 271.345 224.325 234.451 288.228 197.557C289.767 196.668 291.271 195.688 292.858 194.884C294.298 194.145 294.231 193.645 292.878 192.869C288.334 190.282 283.825 187.657 279.293 185.026C262.863 175.487 246.432 165.948 229.988 156.418C213.394 146.788 196.795 137.18 180.195 127.572C169.816 121.567 159.417 115.593 149.058 109.558C147.971 108.925 147.576 108.912 147.59 110.313C147.637 126.177 147.662 142.035 147.687 157.893C147.687 161.99 147.674 166.096 147.667 170.439L147.654 170.447ZM91.553 74.2063C96.6488 77.1422 101.581 79.9871 106.5 82.84C119.044 90.0978 131.588 97.3557 144.107 104.665C145.469 105.455 145.806 105.335 145.798 103.689C145.754 85.3016 145.776 66.9319 145.754 48.5503C145.744 34.2229 145.697 19.8975 145.637 5.58009C145.626 4.69647 146.09 3.48302 145.185 3.00415C144.332 2.55099 143.525 3.55454 142.763 3.99471C97.6902 29.9989 52.6255 56.0171 7.57465 82.0272C6.77067 82.4914 5.98054 82.9476 5.17655 83.4117C3.12721 84.632 3.11994 84.7475 5.16542 85.9214C10.3809 88.9366 15.5964 91.9518 20.8119 94.967C43.8413 108.317 66.8926 121.672 89.9162 135.044C91.2261 135.808 91.6332 135.777 91.6292 134.074C91.5578 120.857 91.5659 107.65 91.5522 94.4367C91.5508 87.7437 91.5493 81.0506 91.5369 74.1785L91.553 74.2063ZM145.77 167.344C145.819 166.629 145.851 166.333 145.861 166.03C145.863 159.15 145.856 152.256 145.85 145.362C145.843 133.313 145.8 121.266 145.815 109.224C145.81 108.095 145.469 107.44 144.474 106.901C141.621 105.322 138.828 103.652 136.001 102.021C122.436 94.1475 108.87 86.2738 95.2992 78.422C93.3493 77.2856 93.3158 77.3235 93.3214 79.6381C93.3443 98.149 93.3811 116.652 93.3463 135.159C93.343 136.626 93.832 137.345 95.0441 138.036C108.055 145.525 121.032 153.052 134.023 160.571C137.847 162.777 141.671 164.982 145.748 167.338L145.77 167.344Z" fill="#4941D1"/>
</svg>
