<svg width="284" height="176" viewBox="0 0 284 176" fill="none" xmlns="http://www.w3.org/2000/svg">
<circle cx="88" cy="88" r="87.5" stroke="#FC4336"/>
<circle cx="196" cy="88" r="87.5" stroke="#FC4336"/>
<mask id="path-3-outside-1" maskUnits="userSpaceOnUse" x="98" y="6" width="88" height="165" fill="black">
<rect fill="white" x="98" y="6" width="88" height="165"/>
<path fill-rule="evenodd" clip-rule="evenodd" d="M142 157.978C162.69 141.876 176 116.737 176 88.4889C176 60.241 162.69 35.1016 142 19C121.31 35.1016 108 60.241 108 88.4889C108 116.737 121.31 141.876 142 157.978Z"/>
</mask>
<path d="M142 157.978L135.858 165.87L142 170.649L148.142 165.87L142 157.978ZM142 19L148.142 11.1082L142 6.32867L135.858 11.1082L142 19ZM166 88.4889C166 113.522 154.219 135.797 135.858 150.086L148.142 165.87C171.162 147.955 186 119.952 186 88.4889H166ZM135.858 26.8918C154.219 41.1804 166 63.4564 166 88.4889H186C186 57.0256 171.162 29.0228 148.142 11.1082L135.858 26.8918ZM118 88.4889C118 63.4564 129.781 41.1804 148.142 26.8918L135.858 11.1082C112.838 29.0228 98 57.0256 98 88.4889H118ZM148.142 150.086C129.781 135.797 118 113.522 118 88.4889H98C98 119.952 112.838 147.955 135.858 165.87L148.142 150.086Z" fill="#F9F8F8" mask="url(#path-3-outside-1)"/>
</svg>
