<svg width="251" height="250" viewBox="0 0 251 250" fill="none" xmlns="http://www.w3.org/2000/svg">
<path d="M125.474 90.81V0" stroke="#FC4336" stroke-miterlimit="10"/>
<path d="M128.08 90.0312L125.474 94.5484L122.867 90.0312H128.08Z" fill="#FC4336"/>
<path d="M101.234 100.831L36.751 36.6045" stroke="#FC4336" stroke-miterlimit="10"/>
<path d="M102.538 98.4424L103.841 103.427L98.8364 102.129L102.538 98.4424Z" fill="#FC4336"/>
<path d="M91.1732 124.974H0" stroke="#FC4336" stroke-miterlimit="10"/>
<path d="M90.3911 122.378L94.9263 124.974L90.3911 127.57V122.378Z" fill="#FC4336"/>
<path d="M101.234 149.17L36.751 213.396" stroke="#FC4336" stroke-miterlimit="10"/>
<path d="M98.8364 147.871L103.841 146.521L102.538 151.506L98.8364 147.871Z" fill="#FC4336"/>
<path d="M125.474 159.189V249.999" stroke="#FC4336" stroke-miterlimit="10"/>
<path d="M122.867 159.916L125.474 155.451L128.08 159.916H122.867Z" fill="#FC4336"/>
<path d="M149.766 149.17L214.249 213.396" stroke="#FC4336" stroke-miterlimit="10"/>
<path d="M148.463 151.506L147.107 146.521L152.112 147.871L148.463 151.506Z" fill="#FC4336"/>
<path d="M159.827 124.974H251" stroke="#FC4336" stroke-miterlimit="10"/>
<path d="M160.556 127.57L156.073 124.974L160.556 122.378V127.57Z" fill="#FC4336"/>
<path d="M149.766 100.831L214.249 36.6045" stroke="#FC4336" stroke-miterlimit="10"/>
<path d="M152.112 102.129L147.107 103.427L148.463 98.4424L152.112 102.129Z" fill="#FC4336"/>
</svg>
