<svg width="187" height="24" viewBox="0 0 187 24" fill="none" xmlns="http://www.w3.org/2000/svg">
<g style="mix-blend-mode:lighten">
<path d="M16.4735 13.3589V23.1093H11.3767V14.0333C11.3767 11.9374 10.1025 10.5887 8.30046 10.5887C6.49838 10.5887 5.15138 12.1014 5.15138 14.2884V23.0729H0V0H5.15138V8.49286C6.22534 6.81616 7.86359 5.90491 9.9387 5.90491C13.8341 5.90491 16.4735 8.72979 16.4735 13.3589Z" fill="white"/>
<path d="M19.7314 15.6189V6.30591H24.8828V15.4184C24.8828 17.4779 26.1024 18.8265 27.9955 18.8265C29.8886 18.8265 31.1082 17.4779 31.1082 15.4184V6.30591H36.2231V15.6189C36.2231 20.3756 32.9831 23.4921 27.9955 23.4921C22.9715 23.4921 19.7314 20.3756 19.7314 15.6189Z" fill="white"/>
<path d="M63.9278 13.7418V23.0912H58.7765V14.1063C58.7765 11.5548 57.9209 10.5889 56.4101 10.5889C54.9357 10.5889 54.0255 11.6095 54.0255 14.0334V23.0912H48.9834V14.0334C48.9834 11.6095 48.0732 10.5889 46.5624 10.5889C45.1244 10.5889 44.196 11.5366 44.196 14.1063V23.0912H39.0811V13.7418C39.0811 9.02151 41.9025 5.90503 46.5442 5.90503C48.5465 5.90503 50.2212 6.79806 51.4953 8.36541C52.7331 6.79806 54.4442 5.90503 56.4101 5.90503C61.1064 5.90503 63.9278 9.02151 63.9278 13.7418Z" fill="white"/>
<path d="M84.6614 6.30591V23.1094H79.5464V20.8859C78.5635 22.5991 76.7978 23.5103 74.5407 23.5103C69.99 23.5103 66.4404 19.8107 66.4404 14.7259C66.4404 9.64109 69.9718 5.94141 74.5407 5.94141C76.7978 5.94141 78.5635 6.85266 79.5464 8.56581V6.30591H84.6614ZM79.5464 14.6894C79.5464 12.3202 77.8354 10.5523 75.5782 10.5523C73.3575 10.5523 71.6464 12.3202 71.6464 14.6894C71.6464 17.0587 73.3575 18.8265 75.5782 18.8265C77.8536 18.8265 79.5464 17.0587 79.5464 14.6894Z" fill="white"/>
<path d="M104.539 13.7782V23.0912H99.4236V13.9787C99.4236 11.9193 98.204 10.5706 96.3109 10.5706C94.4178 10.5706 93.1982 11.9193 93.1982 13.9787V23.0912H88.0469V13.7782C88.0469 9.02151 91.287 5.90503 96.3109 5.90503C101.298 5.90503 104.539 9.02151 104.539 13.7782Z" fill="white"/>
<path d="M122.177 12.9581V23.0912H117.026V21.0318C116.243 22.508 114.659 23.4922 112.694 23.4922C109.508 23.4922 107.196 21.1958 107.196 18.0794C107.196 14.9264 109.617 12.867 113.003 12.867C114.568 12.867 116.043 13.3591 117.026 14.0152V13.2315C117.026 11.3543 115.479 10.1879 113.021 10.1879C111.347 10.1879 109.708 10.7529 108.234 11.9011V7.58173C109.799 6.47001 111.929 5.90503 113.968 5.90503C118.791 5.90503 122.177 8.78459 122.177 12.9581ZM117.026 16.9859V16.913C116.134 16.4573 115.187 16.184 114.277 16.184C112.967 16.184 112.056 16.9312 112.056 17.9153C112.056 18.8995 112.967 19.6467 114.277 19.6467C115.752 19.6832 116.898 18.5714 117.026 16.9859Z" fill="white"/>
<path d="M131.879 10.5342V15.947C131.879 18.1705 133.226 19.027 134.5 19.027C135.72 19.027 136.539 18.699 137.158 18.3345V22.7996C135.975 23.2188 134.628 23.4922 133.517 23.4922C129.749 23.4922 126.728 21.2323 126.728 16.2022V10.5342H124.106V6.30597H126.728V1.89551H131.879V6.28774H137.158V10.516H131.879V10.5342Z" fill="white"/>
<path d="M139.742 15.6189V6.30591H144.894V15.4184C144.894 17.4779 146.113 18.8265 148.006 18.8265C149.899 18.8265 151.119 17.4779 151.119 15.4184V6.30591H156.234V15.6189C156.234 20.3756 152.994 23.4921 148.006 23.4921C142.982 23.4921 139.742 20.3756 139.742 15.6189Z" fill="white"/>
<path d="M167.283 10.6982C165.645 10.6982 164.589 12.1015 164.589 14.6348V23.0912H159.456V13.7418C159.456 8.98506 161.549 5.90503 166.337 5.90503C166.919 5.90503 168.63 6.0326 169.322 6.30598V11.1538C168.994 10.9169 167.611 10.6982 167.283 10.6982Z" fill="white"/>
<path d="M186.851 15.7465H175.292C175.784 17.8788 177.659 19.2639 180.626 19.2639C182.555 19.2639 184.521 18.5167 186.196 17.2956V21.5967C184.849 22.7449 182.628 23.4921 179.716 23.4921C174.273 23.4921 170.669 19.9747 170.669 14.7076C170.669 9.82331 174.146 5.92315 179.261 5.92315C184.831 5.90493 187.707 10.2607 186.851 15.7465ZM181.809 12.4295C181.718 10.8257 180.462 9.73219 178.824 9.73219C177.258 9.73219 175.948 10.6252 175.383 12.4295H181.809Z" fill="white"/>
</g>
</svg>
