<?xml version="1.0" encoding="utf-8"?>
<!-- Generator: Adobe Illustrator 25.2.0, SVG Export Plug-In . SVG Version: 6.00 Build 0)  -->
<svg version="1.1" id="Layer_1" xmlns="http://www.w3.org/2000/svg" xmlns:xlink="http://www.w3.org/1999/xlink" x="0px" y="0px"
	 viewBox="0 0 187 24" style="enable-background:new 0 0 187 24;" xml:space="preserve">
<style type="text/css">
	.st0{fill:#424242;}
</style>
<path class="st0" d="M16.5,13.4v9.8h-5.1V14c0-2.1-1.3-3.4-3.1-3.4c-1.8,0-3.1,1.5-3.1,3.7v8.8H0V0h5.2v8.5c1.1-1.7,2.7-2.6,4.8-2.6
	C13.8,5.9,16.5,8.7,16.5,13.4z"/>
<path class="st0" d="M19.7,15.6V6.3h5.2v9.1c0,2.1,1.2,3.4,3.1,3.4c1.9,0,3.1-1.3,3.1-3.4V6.3h5.1v9.3c0,4.8-3.2,7.9-8.2,7.9
	C23,23.5,19.7,20.4,19.7,15.6z"/>
<path class="st0" d="M63.9,13.7v9.3h-5.2v-9c0-2.6-0.9-3.5-2.4-3.5c-1.5,0-2.4,1-2.4,3.4v9.1h-5V14c0-2.4-0.9-3.4-2.4-3.4
	c-1.4,0-2.4,0.9-2.4,3.5v9h-5.1v-9.3c0-4.7,2.8-7.8,7.5-7.8c2,0,3.7,0.9,5,2.5c1.2-1.6,2.9-2.5,4.9-2.5C61.1,5.9,63.9,9,63.9,13.7z"
	/>
<path class="st0" d="M84.7,6.3v16.8h-5.1v-2.2c-1,1.7-2.7,2.6-5,2.6c-4.6,0-8.1-3.7-8.1-8.8c0-5.1,3.5-8.8,8.1-8.8
	c2.3,0,4,0.9,5,2.6V6.3H84.7z M79.5,14.7c0-2.4-1.7-4.1-4-4.1c-2.2,0-3.9,1.8-3.9,4.1c0,2.4,1.7,4.1,3.9,4.1
	C77.9,18.8,79.5,17.1,79.5,14.7z"/>
<path class="st0" d="M104.5,13.8v9.3h-5.1V14c0-2.1-1.2-3.4-3.1-3.4c-1.9,0-3.1,1.3-3.1,3.4v9.1H88v-9.3c0-4.8,3.2-7.9,8.3-7.9
	C101.3,5.9,104.5,9,104.5,13.8z"/>
<path class="st0" d="M122.2,13v10.1H117V21c-0.8,1.5-2.4,2.5-4.3,2.5c-3.2,0-5.5-2.3-5.5-5.4c0-3.2,2.4-5.2,5.8-5.2
	c1.6,0,3,0.5,4,1.1v-0.8c0-1.9-1.5-3-4-3c-1.7,0-3.3,0.6-4.8,1.7V7.6c1.6-1.1,3.7-1.7,5.7-1.7C118.8,5.9,122.2,8.8,122.2,13z
	 M117,17L117,17c-0.9-0.5-1.8-0.8-2.7-0.8c-1.3,0-2.2,0.7-2.2,1.7c0,1,0.9,1.7,2.2,1.7C115.8,19.7,116.9,18.6,117,17z"/>
<path class="st0" d="M131.9,10.5v5.4c0,2.2,1.3,3.1,2.6,3.1c1.2,0,2-0.3,2.7-0.7v4.5c-1.2,0.4-2.5,0.7-3.6,0.7
	c-3.8,0-6.8-2.3-6.8-7.3v-5.7h-2.6V6.3h2.6V1.9h5.2v4.4h5.3v4.2L131.9,10.5L131.9,10.5z"/>
<path class="st0" d="M139.7,15.6V6.3h5.2v9.1c0,2.1,1.2,3.4,3.1,3.4c1.9,0,3.1-1.3,3.1-3.4V6.3h5.1v9.3c0,4.8-3.2,7.9-8.2,7.9
	C143,23.5,139.7,20.4,139.7,15.6z"/>
<path class="st0" d="M167.3,10.7c-1.6,0-2.7,1.4-2.7,3.9v8.5h-5.1v-9.3c0-4.8,2.1-7.8,6.9-7.8c0.6,0,2.3,0.1,3,0.4v4.8
	C169,10.9,167.6,10.7,167.3,10.7z"/>
<path class="st0" d="M186.9,15.7h-11.6c0.5,2.1,2.4,3.5,5.3,3.5c1.9,0,3.9-0.7,5.6-2v4.3c-1.3,1.1-3.6,1.9-6.5,1.9
	c-5.4,0-9-3.5-9-8.8c0-4.9,3.5-8.8,8.6-8.8C184.8,5.9,187.7,10.3,186.9,15.7z M181.8,12.4c-0.1-1.6-1.3-2.7-3-2.7
	c-1.6,0-2.9,0.9-3.4,2.7H181.8z"/>
</svg>
