<svg id="Layer_1" data-name="Layer 1" xmlns="http://www.w3.org/2000/svg" viewBox="0 0 450.72 73.44"><defs><style>.cls-1{fill:#fc4336;}</style></defs><title>humanature-red</title><path class="cls-1" d="M47.43,40.9V64.8H35.62V42.59c0-5.15-2.95-8.44-7.11-8.44s-7.27,3.7-7.27,9.09V64.8H9.36V8.15H21.24V29a12.43,12.43,0,0,1,11.05-6.36c9,0,15.14,6.92,15.14,18.26"/><path class="cls-1" d="M54.93,46.46V23.6H66.81V46c0,5.07,2.8,8.37,7.19,8.37S81.19,51,81.19,46V23.6H93V46.46c0,11.67-7.5,19.31-19,19.31S54.93,58.13,54.93,46.46"/><path class="cls-1" d="M157,41.87V64.8H145.14v-22c0-6.28-2-8.61-5.45-8.61s-5.52,2.49-5.52,8.44V64.8H122.51V42.59c0-6-2.12-8.44-5.6-8.44-3.33,0-5.45,2.33-5.45,8.61v22H99.65V41.87c0-11.59,6.51-19.23,17.26-19.23,4.62,0,8.48,2.17,11.43,6a13.92,13.92,0,0,1,11.35-6c10.82,0,17.33,7.64,17.33,19.23"/><path class="cls-1" d="M193.13,44.2c0-5.79-3.94-10.14-9.16-10.14s-9.08,4.35-9.08,10.14,3.93,10.14,9.08,10.14,9.16-4.34,9.16-10.14m11.81-20.6V64.8H193.13V59.33c-2.27,4.19-6.36,6.44-11.58,6.44-10.52,0-18.7-9.09-18.7-21.57s8.18-21.56,18.7-21.56c5.22,0,9.31,2.25,11.58,6.44V23.6Z"/><path class="cls-1" d="M250.88,42V64.8H239.07V42.43c0-5.07-2.8-8.37-7.19-8.37s-7.19,3.3-7.19,8.37V64.8H212.81V42c0-11.67,7.49-19.31,19.07-19.31s19,7.64,19,19.31"/><path class="cls-1" d="M279.72,49.84v-.16a13.29,13.29,0,0,0-6.36-1.77c-3,0-5.14,1.85-5.14,4.26s2.11,4.27,5.14,4.27c3.41,0,6.06-2.74,6.36-6.6m11.88-9.9V64.8H279.72V59.74a10.91,10.91,0,0,1-10,6c-7.34,0-12.72-5.63-12.72-13.28s5.6-12.79,13.4-12.79a16.6,16.6,0,0,1,9.31,2.81V40.58c0-4.58-3.56-7.48-9.23-7.48a17.17,17.17,0,0,0-11.05,4.18V26.74a22.46,22.46,0,0,1,13.24-4.1c11.13,0,18.92,7.08,18.92,17.3"/><path class="cls-1" d="M314,34V47.26c0,5.47,3.1,7.57,6.05,7.57a11.17,11.17,0,0,0,6.13-1.69V64.08a24.6,24.6,0,0,1-8.4,1.69c-8.7,0-15.67-5.55-15.67-17.86V34h-6.05V23.6h6.05V12.82H314V23.6h12.18V34Z"/><path class="cls-1" d="M332.18,46.46V23.6h11.88V46c0,5.07,2.8,8.37,7.19,8.37s7.19-3.3,7.19-8.37V23.6h11.81V46.46c0,11.67-7.5,19.31-19,19.31s-19.07-7.64-19.07-19.31"/><path class="cls-1" d="M395.83,34.39c-3.78,0-6.2,3.46-6.2,9.65V64.8H377.74V41.87c0-11.67,4.85-19.23,15.9-19.23a26.8,26.8,0,0,1,6.88,1V35.51a14.27,14.27,0,0,0-4.69-1.12"/><path class="cls-1" d="M429.36,38.65a6.7,6.7,0,0,0-6.88-6.6c-3.64,0-6.66,2.18-8,6.6ZM441,46.78H414.3c1.14,5.23,5.45,8.61,12.34,8.61a21.54,21.54,0,0,0,12.87-4.83V61.1c-3.11,2.82-8.25,4.67-15,4.67-12.56,0-20.89-8.61-20.89-21.57,0-12,8-21.56,19.83-21.56,12.87,0,19.53,10.7,17.56,24.14"/></svg>