<svg width="167" height="33" viewBox="0 0 167 33" fill="none" xmlns="http://www.w3.org/2000/svg">
<g clip-path="url(#clip0)">
<path d="M3.1718 28.8964C2.11453 28.9446 1.15338 29.0892 0 28.7037C4.03683 19.4507 8.07367 10.294 12.0624 1.18561C13.1197 0.944642 13.9847 0.944642 14.994 1.18561C16.9163 5.52295 18.8386 9.8603 20.7609 14.2458C22.7312 18.776 24.7496 23.3061 26.72 27.8362C27.2006 28.9928 27.9214 29.9085 28.8826 30.5832C30.9491 31.4507 32.9194 31.2579 35.1781 29.9567C34.7456 31.1133 34.1209 31.5952 33.3519 31.9808C29.6515 34.0049 25.7588 32.8001 23.8846 28.9446C23.0676 27.3061 22.4429 25.5711 21.722 23.8844C21.4337 23.1615 21.2414 22.3422 20.5206 21.7157C15.9071 21.7157 11.1974 21.7157 6.29554 21.7157C5.28633 24.0772 4.27712 26.3904 3.1718 28.8964ZM7.83338 18.8242C11.6299 18.8242 15.4265 18.8242 19.5114 18.8242C17.541 14.0531 15.6668 9.47476 13.6964 4.70368C12.2547 6.92055 8.16978 16.8964 7.83338 18.8242Z" fill="#FC4336"/>
<path d="M45.8472 25.667C47.2889 27.6429 49.019 27.0646 50.749 26.6308C51.3257 27.3055 50.9413 28.0284 51.0854 28.7995C50.2204 29.0405 49.4995 29.3296 48.7306 29.3778C45.1263 29.7634 43.1079 28.0284 42.9637 24.3658C42.8676 21.3296 42.9637 18.2453 42.9637 15.2091C42.9637 14.4381 43.1079 13.6188 42.7234 12.7995C39.6958 12.5585 36.8123 12.5104 34.6498 15.2573C33.5925 16.6549 32.9197 18.1007 32.9197 19.8838C32.9197 22.1971 32.9197 24.5585 32.9197 26.8718C32.9197 27.6429 32.9677 28.7031 32.6794 29.2332C31.9585 29.2332 31.3338 29.2332 30.4688 29.2332C30.4688 23.161 30.4688 17.0887 30.4688 10.8718C31.0935 10.3417 31.8144 10.5344 32.5833 10.7272C32.9677 11.6911 32.6313 12.7031 32.9197 13.8598C34.1211 12.3658 35.3226 10.92 37.2449 10.7272C39.0711 10.5344 40.8972 10.679 42.7715 10.679C43.204 8.79951 42.8195 7.20915 43.1079 5.61879C43.9249 5.13686 44.6938 5.28144 45.5588 5.42602C46.0875 7.01638 45.4627 8.75132 45.9913 10.4863C47.6253 10.4863 49.2112 10.4863 50.6529 10.4863C51.2296 11.2091 51.1335 11.7875 50.8452 12.6549C49.2593 12.6549 47.6253 12.6549 45.8952 12.6549C45.8472 17.2332 45.8472 21.5224 45.8472 25.667Z" fill="#FC4336"/>
<path d="M128.314 24.0279C129.083 24.5581 129.659 24.8954 129.9 25.7147C127.641 28.8472 124.421 29.9075 120.721 29.3773C116.732 28.799 114.137 26.3894 113.032 22.4858C111.494 17.0882 114.329 12.6545 117.741 11.0641C124.421 7.97975 131.726 12.2689 130.669 20.3171C125.671 20.3171 120.577 20.3171 115.434 20.3171C115.723 23.4496 117.116 25.4737 119.664 26.534C123.076 27.8834 125.911 26.8231 128.314 24.0279ZM127.833 18.2448C127.929 14.5822 125.478 12.0279 122.066 12.2207C118.75 12.4135 115.338 14.9677 115.771 18.2448C119.712 18.2448 123.7 18.2448 127.833 18.2448Z" fill="#FC4336"/>
<path d="M137.253 14.3902C136.676 13.9083 136.099 13.4745 135.811 12.7516C136.388 11.9324 137.108 11.4504 138.022 11.0649C140.376 10.0047 142.827 9.95647 145.278 10.2456C148.066 10.5348 150.132 12.7035 150.324 16.0769C150.613 20.2697 150.372 24.5107 150.372 28.7035C149.651 29.1372 149.027 28.9926 148.402 28.8962C147.729 28.3661 148.306 27.2577 147.393 26.6794C145.663 28.6071 143.404 29.6191 140.713 29.4263C138.358 29.2336 136.339 28.3661 135.186 26.1974C133.792 23.4986 135.234 20.0769 138.166 18.8721C140.04 18.101 141.962 17.7637 143.981 17.8119C145.134 17.8601 146.384 18.0047 147.489 17.1854C147.921 15.3059 147.104 14.0047 145.663 12.8962C142.587 11.595 139.848 12.5589 137.253 14.3902ZM147.441 19.8842C145.903 19.8842 144.461 19.7878 143.02 19.8842C139.8 20.1251 138.262 21.2818 137.541 23.836C138.55 26.5348 140.713 27.6432 143.548 26.9685C146.576 26.1974 148.306 23.1131 147.441 19.8842Z" fill="#FC4336"/>
<path d="M91.1172 0.992188C92.5109 0.992188 93.4239 0.992188 94.5773 0.992188C97.2205 5.18496 100.056 9.5705 102.939 14.1488C105.775 9.76327 108.514 5.28134 111.253 0.992188C112.407 0.992188 113.416 0.992188 114.858 0.992188C111.301 6.38978 107.841 11.691 104.333 17.0404C104.333 20.8476 104.333 24.7512 104.333 28.7512C103.42 29.0404 102.555 28.9922 101.594 28.7994C101.594 24.7994 101.594 20.8958 101.594 17.0886C98.1336 11.8356 94.6254 6.38978 91.1172 0.992188Z" fill="#FC4336"/>
<path d="M76.9406 22.3415C77.9017 27.3536 73.6246 29.956 68.4344 29.3777C66.0796 29.1367 64.782 28.2692 63.0039 26.1487C63.1481 25.2331 64.1092 25.1367 64.6859 24.4138C66.416 26.1487 68.2902 27.4981 70.8373 27.0644C72.1348 26.8234 73.2402 26.2451 74.0091 25.0885C74.2974 22.7753 73.8649 22.0524 71.7504 21.3295C70.0203 20.7512 68.1461 20.6066 66.464 19.8837C63.917 18.7753 62.9078 16.6066 63.6286 14.0042C64.0131 12.703 64.782 11.7391 65.9835 11.1126C68.6266 9.71501 71.3659 9.7632 74.0571 10.9198C75.0183 11.3054 75.7872 12.0283 76.1717 13.0403C75.7872 13.9078 75.0663 14.2451 74.2494 14.6307C72.9518 13.6668 71.9426 12.1728 69.5397 12.3656C68.3383 12.6548 66.5121 12.8475 66.0796 15.0162C66.2718 16.7993 67.5213 17.474 68.963 17.8596C70.1164 18.1969 71.2698 18.4861 72.4232 18.7271C74.5858 19.1608 76.0756 20.3174 76.9406 22.3415Z" fill="#FC4336"/>
<path d="M90.6849 26.5829C91.0213 27.4504 90.9732 28.0769 90.7329 28.7516C89.7718 29.2817 88.7145 29.4745 87.5611 29.4263C84.4854 29.3781 82.8515 27.7877 82.8034 24.6552C82.7554 21.4263 82.8034 18.2456 82.8034 15.0166C82.8034 14.2937 82.9956 13.5709 82.5151 12.848C81.5059 12.4624 80.3525 12.848 79.2471 12.607C78.6705 12.0769 78.9588 11.4504 78.9588 10.8239C80.1602 10.2456 81.4097 10.8239 82.6592 10.3419C83.0918 8.84796 82.6592 7.20941 82.9476 5.61905C83.7165 5.04074 84.4854 5.37808 85.3024 5.37808C85.9272 7.01664 85.2543 8.75158 85.783 10.5347C87.3689 10.5347 88.9548 10.5347 90.3965 10.5347C90.9732 11.2576 90.9251 11.8841 90.5887 12.6552C89.099 12.6552 87.5131 12.6552 85.9752 12.6552C85.3985 14.5347 85.3505 23.1612 85.783 25.9564C87.1767 27.7877 88.9548 26.9202 90.6849 26.5829Z" fill="#FC4336"/>
<path d="M159.215 28.7028C158.302 29.0883 157.677 29.0401 156.908 28.8474C156.908 22.9196 156.908 16.9437 156.908 10.9196C157.485 10.3895 158.158 10.7269 158.782 10.6787C159.455 11.498 158.879 12.4618 159.263 13.2329C162.002 10.004 164.261 9.47386 166.952 10.2931C166.856 10.9196 166.808 11.5943 166.712 12.1727C166.376 12.5582 165.943 12.6064 165.559 12.5582C161.378 12.2209 159.167 15.8835 159.167 19.016C159.215 22.2449 159.215 25.4257 159.215 28.7028Z" fill="#FC4336"/>
<path d="M57.6686 28.8481C56.8036 28.9445 56.1789 29.089 55.458 28.7035C55.458 22.7758 55.458 16.7999 55.458 10.824C56.1789 10.4866 56.8517 10.5348 57.6686 10.7758C57.6686 16.7035 57.6686 22.7276 57.6686 28.8481Z" fill="#FC4336"/>
<path d="M54.4971 3.59476C54.6412 2.6791 54.9776 2.10078 55.6505 1.61885C56.6597 1.3297 57.7169 1.3297 58.1494 2.53452C58.582 3.73934 58.1014 4.70319 56.8519 5.18512C55.6985 5.42608 55.1218 4.55861 54.4971 3.59476Z" fill="#FC4336"/>
</g>
<defs>
<clipPath id="clip0">
<rect width="167" height="32" fill="white" transform="translate(0 0.992188)"/>
</clipPath>
</defs>
</svg>
