<svg width="94" height="136" viewBox="0 0 94 136" fill="none" xmlns="http://www.w3.org/2000/svg">
<path d="M49.8411 3.41418C50.0931 3.45396 50.3052 3.49375 50.5705 3.53353C50.5307 4.32921 50.4909 5.09837 50.4511 5.85426C50.2655 8.93088 50.0798 12.0208 49.9074 15.0974C49.8809 15.5085 49.8146 15.8268 49.2311 15.8533C49.2311 16.8214 49.2443 17.7496 49.2311 18.6779C49.2178 19.1553 49.1913 19.1553 48.6608 19.1023C48.568 18.0149 48.7537 16.9142 48.7404 15.8002C48.4221 15.7074 48.21 15.6013 48.21 15.1902C48.2763 11.3444 48.3161 7.51192 48.3558 3.66615C48.3558 3.59984 48.3824 3.53353 48.3956 3.48049C48.5945 3.28157 48.8863 3.45396 49.1515 3.25505C49.2046 2.23393 49.2576 1.15976 49.3106 0.0723338C49.7085 -0.0868018 49.8676 0.00602732 49.8544 0.456911C49.8146 1.42499 49.8411 2.39306 49.8411 3.41418Z" fill="#FC4336"/>
<path d="M46.0487 3.38791C46.0884 4.19685 46.1415 4.91296 46.168 5.64233C46.3006 8.81178 46.4332 11.9945 46.5659 15.1639C46.5791 15.4026 46.6189 15.6413 46.2741 15.7342C45.9691 15.8137 46.0752 16.0922 46.0884 16.3044C46.1282 17.1134 46.1813 17.9356 46.2476 18.7445C46.2874 19.1689 46.115 19.2484 45.7039 19.1291C45.6508 18.2671 45.611 17.4184 45.5315 16.5564C45.5049 16.2381 45.611 15.8137 45.0673 15.7474C44.8817 15.7209 44.9082 15.5087 44.8949 15.3496C44.5369 11.5967 44.1921 7.84371 43.834 4.09076C43.8208 3.94489 43.834 3.78575 43.834 3.6664C44.0462 3.4277 44.3379 3.54705 44.6032 3.36139C44.5369 2.31375 44.4706 1.22632 44.4043 0.112372C44.7888 -0.060025 44.9878 -0.00697985 45.0143 0.443904C45.0541 1.14675 45.1469 1.8496 45.1336 2.55245C45.1469 3.16247 45.2928 3.52052 46.0487 3.38791Z" fill="#FC4336"/>
<path d="M54.7211 0.483504C54.5752 1.59745 54.4293 2.67162 54.2834 3.706C54.4956 3.98449 54.8271 3.85187 55.0659 4.1171C54.4028 8.04244 53.7397 12.0076 53.0766 16.0257C52.5462 15.986 52.4931 16.344 52.4401 16.7684C52.3473 17.6436 52.2014 18.5056 52.0688 19.3676C51.6312 19.4604 51.472 19.3411 51.5383 18.9432C51.6444 18.2934 51.724 17.6304 51.8036 16.9806C51.8566 16.5562 52.1351 16.092 51.5516 15.7738C51.4853 15.734 51.4985 15.482 51.5118 15.3362C51.9362 11.5699 52.3605 7.80374 52.7849 4.03753C52.7982 3.93144 52.8379 3.82535 52.8512 3.73252C53.1032 3.56013 53.3419 3.82535 53.6734 3.62643C53.7928 2.77771 53.9121 1.84942 54.058 0.921127C54.1508 0.364153 54.1641 0.364153 54.7211 0.483504Z" fill="#FC4336"/>
<path d="M40.1469 20.1894C39.8287 19.1285 39.5104 18.0941 39.1921 17.0067C38.8208 17.1393 38.6617 17.0067 38.5423 16.6486C37.3886 13.0813 36.2216 9.52731 35.0546 5.96002C35.0016 5.78763 34.922 5.62849 35.0016 5.42957C35.2005 5.33674 35.4127 5.23065 35.6646 5.1113C35.3463 4.03713 35.0413 2.98949 34.7363 1.91533C35.0811 1.6501 35.28 1.66336 35.3994 2.10099C35.6646 3.02928 35.9431 3.95757 36.2083 4.84607C36.5133 5.04499 36.7653 4.73998 37.0968 4.88586C37.4019 5.99981 37.7201 7.1668 38.0251 8.3338C38.7015 10.8667 39.3645 13.3996 40.0408 15.9325C40.1204 16.2508 40.3724 16.5691 39.895 16.8343C39.7093 16.9404 39.8684 17.2056 39.9215 17.3913C40.1337 18.1604 40.3591 18.9163 40.5978 19.6722C40.7172 20.0435 40.6243 20.2159 40.1469 20.1894Z" fill="#FC4336"/>
<path d="M7.81625 34.1397C7.86929 33.8347 7.90908 33.6093 7.94886 33.3308C6.90122 32.9595 5.86684 32.6014 4.84572 32.2566C4.77941 32.0179 4.85898 31.8853 5.01811 31.7129C6.05249 32.0577 7.08687 32.4025 8.09473 32.7473C8.35996 32.5881 8.29365 32.2699 8.55888 32.0444C12.2853 33.4103 16.0648 34.8028 19.884 36.1952C19.7382 36.6991 20.0432 36.8317 20.441 36.9644C21.2765 37.2296 22.1119 37.5346 22.9474 37.8131C22.9606 38.2772 22.8015 38.3833 22.3904 38.2374C21.5019 37.9192 20.6001 37.6274 19.6718 37.3092C19.5658 37.455 19.4729 37.6009 19.3536 37.7733C15.5211 36.5533 11.6753 35.3465 7.81625 34.1397Z" fill="#FC4336"/>
<path d="M59.2172 17.829C58.7398 17.6566 58.6071 17.9484 58.4745 18.3064C58.1695 19.1551 57.838 19.9906 57.533 20.8128C57.2943 20.8791 57.1351 20.8261 56.9893 20.6271C57.2943 19.8049 57.6258 18.9695 57.9308 18.1208C58.0369 17.8555 58.2623 17.5638 57.8512 17.3251C57.6921 17.219 57.7982 17.0466 57.8512 16.9007C59.1243 13.2406 60.4107 9.58049 61.697 5.92037C61.7236 5.86733 61.7633 5.81428 61.8164 5.73471C62.0418 5.80102 62.2673 5.86733 62.559 5.96015C62.9701 4.91251 63.3812 3.87813 63.7791 2.84375C64.283 2.84375 64.3095 3.05593 64.1636 3.42725C63.8056 4.32902 63.474 5.23078 63.1293 6.14581C63.3812 6.29169 63.5934 6.41104 63.8719 6.57017C62.3336 10.3099 60.782 14.0495 59.2172 17.829Z" fill="#FC4336"/>
<path d="M39.3115 4.28934C39.59 4.19651 39.7889 4.1302 40.0276 4.05063C40.1337 2.8969 39.4574 1.80947 39.7226 0.65574C39.7359 0.615956 39.9215 0.615956 40.0939 0.576172C40.2929 1.67686 40.4918 2.75102 40.6907 3.79867C40.9559 4.01085 41.2477 3.77214 41.5527 3.98433C41.7781 5.44307 42.0168 6.96812 42.2423 8.47991C42.5871 10.7476 42.9186 13.0153 43.2501 15.283C43.2899 15.5747 43.5153 15.9195 43.0114 16.1184C42.786 16.2112 42.9186 16.5163 42.9584 16.7284C43.1175 17.6169 43.2766 18.5054 43.4358 19.394C43.0379 19.6459 42.8523 19.5398 42.786 19.1155C42.6666 18.3596 42.5075 17.6037 42.3881 16.8345C42.3351 16.4499 42.2555 16.1449 41.7649 16.2378C40.9427 12.2196 40.1337 8.26772 39.3115 4.28934Z" fill="#FC4336"/>
<path d="M55.1058 16.6355C54.8008 16.4631 54.6549 16.2509 54.7477 15.853C55.5965 12.1664 56.4187 8.46649 57.2541 4.76659C57.2806 4.6605 57.3337 4.56767 57.3867 4.44832C57.6387 4.47484 57.8641 4.51463 58.1824 4.55441C58.4344 3.61286 58.6863 2.68457 58.9118 1.74302C59.0046 1.33192 59.1637 1.21257 59.5748 1.46453C59.3096 2.55196 59.0444 3.62612 58.7792 4.72681C59.0444 4.8329 59.2433 4.92573 59.429 5.0053C59.5483 5.21748 59.4555 5.40314 59.4024 5.58879C58.3813 9.14282 57.3735 12.7101 56.3656 16.2641C56.2728 16.6089 56.1932 16.9272 55.7025 16.7415C55.4108 17.8422 55.1456 18.9031 54.8671 19.9773C54.4692 19.9906 54.2836 19.9243 54.4029 19.4999C54.6416 18.5583 54.8671 17.6168 55.1058 16.6355Z" fill="#FC4336"/>
<path d="M30.5724 3.42773C31.01 4.44885 31.4476 5.45671 31.8985 6.50435C32.1638 6.42479 32.3892 6.35848 32.6014 6.27891C32.8401 6.385 32.8666 6.63697 32.9329 6.82263C34.2723 10.2043 35.6117 13.5991 36.9378 16.9808C37.0439 17.2725 37.2826 17.5643 36.8848 17.856C36.7256 17.9754 36.8848 18.1876 36.9511 18.3334C37.2694 19.0893 37.5744 19.8452 37.9059 20.5879C38.0518 20.9194 38.0385 21.1316 37.5478 21.1846C37.1235 20.2033 36.6859 19.1954 36.2482 18.1876C35.9697 18.2008 35.7178 18.2671 35.5586 17.8958C33.954 14.355 32.3229 10.8408 30.705 7.31329C30.6918 7.27351 30.6918 7.23373 30.6785 7.18068C30.7978 6.94198 31.1029 6.98176 31.315 6.67675C30.957 5.84129 30.5857 4.92626 30.2011 4.02449C30.0552 3.69296 30.0419 3.46752 30.5724 3.42773Z" fill="#FC4336"/>
<path d="M11.3038 25.7595C11.3833 25.5739 11.4762 25.375 11.6088 25.07C10.7866 24.5925 9.96437 24.1019 9.1289 23.6245C8.82389 23.4521 8.57193 23.2929 9.00955 22.8818C9.95111 23.4255 10.9192 23.9693 11.9005 24.5395C12.0729 24.3141 12.2055 24.1151 12.3912 23.8632C15.8391 25.9585 19.2738 28.0537 22.6554 30.1092C22.8676 30.3479 22.5493 30.5336 22.7483 30.7856C23.6102 31.2895 24.5385 31.82 25.4403 32.3504C25.4403 32.5891 25.3607 32.735 25.1486 32.8411C24.2468 32.3239 23.3318 31.7934 22.3769 31.2497C22.0454 31.6873 21.7139 31.5017 21.316 31.2895C18.1731 29.5655 15.0169 27.8548 11.8607 26.1309C11.6618 26.038 11.4496 25.9717 11.3038 25.7595Z" fill="#FC4336"/>
<path d="M25.6133 5.96044C25.7194 5.735 25.8652 5.69521 26.0774 5.62891C26.6344 6.58372 27.1914 7.55179 27.7616 8.53313C28.0268 8.41378 28.239 8.32095 28.4777 8.21486C28.8888 8.74531 29.1275 9.32881 29.4325 9.88578C30.9708 12.737 32.4959 15.6014 34.0209 18.4658C34.1668 18.7443 34.4718 19.0626 33.8883 19.2748C34.4453 20.2694 34.989 21.2242 35.5327 22.1923C35.2675 22.5238 35.0686 22.5768 34.8431 22.1657C34.4984 21.5292 34.1403 20.8927 33.7557 20.2694C33.5833 19.9909 33.5303 19.487 32.9733 19.7257C32.9335 19.7389 32.8009 19.6063 32.7479 19.5267C30.6924 16.1584 28.6369 12.7767 26.6079 9.4349C26.7007 9.0901 27.0588 9.10337 27.2179 8.79836C26.7007 7.87007 26.157 6.91525 25.6133 5.96044Z" fill="#FC4336"/>
<path d="M62.0813 19.235C61.6968 19.0361 61.5111 19.182 61.352 19.5135C60.9409 20.3622 60.49 21.1977 60.0656 21.9934C59.7871 22.0597 59.6943 21.9006 59.5352 21.7812C60.0391 20.7999 60.5298 19.8318 61.0469 18.8372C60.8082 18.6515 60.6491 18.4791 60.8348 18.1078C62.5322 14.6599 64.1899 11.2119 65.8608 7.75075C65.9006 7.67118 65.9669 7.60487 66.0199 7.52531C66.2586 7.61814 66.4708 7.71096 66.7626 7.83032C67.2798 6.84898 67.797 5.85438 68.3274 4.87305C68.8048 4.92609 68.8579 5.11175 68.6589 5.48307C68.1948 6.33179 67.7704 7.19377 67.3328 8.0425C67.4654 8.34751 67.8235 8.30772 67.9826 8.62599C66.0465 12.1137 64.0838 15.628 62.0813 19.235Z" fill="#FC4336"/>
<path d="M70.9661 27.0594C70.8733 26.8738 70.807 26.7279 70.7274 26.5688C73.8438 23.9828 76.947 21.4101 80.0369 18.8507C80.3419 18.917 80.3949 19.222 80.6999 19.3811C81.416 18.8109 82.1852 18.2274 82.9278 17.6174C83.2063 17.3919 83.445 17.2593 83.6439 17.7898C82.7952 18.4794 81.92 19.169 81.0315 19.8851C81.1906 20.1238 81.31 20.3227 81.4691 20.5879C78.2333 23.0147 75.0108 25.4283 71.7486 27.8816C71.417 27.5103 71.1385 27.6429 70.8203 27.9214C70.1439 28.4917 69.4411 29.0221 68.778 29.5393C68.5128 29.526 68.4863 29.3271 68.3271 29.168C69.2289 28.4519 70.0776 27.7755 70.9661 27.0594Z" fill="#FC4336"/>
<path d="M6.5293 27.7094C6.5956 27.484 6.60886 27.3248 6.82105 27.2188C7.78912 27.6564 8.78372 28.094 9.75179 28.5316C10.0435 28.399 10.017 28.0807 10.2425 27.9216C10.4679 27.8818 10.6403 28.041 10.826 28.1338C14.1015 29.7119 17.377 31.29 20.6658 32.8681C20.9841 33.0272 21.3687 33.1333 21.0504 33.6505C22.0848 34.1279 23.0794 34.5788 24.0475 35.0164C24.0873 35.2418 24.0077 35.3745 23.8486 35.5469C22.8672 35.1092 21.8726 34.6716 20.8382 34.2075C20.6658 34.5125 20.4802 34.6451 20.1089 34.4859C16.6079 32.9742 13.0936 31.4889 9.57939 29.9904C9.49983 29.9638 9.43352 29.9108 9.34069 29.8577C9.42026 29.6058 9.48657 29.3803 9.56613 29.1019C8.55827 28.6377 7.56368 28.1868 6.5293 27.7094Z" fill="#FC4336"/>
<path d="M73.6987 12.4192C73.9374 12.5783 74.1363 12.7242 74.3883 12.8966C75.1177 12.0479 75.8338 11.1992 76.5366 10.377C76.7753 10.4167 76.8682 10.5228 76.9743 10.735C76.2847 11.5705 75.5686 12.4325 74.8392 13.3077C75.0249 13.5066 75.184 13.6923 75.3962 13.931C72.7041 16.9546 70.0253 19.9781 67.3863 22.9487C67.1079 23.0548 67.0283 22.7497 66.7498 22.8824C66.1133 23.6382 65.4104 24.4605 64.7208 25.2694C64.4954 25.2296 64.3628 25.1368 64.2832 24.8981C64.9595 24.0891 65.6491 23.2669 66.3122 22.4845C66.3917 22.2193 66.1265 22.153 66.1133 21.9143C68.6196 18.7714 71.1526 15.6152 73.6987 12.4192Z" fill="#FC4336"/>
<path d="M69.9857 9.7657C70.2509 9.89831 70.4631 10.0177 70.7416 10.1503C71.3649 9.23524 71.9749 8.32022 72.5849 7.43171C72.8236 7.37866 72.9297 7.51128 73.0888 7.69693C72.4788 8.61196 71.8688 9.54025 71.2322 10.4818C71.4444 10.6675 71.6301 10.8266 71.7892 10.9725C71.776 11.2642 71.5903 11.4366 71.4444 11.6223C69.3757 14.5398 67.3069 17.444 65.2116 20.3482C65.0259 20.6134 64.9331 21.0908 64.3761 20.8389C64.2037 20.7593 64.1109 21.0378 64.0181 21.1704C63.5539 21.8467 63.1031 22.5231 62.6522 23.1994C62.44 23.5309 62.2411 23.5707 62.0156 23.2392C62.3869 22.112 63.607 21.3959 63.66 19.7117C65.636 16.6218 67.8108 13.2004 69.9857 9.7657Z" fill="#FC4336"/>
<path d="M82.8221 22.4706C82.9945 22.7093 83.1138 22.8817 83.2995 23.1337C84.1349 22.6033 84.9704 22.0861 85.7926 21.5424C86.1109 21.3302 86.3098 21.3434 86.4292 21.8208C85.5141 22.4043 84.5726 23.0011 83.6178 23.6244C83.7371 23.8631 83.8565 24.0753 84.0023 24.3803C80.5279 26.449 77.0534 28.5045 73.5524 30.5866C73.4066 30.4672 73.2872 30.3611 73.1546 30.2418C72.2263 30.8253 71.3113 31.3955 70.4228 31.9525C70.1973 31.8729 70.1178 31.727 70.1045 31.4883C70.993 30.9181 71.8948 30.3346 72.8363 29.7378C72.6507 29.3798 72.7568 29.1543 73.0883 28.9422C76.2312 26.8601 79.3476 24.7516 82.4773 22.6563C82.5834 22.59 82.6762 22.5502 82.8221 22.4706Z" fill="#FC4336"/>
<path d="M28.9416 27.616C28.809 27.7751 28.7162 27.8812 28.5836 28.0536C28.0929 27.616 27.642 27.1518 27.1248 26.807C26.674 26.502 26.4485 25.6268 25.5733 26.1174C22.5099 23.5447 19.42 20.9455 16.2904 18.3198C16.4495 18.0944 16.5821 17.8954 16.7678 17.6302C16.0384 16.9937 15.3223 16.3439 14.5929 15.7206C14.3144 15.4819 14.142 15.2697 14.6327 14.9912C15.4549 15.7073 16.2904 16.4367 17.1523 17.1793C17.3645 16.9804 17.5502 16.8345 17.7756 16.6224C18.3326 17.1395 18.8763 17.6435 19.42 18.1474C21.7142 20.2825 24.0084 22.4175 26.3026 24.5526C26.4883 24.725 26.8066 24.8576 26.5281 25.2422C26.3689 25.4544 26.6607 25.5737 26.7933 25.7063C27.4829 26.3296 28.1857 26.9396 28.9416 27.616Z" fill="#FC4336"/>
<path d="M22.8013 11.9683C23.0533 11.7429 23.2257 11.5838 23.4246 11.3981C22.7615 10.4831 22.1117 9.59457 21.4619 8.70607C21.6874 8.29497 21.8863 8.29497 22.1515 8.66628C22.7085 9.46196 23.292 10.2311 23.8489 11.0003C24.1805 11.0135 24.3131 10.6953 24.6446 10.6555C25.3607 11.6899 26.0768 12.7375 26.8062 13.7851C28.2915 15.9335 29.7635 18.0685 31.2488 20.2169C31.4344 20.4954 31.7262 20.7738 31.1824 21.0258C31.7792 21.848 32.3362 22.6172 32.8932 23.3731C33.1584 23.7444 33.1584 23.7576 32.7075 24.0759C32.0577 23.2007 31.4079 22.3122 30.7713 21.4634C30.5326 21.3706 30.4266 21.6491 30.1878 21.5297C27.7743 18.3735 25.2944 15.1908 22.8013 11.9683Z" fill="#FC4336"/>
<path d="M14.341 20.7461C14.5531 20.5206 14.7123 20.3482 14.9112 20.1361C18.147 22.5761 21.3694 25.003 24.5522 27.4033C24.645 27.642 24.4063 27.748 24.4461 27.9867C25.2948 28.5968 26.17 29.22 27.0188 29.8433C27.0851 30.0953 26.9392 30.2014 26.8066 30.3075C25.6926 29.9362 25.0428 28.6233 23.3454 28.5968C20.3218 26.5413 16.9932 24.2736 13.6779 22.0192C13.6514 21.7009 13.9166 21.5683 13.9829 21.2235C13.1342 20.6002 12.2324 19.9504 11.3174 19.2873C11.4102 18.8762 11.5693 18.7569 11.9407 19.0221C12.7098 19.5923 13.5055 20.1493 14.341 20.7461Z" fill="#FC4336"/>
<path d="M78.5918 17.1132C75.6213 19.8318 72.6773 22.5503 69.667 25.3087C69.2691 24.9109 69.0172 25.1893 68.7254 25.4811C68.1021 26.1044 67.4523 26.7011 66.8158 27.3111C66.3914 27.1255 66.3649 26.9398 66.6832 26.6348C67.2799 26.0778 67.8502 25.4943 68.4469 24.9374C68.6989 24.6987 68.9111 24.4865 68.3806 24.155C71.3644 21.3038 74.2819 18.5056 77.1994 15.7208C77.1463 15.6677 77.0933 15.6014 77.0402 15.5484C77.3055 15.5616 77.385 15.8799 77.7431 15.9727C78.4062 15.3362 79.109 14.6599 79.8119 13.957C80.0903 13.6785 80.276 13.6653 80.4484 13.9968C79.666 14.8057 78.8968 15.6014 78.1542 16.3838C78.2072 16.7154 78.499 16.7949 78.5918 17.1132Z" fill="#FC4336"/>
<path d="M19.3668 14.978C19.5657 14.7525 19.7116 14.5801 19.9238 14.3414C19.2607 13.6253 18.6242 12.9092 17.9611 12.2063C17.6959 11.9279 17.603 11.7024 18.0804 11.4902C18.8231 12.2992 19.579 13.1214 20.3614 13.9568C20.5868 13.7712 20.7725 13.6253 21.0112 13.4396C23.6767 16.503 26.329 19.5664 28.9945 22.6297C28.9017 22.8021 28.8088 22.948 28.7293 23.0939C29.4719 23.9161 30.2013 24.7117 30.9174 25.4942C30.8776 25.7196 30.7317 25.8124 30.5328 25.9185C29.7902 25.1228 29.0741 24.3272 28.3579 23.558C28.1192 23.4519 28.0397 23.7172 27.7877 23.7039C25.0161 20.8262 22.2047 17.922 19.3668 14.978Z" fill="#FC4336"/>
<path d="M41.6858 115.817C41.6858 118.218 41.6858 120.525 41.6858 122.872C40.9829 123.031 40.3331 122.925 39.6436 122.952C39.6436 116.746 39.6436 110.632 39.6436 104.532C39.8027 104.399 39.9751 104.426 40.121 104.426C42.6804 104.426 45.2398 104.413 47.7993 104.426C49.1652 104.439 50.4648 104.744 51.6583 105.447C53.4486 106.508 54.2045 108.152 54.1514 110.168C54.0984 112.131 53.1966 113.616 51.4594 114.584C50.7963 114.955 50.0802 115.167 49.1917 115.393C51.0748 117.913 52.9048 120.366 54.8277 122.939C53.9525 122.939 53.2099 122.939 52.4672 122.939C52.1357 122.939 52.0429 122.647 51.897 122.448C50.3587 120.392 48.8336 118.35 47.3218 116.281C47.0434 115.91 46.7516 115.738 46.2875 115.751C45.0144 115.777 43.728 115.764 42.4417 115.764C42.2162 115.777 42.0041 115.804 41.6858 115.817ZM41.7388 106.388C41.7388 108.935 41.7388 111.361 41.7388 113.855C43.0252 113.855 44.2585 113.868 45.4918 113.855C46.566 113.841 47.6534 113.934 48.7275 113.722C50.7433 113.324 52.0031 111.958 52.0296 110.088C52.0561 108.205 50.9157 106.879 48.7938 106.548C46.4731 106.19 44.1391 106.481 41.7388 106.388Z" fill="#FC4336"/>
<path d="M92.8351 106.216C92.3842 106.72 91.9333 107.224 91.4427 107.781C90.4348 107.078 89.4269 106.468 88.2334 106.242C87.0532 106.017 85.8597 105.99 84.6927 106.322C83.2339 106.733 82.5443 107.741 82.6637 109.16C82.73 109.969 83.1941 110.499 83.8174 110.924C84.7457 111.547 85.7801 111.918 86.8277 112.263C88.1406 112.714 89.4535 113.152 90.6868 113.815C92.424 114.743 93.3921 116.109 93.3258 118.125C93.2595 120.114 92.2516 121.48 90.5144 122.368C87.3184 123.986 82.1598 123.151 79.8125 120.631C80.3032 120.167 80.8071 119.716 81.3508 119.199C81.5232 119.212 81.6558 119.437 81.8415 119.57C83.7909 121.069 85.9525 121.652 88.3793 121.108C90.1431 120.724 91.0713 119.57 91.0183 117.965C90.9918 116.984 90.4481 116.321 89.6922 115.804C88.7108 115.141 87.6101 114.756 86.4962 114.372C85.1966 113.934 83.9102 113.483 82.7035 112.82C80.449 111.573 79.9716 109.544 80.5419 107.542C80.8999 106.269 81.7884 105.38 82.982 104.916C86.3901 103.59 89.6391 103.948 92.676 106.017C92.729 106.07 92.7688 106.136 92.8351 106.216Z" fill="#FC4336"/>
<path d="M20.5864 104.438C21.1964 104.438 21.7534 104.438 22.2971 104.438C22.3766 104.438 22.4562 104.465 22.5358 104.491C22.6817 104.77 22.6153 105.035 22.6153 105.287C22.6153 108.483 22.6286 111.692 22.6153 114.888C22.6153 115.869 22.6949 116.824 23.0132 117.752C23.7426 119.887 25.2809 121.001 27.4822 121.227C28.2912 121.306 29.1134 121.267 29.9223 121.068C31.9646 120.551 33.357 118.906 33.6487 116.652C33.7416 115.975 33.7814 115.286 33.7814 114.609C33.7814 111.493 33.7814 108.377 33.7814 105.274C33.7814 105.022 33.7283 104.743 33.8609 104.451C34.4975 104.398 35.1473 104.385 35.7706 104.465C35.9164 104.703 35.8634 104.929 35.8634 105.154C35.8634 108.35 35.8634 111.559 35.8634 114.755C35.8634 116.015 35.7308 117.275 35.3329 118.468C34.3781 121.306 32.0839 123.004 28.8747 123.19C26.5274 123.322 24.3393 122.858 22.6153 121.107C21.2096 119.675 20.5996 117.872 20.5598 115.936C20.4935 112.209 20.5333 108.469 20.5333 104.743C20.5333 104.677 20.5598 104.597 20.5864 104.438Z" fill="#FC4336"/>
<path d="M16.2509 118.695C16.6885 119.119 17.1129 119.557 17.5505 119.981C14.4341 123.867 8.00235 124.384 4.2494 121.082C0.151663 117.475 -0.113562 110.791 3.67917 106.892C7.35255 103.113 13.771 103.166 17.4709 107.091C17.02 107.569 16.5691 108.059 16.0652 108.603C14.1025 106.707 11.8481 105.738 9.12956 106.163C7.44538 106.428 6.0662 107.25 4.96551 108.537C2.49891 111.454 2.63153 116.228 5.19096 119.079C7.31276 121.48 12.2725 122.713 16.2509 118.695Z" fill="#FC4336"/>
<path d="M70.0647 104.505C70.1178 105.141 70.131 105.725 70.0382 106.401C68.0357 106.401 66.0333 106.401 63.9645 106.401C63.9645 111.958 63.9645 117.408 63.9645 122.898C63.2351 123.004 62.5853 122.978 61.856 122.912C61.856 117.421 61.856 111.958 61.856 106.415C59.7607 106.415 57.745 106.415 55.6895 106.415C55.6895 105.738 55.6895 105.155 55.6895 104.505C60.4503 104.505 65.2243 104.505 70.0647 104.505Z" fill="#FC4336"/>
<path d="M73.6982 104.478C74.3878 104.412 75.0376 104.412 75.7272 104.478C75.7272 110.632 75.7272 116.745 75.7272 122.912C75.0376 122.991 74.3878 122.991 73.6982 122.912C73.6982 116.758 73.6982 110.645 73.6982 104.478Z" fill="#FC4336"/>
<path d="M45.8367 77.6114C46.1682 77.7043 46.3671 77.8236 46.3539 78.2347C46.1152 82.0805 45.9162 85.9395 45.7041 89.7853C45.7041 89.8251 45.6775 89.8649 45.6643 89.9179C45.4653 90.1036 45.1869 89.9312 44.8818 90.1036C44.789 91.1512 44.6962 92.2652 44.5901 93.3658C44.1127 93.525 44.0066 93.3393 44.0464 92.9282C44.1392 91.9867 44.2055 91.0451 44.2718 90.1433C44.0464 89.8649 43.7149 90.024 43.4629 89.7853C43.6088 88.3531 43.7679 86.8943 43.9138 85.4223C44.1525 83.1016 44.4044 80.7809 44.6564 78.4601C44.6962 78.1154 44.5768 77.691 45.1471 77.6114C45.3593 77.5849 45.293 77.2799 45.3062 77.0942C45.3725 76.2986 45.4123 75.5161 45.4919 74.7205C45.5051 74.5215 45.4786 74.2431 45.8234 74.2563C46.1682 74.2696 46.1019 74.5348 46.0886 74.747C46.0091 75.6753 45.9295 76.5903 45.8367 77.6114Z" fill="#FC4336"/>
<path d="M78.3532 76.6695C78.1676 76.8949 78.0217 77.0673 77.8095 77.3458C78.5124 78.0354 79.202 78.7117 79.8915 79.3747C80.17 79.64 80.2629 79.8654 79.6528 80.1174C78.9632 79.335 78.2339 78.526 77.4912 77.6906C77.1862 77.916 77.0006 78.0619 76.7619 78.2475C73.9637 75.3168 71.1789 72.3993 68.4205 69.5216C68.3542 69.2697 68.6194 69.2034 68.5929 68.9779C67.837 68.2485 67.0678 67.4927 66.365 66.8031C66.3385 66.4317 66.5109 66.3389 66.7496 66.2461C67.4789 67.0152 68.2216 67.7977 68.9642 68.5801C69.2427 68.5933 69.3223 68.3414 69.561 68.3149C72.4652 71.0599 75.4092 73.8581 78.3532 76.6695Z" fill="#FC4336"/>
<path d="M18.0141 44.2056C14.0357 43.821 10.0441 43.4364 6.0922 43.0519C5.89328 42.7734 6.06568 42.5214 5.94632 42.2429C4.9252 41.9644 3.81125 42.0042 2.73709 41.7655C2.56469 41.2085 2.92275 41.2218 3.26754 41.2616C4.18257 41.3677 5.0976 41.487 5.98611 41.5931C6.23807 41.3809 6.17177 41.1157 6.30438 40.7842C10.2562 41.3809 14.2346 41.9777 18.2528 42.5745C18.2263 43.0651 18.5313 43.158 18.9291 43.1977C19.8044 43.2906 20.6796 43.3967 21.5151 43.5028C21.6742 43.7149 21.5947 43.8741 21.5018 44.073C20.8785 44.0067 20.2553 43.8741 19.6187 43.8741C19.1015 43.8873 18.4385 43.3304 18.0141 44.2056Z" fill="#FC4336"/>
<path d="M41.1814 89.4798C40.8499 89.4798 40.6112 89.4798 40.3327 89.4798C40.1338 90.4611 39.9349 91.4292 39.7625 92.3972C39.6829 92.8216 39.484 92.8349 39.1392 92.6359C39.3381 91.5618 39.537 90.4744 39.736 89.44C39.5238 89.188 39.2453 89.2808 38.9668 89.0952C39.1922 88.0608 39.4177 86.9866 39.6564 85.9257C40.2664 83.1939 40.8764 80.4621 41.4732 77.7303C41.5395 77.4518 41.513 77.16 41.9506 77.16C42.2158 77.16 42.1628 76.855 42.2025 76.6826C42.4015 75.7543 42.5739 74.8261 42.7595 73.911C43.1706 73.858 43.343 73.9508 43.2635 74.3619C43.0645 75.2902 42.9054 76.2185 42.7197 77.1998C43.1839 77.359 43.1574 77.7037 43.0911 78.1148C42.4147 81.8943 41.8047 85.6738 41.1814 89.4798Z" fill="#FC4336"/>
<path d="M19.2601 55.4115C19.459 55.8491 19.7641 55.8358 20.1619 55.69C20.9841 55.3849 21.8328 55.1197 22.6418 54.8545C22.8672 54.9738 22.8672 55.1595 22.907 55.3717C21.9919 55.6767 21.1034 55.995 20.2017 56.2734C19.8304 56.3795 19.6712 56.5387 19.8304 56.963C16.0111 58.3422 12.2184 59.7214 8.46543 61.0873C8.18694 60.9149 8.25325 60.6099 8.00128 60.3712C7.11277 60.6629 6.17122 60.9547 5.25619 61.2862C4.87162 61.4188 4.72574 61.3127 4.69922 60.8619C5.7336 60.5038 6.78124 60.1457 7.84215 59.7877C7.7891 59.4959 7.73606 59.2838 7.68301 58.9787C11.5288 57.7852 15.3746 56.605 19.2601 55.4115Z" fill="#FC4336"/>
<path d="M51.2603 74.2158C51.7642 73.9771 51.8571 74.2158 51.8968 74.5473C51.9897 75.29 52.0958 76.0326 52.1886 76.7752C52.2284 77.0803 52.1886 77.4118 52.6527 77.4383C52.8517 77.4516 52.8384 77.6637 52.8517 77.8096C53.4617 81.5758 54.085 85.342 54.695 89.1083C54.7215 89.2276 54.695 89.3602 54.695 89.5459C53.9789 89.5459 53.9391 89.9702 54.0319 90.514C54.1778 91.3627 54.2573 92.2114 54.3767 93.0601C53.9921 93.2458 53.8197 93.206 53.7667 92.7816C53.6473 91.8268 53.5015 90.872 53.3688 89.9437C53.1036 89.7581 52.8517 89.9305 52.613 89.8244C52.4538 89.7183 52.4936 89.5194 52.4671 89.3602C52.0825 85.7797 51.6847 82.2124 51.3134 78.6318C51.2736 78.234 51.0349 77.7698 51.6184 77.4914C51.7775 77.4118 51.6581 77.0802 51.6184 76.8548C51.499 75.9796 51.3797 75.1043 51.2603 74.2158Z" fill="#FC4336"/>
<path d="M54.8412 76.9616C54.5627 75.8211 54.2975 74.7735 54.0322 73.7258C54.4168 73.4208 54.5892 73.5402 54.682 73.9513C54.8677 74.7204 55.0534 75.4896 55.2523 76.2587C55.3186 76.4975 55.3186 76.8025 55.7164 76.7627C55.9419 76.7362 55.9684 76.9749 56.0082 77.134C57.0558 80.8737 58.1167 84.6001 59.1644 88.3398C59.1776 88.3796 59.1644 88.4193 59.1511 88.4724C58.992 88.7244 58.6339 88.5917 58.435 88.8968C58.6604 89.7853 58.8859 90.7268 59.1246 91.6551C59.2174 91.9866 59.2042 92.2253 58.687 92.2121C58.4085 91.1512 58.13 90.077 57.8515 89.0161C57.5597 88.9233 57.321 89.1752 56.9895 89.0294C56.5917 87.2656 56.1938 85.4621 55.7827 83.6718C55.3451 81.6959 54.9075 79.7067 54.4699 77.7308C54.4168 77.386 54.3107 77.0544 54.8412 76.9616Z" fill="#FC4336"/>
<path d="M6.70247 38.4636C6.71573 38.2382 6.74225 38.0127 6.76878 37.6944C5.8007 37.469 4.84589 37.2436 3.89108 37.0049C3.5065 36.912 3.5065 36.8988 3.66563 36.3816C4.72654 36.6203 5.8007 36.859 6.80856 37.0712C7.10031 36.8855 7.00748 36.5672 7.27271 36.3418C8.38665 36.6335 9.55365 36.9386 10.7206 37.2303C13.2801 37.8934 15.8395 38.5564 18.3989 39.2195C18.6642 39.2858 18.9692 39.2858 18.9692 39.7102C18.9692 40.0019 19.2874 39.9754 19.4864 40.0284C20.2423 40.2141 20.9849 40.3998 21.7408 40.5456C22.0988 40.6252 22.258 40.7578 22.0325 41.2087C21.1705 41.0098 20.3086 40.7976 19.4333 40.6119C19.1681 40.5589 18.8233 40.3467 18.6642 40.8241C18.5979 41.0098 18.3989 40.9302 18.2531 40.9037C14.4471 40.1213 10.6543 39.3389 6.84834 38.5564C6.7953 38.5432 6.76878 38.5034 6.70247 38.4636Z" fill="#FC4336"/>
<path d="M39.0201 76.3116C39.3119 75.3701 39.5903 74.4683 39.8821 73.5665C39.9484 73.3676 39.9749 73.0891 40.3065 73.1952C40.638 73.3013 40.5054 73.5268 40.4391 73.7389C40.1606 74.6274 39.8954 75.5027 39.6036 76.4442C40.0678 76.6432 39.9749 77.0012 39.8688 77.3991C38.8477 80.9531 37.8531 84.5204 36.832 88.0877C36.7922 88.207 36.7524 88.3396 36.7126 88.4457C36.4342 88.5916 36.1954 88.2999 35.8507 88.4855C35.5854 89.3342 35.2804 90.2493 35.0019 91.1643C34.8826 91.5489 34.7234 91.708 34.3389 91.3765C34.6571 90.3421 34.9754 89.2945 35.2804 88.2999C35.108 87.9948 34.7898 88.0744 34.6306 87.8755C34.5378 87.6368 34.6837 87.4511 34.75 87.2522C35.9302 83.791 37.137 80.3298 38.304 76.8686C38.4233 76.484 38.5825 76.2321 39.0201 76.3116Z" fill="#FC4336"/>
<path d="M5.8669 47.6C5.82712 47.348 5.8006 47.1093 5.74755 46.791C4.6336 46.791 3.54617 46.791 2.48527 46.791C2.25983 46.2606 2.48527 46.1677 2.86985 46.1677C3.8114 46.181 4.76621 46.1677 5.66798 46.1677C5.90669 45.9423 5.76081 45.6505 5.90669 45.4251C6.13213 45.2925 6.39735 45.3588 6.66258 45.372C10.2166 45.5047 13.7574 45.6373 17.2981 45.7964C17.5899 45.8097 17.9745 45.677 18.0806 46.181C18.1336 46.4064 18.4121 46.3269 18.611 46.3269C19.4067 46.3534 20.2024 46.3799 20.998 46.3799C21.3561 46.3799 21.5418 46.4727 21.3959 46.9104C20.3085 46.9104 19.2343 46.9104 18.1203 46.9104C18.054 47.2684 17.9214 47.4408 17.5236 47.4541C13.7706 47.5071 10.0309 47.5867 6.278 47.653C6.13213 47.653 5.99951 47.6132 5.8669 47.6Z" fill="#FC4336"/>
<path d="M34.1006 74.3747C32.1644 77.889 30.215 81.4298 28.2921 84.9175C27.9606 84.9838 27.8015 84.7185 27.4434 84.7053C26.8997 85.6203 26.3295 86.5751 25.7725 87.5167C25.547 87.5299 25.4012 87.4504 25.2686 87.2382C25.8123 86.3099 26.356 85.3684 26.8997 84.4401C26.7936 84.1085 26.4355 84.1218 26.3029 83.7903C28.4247 80.4086 30.5598 76.9872 32.6683 73.6189C32.8938 73.4465 33.0264 73.6984 33.2518 73.6321C33.7956 72.7171 34.3525 71.7755 34.9095 70.834C35.3869 70.9136 35.4267 71.1125 35.2145 71.4705C34.8167 72.1336 34.4321 72.7967 34.0343 73.4597C33.769 73.9239 33.769 73.9239 34.1006 74.3747Z" fill="#FC4336"/>
<path d="M63.5665 86.9999C63.288 87.1458 63.0758 87.2519 62.8106 87.3845C63.2084 88.4454 63.593 89.4798 63.9643 90.4877C63.8449 90.6998 63.6726 90.6866 63.4736 90.7927C63.0625 89.7185 62.6647 88.6841 62.2536 87.61C61.9884 87.6895 61.7629 87.7558 61.5375 87.8089C61.2988 87.6497 61.2855 87.3845 61.2059 87.1591C60.0124 83.7244 58.8322 80.2765 57.6254 76.8418C57.506 76.4837 57.4132 76.1655 57.8641 75.9931C57.4663 74.9454 57.0949 73.9376 56.7236 72.943C56.8165 72.7175 56.9889 72.7043 57.2276 72.6777C57.6121 73.6856 58.01 74.72 58.4211 75.7809C58.6996 75.7146 58.9383 75.6881 59.0841 76.0461C60.5561 79.6797 62.0547 83.3133 63.5665 86.9999Z" fill="#FC4336"/>
<path d="M11.4765 74.2961C11.2643 74.19 11.1582 74.0706 11.1582 73.8319C12.0334 73.2086 12.922 72.5588 13.8237 71.909C13.6911 71.6571 13.585 71.4449 13.4524 71.1664C16.7943 68.8987 20.1361 66.6443 23.4382 64.4164C23.7034 64.3766 23.7299 64.6551 23.9951 64.6684C24.8306 64.0849 25.7058 63.4616 26.5678 62.8516C26.8065 62.9179 26.8728 63.0637 26.9259 63.3024C26.0639 63.9125 25.1887 64.549 24.3532 65.1458C24.1808 65.3845 24.4858 65.5303 24.4062 65.769C21.197 68.1693 17.9745 70.5962 14.7255 73.023C14.5266 72.8108 14.3674 72.6384 14.1685 72.413C13.2402 73.0495 12.3517 73.686 11.4765 74.2961Z" fill="#FC4336"/>
<path d="M32.2839 86.9609C32.085 86.9079 31.8728 86.8416 31.5678 86.7487C31.1037 87.7566 30.6395 88.7644 30.1754 89.7988C29.7643 89.759 29.6051 89.6264 29.8041 89.2153C30.2152 88.3401 30.5997 87.4516 30.9711 86.5763C30.8384 86.2713 30.4804 86.3376 30.2815 86.0326C30.6263 85.3165 30.9843 84.5739 31.3424 83.818C32.6552 81.0729 33.9681 78.3278 35.281 75.5827C35.3871 75.344 35.4136 75.0125 35.8645 75.1186C36.143 75.1849 36.1695 74.8533 36.2491 74.6677C36.6336 73.8322 37.005 72.9835 37.3763 72.1348C37.7874 72.1613 37.9465 72.2939 37.7609 72.6785C37.4956 73.2355 37.2437 73.8057 37.0182 74.3759C36.8591 74.8003 36.3552 75.2114 36.8989 75.7153C36.9386 75.7551 36.8723 75.9275 36.8326 76.0203C35.3473 79.6274 33.862 83.2345 32.3768 86.8416C32.4033 86.8813 32.3768 86.8946 32.2839 86.9609Z" fill="#FC4336"/>
<path d="M7.07407 56.7514C6.98124 56.4596 6.90167 56.2342 6.80884 55.969C5.70815 56.2077 4.62073 56.4331 3.55982 56.6586C3.40069 56.4862 3.40069 56.3403 3.42721 56.1149C4.47485 55.8762 5.53576 55.6242 6.55688 55.3855C6.70275 55.0937 6.53035 54.855 6.59666 54.5368C10.4955 53.7809 14.4208 53.0117 18.3992 52.2293C18.6247 52.7465 19.0225 52.6537 19.4734 52.5343C20.1762 52.3486 20.8923 52.2293 21.5952 52.0569C21.9798 51.9641 22.0726 52.1232 22.0461 52.5343C20.9984 52.773 19.9375 53.025 18.8236 53.2769C18.8368 53.5554 18.8501 53.8207 18.4788 53.9135C14.7126 54.855 10.9331 55.7966 7.07407 56.7514Z" fill="#FC4336"/>
<path d="M12.1788 69.2035C12.0329 69.0045 11.9135 68.8321 11.7411 68.5934C10.7731 69.1371 9.81826 69.6809 8.88997 70.2113C8.67779 70.1185 8.61148 69.9726 8.58496 69.7206C9.51325 69.1902 10.4681 68.6332 11.3698 68.116C11.4627 67.7845 11.2107 67.6254 11.1709 67.2806C14.6719 65.3842 18.2127 63.4746 21.6871 61.5914C22.0187 61.5119 21.9921 61.8965 22.2971 61.8567C23.1591 61.366 24.1007 60.8356 25.0024 60.3184C25.2412 60.4112 25.2809 60.5703 25.3207 60.7958C24.4985 61.2599 23.6763 61.7373 22.8674 62.2147C22.6685 62.3341 22.39 62.4136 22.5491 62.7584C22.6685 62.9971 22.4695 63.0635 22.3237 63.1563C19.0083 65.1587 15.6798 67.1745 12.3644 69.1769C12.3379 69.1769 12.2849 69.1769 12.1788 69.2035Z" fill="#FC4336"/>
<path d="M20.6665 58.9786C21.7671 58.488 22.7485 58.0503 23.7298 57.626C24.0481 57.9442 24.0216 58.1299 23.6503 58.3023C22.7617 58.6869 21.8865 59.098 20.9582 59.5223C21.1571 59.9202 20.9847 60.1058 20.6267 60.2782C17.2185 61.8961 13.8236 63.5272 10.4155 65.1584C10.3226 65.1982 10.2166 65.2379 10.0972 65.2777C9.96459 65.0523 9.84524 64.8401 9.69937 64.5881C8.81086 64.986 7.92235 65.3706 7.04711 65.7817C6.68905 65.9408 6.45035 65.9541 6.42383 65.4236C7.40516 64.9727 8.39976 64.5218 9.35457 64.0842C9.47393 63.7659 9.2087 63.5803 9.24848 63.2355C9.72589 63.0366 10.2431 62.8111 10.7735 62.5857C13.8236 61.2994 16.8737 60.0263 19.9238 58.7399C20.2554 58.5808 20.5604 58.4084 20.6665 58.9786Z" fill="#FC4336"/>
<path d="M5.93301 50.8362C5.94627 50.5312 5.95953 50.3057 5.9728 50.0537C6.84804 49.8018 7.74981 49.8416 8.63832 49.762C11.5558 49.4968 14.4865 49.2846 17.404 49.0591C17.6825 49.0326 18.0141 48.8868 18.1732 49.3376C18.2528 49.5631 18.5312 49.457 18.7169 49.4305C19.4861 49.3509 20.2552 49.2581 21.0244 49.1918C21.2365 49.1785 21.5548 49.0591 21.5681 49.457C21.5813 49.8018 21.2896 49.7487 21.0907 49.7753C20.4409 49.8548 19.7778 49.9079 19.1147 49.9874C18.8495 50.014 18.4119 50.0272 18.3721 50.1466C18.1069 50.9555 17.404 50.6903 16.8868 50.7699C13.5317 51.2605 10.1634 51.7247 6.80826 52.1888C6.60934 52.2153 6.41042 52.2684 6.22476 52.1756C6.05236 51.9899 6.13193 51.7114 5.98606 51.4329C5.00472 51.539 4.03665 51.6318 3.05531 51.7512C2.63095 51.8042 2.55138 51.6318 2.63095 51.2207C3.71837 51.1014 4.8058 50.9688 5.93301 50.8362Z" fill="#FC4336"/>
<path d="M81.2567 73.2618C81.0976 73.5005 80.9783 73.6862 80.8059 73.9514C81.6546 74.6543 82.5033 75.3571 83.3785 76.0865C83.2194 76.4843 83.0603 76.6037 82.7022 76.2987C81.9728 75.6754 81.217 75.0654 80.5008 74.4819C80.1561 74.5349 80.1163 74.8532 79.7847 74.9593C76.7744 72.3601 73.7243 69.7211 70.6345 67.0423C71.0058 66.6047 70.6875 66.3792 70.3692 66.1273C69.6796 65.5703 69.0166 65.0133 68.3535 64.4563C68.3668 64.2044 68.4861 64.0983 68.6983 63.9922C69.5205 64.6685 70.356 65.3448 71.218 66.0477C71.4832 65.862 71.7086 65.7294 72.0534 66.0079C75.0107 68.3684 78.0077 70.7157 80.9783 73.0629C81.0711 73.1027 81.1374 73.1557 81.2567 73.2618Z" fill="#FC4336"/>
<path d="M30.1087 71.644C30.2811 71.7236 30.4137 71.7766 30.5994 71.8562C31.2624 70.9677 31.9255 70.0925 32.5753 69.2305C32.814 69.2703 32.9466 69.3631 33.0262 69.5885C32.4029 70.424 31.7796 71.2727 31.1961 72.0551C31.0502 72.3734 31.4216 72.4264 31.3553 72.7049C29.061 75.9539 26.7271 79.256 24.3798 82.5846C24.1278 82.4387 23.9289 82.3194 23.6504 82.147C22.9741 83.0487 22.3111 83.9373 21.6347 84.8258C21.1706 84.6931 21.1441 84.4942 21.4093 84.1627C22.006 83.3935 22.563 82.6111 23.2128 81.7491C22.9609 81.59 22.7487 81.4707 22.4834 81.3115C25.0694 78.0227 27.5625 74.8533 30.1087 71.644Z" fill="#FC4336"/>
<path d="M71.5365 82.6238C71.3244 82.7962 71.1652 82.942 70.9265 83.1277C71.457 83.9366 71.9874 84.7456 72.5179 85.5413C72.73 85.8463 72.8229 86.085 72.2924 86.2308C71.6824 85.3291 71.0591 84.4008 70.4226 83.4592C70.1706 83.5786 69.9584 83.6847 69.6667 83.8306C67.5316 80.3959 65.3833 76.9612 63.235 73.5C63.3543 73.3541 63.4604 73.2348 63.5797 73.0756C62.983 72.1606 62.3862 71.2721 61.8027 70.3836C61.8425 70.1449 62.0282 70.0919 62.2404 69.999C62.8371 70.9008 63.4471 71.8158 64.0704 72.7574C64.3754 72.6248 64.6141 72.5982 64.8396 72.943C67.0012 76.086 69.2025 79.2024 71.3907 82.332C71.4437 82.4249 71.4702 82.5044 71.5365 82.6238Z" fill="#FC4336"/>
<path d="M67.7041 85.0237C67.4521 85.1829 67.2532 85.3155 66.988 85.4746C67.4388 86.3631 67.8765 87.2516 68.3406 88.1136C68.5263 88.4584 68.4865 88.6441 68.0091 88.7104C67.5051 87.7423 66.988 86.761 66.4575 85.7399C66.2055 85.8327 65.9801 85.9255 65.7679 86.0051C65.516 85.8592 65.4629 85.6072 65.3701 85.3951C63.792 82.1195 62.2272 78.8307 60.6491 75.5552C60.4767 75.2104 60.3441 74.9186 60.8082 74.6932C60.3441 73.7914 59.9197 72.9294 59.4555 72.0675C59.2566 71.6961 59.376 71.5503 59.8136 71.4707C60.0921 72.0144 60.3308 72.6244 60.6888 73.1284C61.0071 73.566 60.8745 74.481 61.8691 74.3351C63.792 77.9024 65.7414 81.4565 67.7041 85.0237Z" fill="#FC4336"/>
<path d="M48.436 77.743C48.436 76.576 48.436 75.5151 48.436 74.4277C48.8073 74.2685 48.993 74.3746 48.993 74.799C48.993 75.5549 49.0062 76.2975 49.0328 77.0534C49.046 77.3584 48.9797 77.6767 49.4173 77.7695C49.6958 77.8358 49.6163 78.1408 49.6163 78.3397C49.7754 81.244 49.9213 84.1615 50.0671 87.0657C50.1202 88.0337 50.2528 88.9886 50.1865 89.9832C49.9345 90.0362 49.7223 90.0893 49.4571 90.1423C49.298 91.243 49.55 92.3569 49.4704 93.4576C49.0725 93.6433 48.8869 93.5505 48.8869 93.1394C48.8869 92.3835 48.8736 91.6408 48.8471 90.8849C48.8471 90.6462 48.8736 90.3943 48.7145 90.1556C48.5156 90.129 48.2901 90.1025 48.0912 90.0893C47.9055 89.8903 47.9718 89.6649 47.9718 89.4527C47.9586 85.7926 47.9586 82.1192 47.9453 78.4591C47.9586 78.0878 47.9586 77.7562 48.436 77.743Z" fill="#FC4336"/>
<path d="M75.1705 79.8523C74.9186 80.0247 74.7462 80.1573 74.4942 80.3297C75.2368 81.2447 75.9397 82.1199 76.6293 82.9554C76.563 83.1941 76.4171 83.2737 76.2049 83.34C75.5153 82.5045 74.8125 81.6691 74.1361 80.8469C73.8046 80.8469 73.6853 81.1253 73.3537 81.1916C70.8871 78.0355 68.394 74.8395 65.8876 71.6302C66.007 71.4711 66.0998 71.3518 66.2059 71.1926C65.503 70.3306 64.8267 69.4952 64.1504 68.6862C64.1504 68.421 64.3493 68.3945 64.5217 68.2354C65.2246 69.0841 65.9141 69.9063 66.5772 70.7152C66.8159 70.8478 66.9087 70.5959 67.1474 70.5826C69.7864 73.6194 72.4254 76.6828 75.1705 79.8523Z" fill="#FC4336"/>
<path d="M28.7691 65.61C27.9469 66.3394 27.1512 67.0422 26.329 67.7583C26.4617 68.0501 26.5545 68.2888 26.223 68.5938C23.3983 71.1532 20.6002 73.7524 17.7888 76.3384C17.7357 76.3782 17.6827 76.418 17.6164 76.4445C17.3246 76.418 17.2451 76.0732 16.94 75.9803C16.1311 76.6832 15.3089 77.3993 14.5 78.1021C14.248 78.0889 14.1817 77.9297 14.0889 77.7176C14.9111 76.9882 15.7465 76.2456 16.5953 75.4897C16.4361 75.251 16.3035 75.052 16.1444 74.8001C19.2475 72.2141 22.3507 69.6282 25.414 67.082C25.6792 67.0024 25.719 67.2809 25.9179 67.2942C25.971 67.2677 26.024 67.2411 26.0771 67.2014C26.7667 66.6046 27.4563 66.0211 28.1193 65.4111C28.3978 65.1459 28.5835 65.2122 28.7691 65.61Z" fill="#FC4336"/>
<path d="M72.7703 64.4557C72.6377 64.217 72.9161 64.0977 72.7968 63.8324C71.9481 63.2622 71.0463 62.6389 70.1445 62.0422C70.2639 61.6178 70.4363 61.525 70.7678 61.7637C71.4309 62.2278 72.1205 62.6787 72.7968 63.1296C73.1814 63.3815 73.1814 63.3815 73.6057 63.05C77.0006 65.1983 80.3955 67.3467 83.7904 69.495C83.8169 69.8 83.565 69.9591 83.4854 70.2907C84.3606 70.8874 85.2889 71.524 86.1774 72.134C86.2172 72.3727 86.0979 72.4921 85.8989 72.6247C85.0104 72.0279 84.0954 71.4179 83.1936 70.8211C82.8754 70.914 82.8621 71.2588 82.5438 71.3914C79.2948 69.0839 76.0193 66.7632 72.7703 64.4557Z" fill="#FC4336"/>
<path d="M27.6816 69.4552C27.8673 69.5613 27.9999 69.6276 28.1458 69.7205C28.9017 68.9115 29.6311 68.1291 30.3604 67.3467C30.5991 67.3732 30.7052 67.4926 30.7848 67.718C30.188 68.3678 29.578 69.0309 28.9547 69.6807C28.6762 69.9592 28.4906 70.2111 28.8752 70.5427C26.1831 73.606 23.5043 76.6296 20.8123 79.6797C20.5736 79.5206 20.3747 79.3747 20.1227 79.2023C19.3668 80.0112 18.5977 80.8202 17.8418 81.6291C17.6031 81.5761 17.4837 81.47 17.4307 81.2313C18.16 80.4356 18.9159 79.6267 19.6851 78.7912C19.5127 78.579 19.3536 78.3801 19.1679 78.1281C22.0058 75.2504 24.8305 72.3727 27.6816 69.4552Z" fill="#FC4336"/>
<path d="M66.4043 134.9C66.4043 132.884 66.4043 130.948 66.4043 129.012C67.0939 128.813 67.5978 128.932 67.9426 129.609C68.3007 130.298 68.7781 130.935 69.2687 131.704C69.7594 130.948 70.2236 130.325 70.5949 129.635C70.9529 128.959 71.4303 128.8 72.1465 129.025C72.1465 130.948 72.1465 132.871 72.1465 134.807C71.8414 134.966 71.5364 134.9 71.1651 134.847C71.1651 133.547 71.1651 132.234 71.1651 130.921C71.1121 130.908 71.059 130.882 71.006 130.868C70.449 131.691 69.892 132.526 69.2687 133.454C68.672 132.566 68.115 131.744 67.4519 130.749C67.4519 132.221 67.4519 133.507 67.4519 134.754C67.0939 134.993 66.7756 134.86 66.4043 134.9Z" fill="#FC4336"/>
<path d="M6.51624 134.833C6.10514 134.9 5.82665 134.926 5.49512 134.82C5.49512 132.897 5.49512 130.974 5.49512 129.012C6.05209 128.852 6.47645 128.919 6.84777 129.449C7.65671 130.576 8.53195 131.651 9.52655 132.725C9.52655 131.491 9.52655 130.258 9.52655 129.038C9.92439 128.879 10.2161 128.945 10.5609 128.959C10.5609 130.934 10.5609 132.857 10.5609 134.807C10.057 134.992 9.69895 134.873 9.36742 134.422C8.47891 133.215 7.55062 132.048 6.51624 130.696C6.51624 132.208 6.51624 133.507 6.51624 134.833Z" fill="#FC4336"/>
<path d="M56.9627 131.889C56.9759 133.627 55.61 134.993 53.8728 135.006C52.1223 135.019 50.7564 133.653 50.7696 131.916C50.7696 130.205 52.1223 128.866 53.833 128.839C55.5835 128.813 56.9494 130.139 56.9627 131.889ZM53.8993 129.834C52.7456 129.807 51.9234 130.63 51.8836 131.823C51.8438 133.043 52.6527 133.971 53.7799 133.998C54.9337 134.024 55.8089 133.176 55.8487 131.969C55.8885 130.789 55.0398 129.86 53.8993 129.834Z" fill="#FC4336"/>
<path d="M46.6989 131.386C46.8182 131.757 46.7917 132.022 46.7387 132.34C45.7971 132.34 44.8821 132.34 43.9538 132.34C43.7681 132.897 43.861 133.388 43.8742 133.945C45.0014 133.945 46.0756 133.945 47.1232 133.945C47.2956 134.29 47.2956 134.555 47.1498 134.86C45.7308 134.86 44.3118 134.86 42.8398 134.86C42.8398 132.897 42.8398 130.975 42.8398 128.985C44.2721 128.985 45.691 128.985 47.0967 128.985C47.2161 129.264 47.1896 129.516 47.11 129.834C46.0756 129.834 45.0147 129.834 43.9538 129.834C43.7947 130.365 43.8344 130.829 43.914 131.372C44.8423 131.386 45.7573 131.386 46.6989 131.386Z" fill="#FC4336"/>
<path d="M77.6243 128.998C78.0221 128.945 78.3006 128.918 78.6719 129.038C78.6189 130.443 78.8443 131.876 78.5393 133.281C78.3006 134.422 77.3856 134.979 76.0329 134.966C74.7598 134.939 73.8978 134.356 73.7122 133.228C73.4734 131.836 73.6193 130.43 73.6193 129.038C73.9906 128.918 74.2957 128.958 74.6935 129.011C74.6935 130.191 74.667 131.358 74.7068 132.525C74.7465 133.6 75.4361 134.157 76.4573 133.997C77.1866 133.891 77.6243 133.334 77.6508 132.406C77.6773 131.518 77.6508 130.642 77.664 129.754C77.6243 129.502 77.6243 129.263 77.6243 128.998Z" fill="#FC4336"/>
<path d="M30.8775 128.999C31.2488 128.932 31.5273 128.919 31.9119 129.025C31.9119 129.728 31.9119 130.444 31.9119 131.16C31.9119 131.624 31.8986 132.088 31.9252 132.553C31.9782 133.468 32.5219 133.998 33.3839 133.998C34.2724 133.998 34.8029 133.494 34.8294 132.553C34.8559 131.624 34.8426 130.696 34.8426 129.768C34.8426 129.529 34.8426 129.29 34.8426 129.065C35.1874 128.879 35.4924 128.945 35.9035 128.985C35.8372 130.431 36.0759 131.876 35.7577 133.308C35.4924 134.475 34.4713 135.072 33.1717 134.979C31.8456 134.873 30.9703 134.157 30.8908 132.924C30.8245 131.638 30.8775 130.338 30.8775 128.999Z" fill="#FC4336"/>
<path d="M11.7021 134.065C11.8878 133.746 12.1 133.534 12.3785 133.335C12.9089 133.72 13.4526 134.104 14.1688 133.998C14.5533 133.945 14.9246 133.866 15.0175 133.402C15.1103 132.937 14.8053 132.712 14.434 132.553C13.93 132.341 13.3996 132.168 12.9089 131.93C12.1398 131.558 11.848 131.041 11.9276 130.298C11.9939 129.622 12.4713 129.131 13.267 128.933C14.2218 128.681 15.1633 128.906 15.9855 129.569C15.7999 129.967 15.7999 129.967 15.3888 130.351C14.8716 130.02 14.3411 129.741 13.6781 129.848C13.3466 129.901 13.0681 129.993 13.0018 130.365C12.9354 130.71 13.1742 130.895 13.4526 131.015C13.93 131.227 14.434 131.386 14.9246 131.598C15.8264 131.996 16.2243 132.593 16.1314 133.362C16.0253 134.184 15.4418 134.754 14.4738 134.913C13.3996 135.112 12.4846 134.807 11.7021 134.065Z" fill="#FC4336"/>
<path d="M84.0294 129.622C83.7774 129.914 83.5918 130.126 83.3663 130.378C82.8226 130.046 82.2922 129.741 81.6424 129.861C81.3241 129.914 81.0191 129.98 80.9528 130.351C80.8865 130.723 81.1384 130.922 81.4302 131.054C81.8545 131.24 82.2922 131.386 82.7165 131.558C83.7376 131.982 84.1753 132.592 84.0559 133.428C83.9366 134.29 83.3 134.834 82.2524 134.966C81.3108 135.099 80.356 134.754 79.6797 134.038C79.8256 133.733 80.0643 133.521 80.356 133.335C80.8865 133.759 81.4434 134.104 82.1595 133.998C82.5574 133.945 82.9022 133.826 82.9817 133.375C83.048 132.937 82.7563 132.725 82.4248 132.579C81.9208 132.367 81.3904 132.195 80.8997 131.956C80.104 131.585 79.8123 131.054 79.9051 130.272C79.9847 129.609 80.4754 129.131 81.271 128.946C82.2524 128.707 83.1541 128.932 84.0294 129.622Z" fill="#FC4336"/>
<path d="M93.0866 129.795C92.9408 130.06 92.7418 130.285 92.5031 130.471C90.9648 129.609 90.0233 129.649 89.3204 130.564C88.7104 131.36 88.7634 132.633 89.4265 133.389C90.1824 134.224 91.177 134.198 92.5164 133.322C92.7683 133.455 92.954 133.667 93.1131 133.893C92.5031 134.821 91.23 135.219 89.9304 134.874C88.7502 134.569 87.8882 133.455 87.7954 132.142C87.6893 130.789 88.4186 129.569 89.6387 129.079C90.8587 128.562 92.2777 128.867 93.0866 129.795Z" fill="#FC4336"/>
<path d="M58.2227 128.973C59.6947 128.973 61.1004 128.973 62.5061 128.973C62.6785 129.264 62.5989 129.53 62.5724 129.888C61.4584 129.888 60.3975 129.888 59.3101 129.888C59.1775 130.431 59.2173 130.909 59.2703 131.479C60.2384 131.479 61.1932 131.479 62.1215 131.479C62.2806 131.85 62.2674 132.116 62.1613 132.474C61.233 132.474 60.3047 132.474 59.257 132.474C59.257 133.296 59.257 134.065 59.257 134.794C58.8725 134.953 58.5675 134.927 58.2227 134.834C58.2227 132.898 58.2227 130.975 58.2227 128.973Z" fill="#FC4336"/>
<path d="M27.9737 134.861C27.6024 134.861 27.3239 134.861 26.9261 134.861C26.9261 133.243 26.9261 131.625 26.9261 130.034C26.263 129.808 25.6795 130.034 25.1225 129.848C25.0164 129.569 25.0297 129.291 25.1225 128.973C26.6741 128.973 28.2257 128.973 29.7905 128.973C29.9099 129.278 29.8966 129.556 29.817 129.821C29.5916 129.967 29.3396 129.901 29.1009 129.914C27.8544 129.927 27.987 129.795 27.987 131.068C27.9737 132.315 27.9737 133.548 27.9737 134.861Z" fill="#FC4336"/>
<path d="M39.8686 134.793C39.484 134.926 39.179 134.926 38.8209 134.82C38.8209 133.228 38.8209 131.624 38.8209 130.032C38.1844 129.78 37.5744 130.006 37.0041 129.86C36.8583 129.582 36.8848 129.316 36.9776 128.998C38.5292 128.998 40.0808 128.998 41.6456 128.998C41.7782 129.29 41.7517 129.555 41.6456 129.913C41.0886 129.913 40.5316 129.913 39.8818 129.913C39.8686 131.584 39.8686 133.202 39.8686 134.793Z" fill="#FC4336"/>
<path d="M21.7007 128.998C21.7007 129.303 21.7007 129.542 21.7007 129.807C21.1305 130.046 20.5072 129.794 19.8839 129.993C19.8839 131.584 19.8839 133.189 19.8839 134.767C19.5126 134.992 19.1943 134.873 18.8097 134.886C18.8097 133.228 18.8097 131.624 18.8097 130.032C18.1997 129.794 17.603 130.006 17.046 129.86C16.8603 129.608 16.9399 129.33 16.9929 128.998C18.5445 128.998 20.0961 128.998 21.7007 128.998Z" fill="#FC4336"/>
<path d="M3.86415 134.873C3.49283 134.873 3.21435 134.873 2.88281 134.873C2.88281 132.91 2.88281 130.987 2.88281 129.025C3.20108 128.879 3.51936 128.972 3.86415 128.958C3.86415 130.948 3.86415 132.884 3.86415 134.873Z" fill="#FC4336"/>
<path d="M22.8945 128.999C23.2393 128.92 23.5178 128.92 23.8626 128.999C23.8626 130.935 23.8626 132.885 23.8626 134.834C23.5311 134.94 23.2393 134.927 22.8945 134.847C22.8945 132.911 22.8945 130.975 22.8945 128.999Z" fill="#FC4336"/>
<path d="M85.4746 128.973C85.8194 128.973 86.0979 128.973 86.4294 128.973C86.4294 130.922 86.4294 132.845 86.4294 134.808C86.1377 134.967 85.8194 134.9 85.4746 134.847C85.4746 132.898 85.4746 130.975 85.4746 128.973Z" fill="#FC4336"/>
</svg>
