<svg width="219" height="48" viewBox="0 0 219 48" fill="none" xmlns="http://www.w3.org/2000/svg">
<g clip-path="url(#clip0)">
<path d="M0 13.1523H7.10103V15.0845H2.50423V17.9659H6.14051V19.8303H2.50423V24.0676H0V13.1523Z" fill="#FC4336"/>
<path d="M8.88477 13.1523H16.123V15.0845H11.389V17.6269H15.1625V19.4235H11.389V22.1354H16.3632V24.0676H8.88477V13.1523Z" fill="#FC4336"/>
<path d="M18.0781 13.1523H21.7144C25.5908 13.1523 27.5462 15.254 27.5462 18.5083V18.6439C27.5462 21.932 25.5908 24.1015 21.7144 24.1015H18.0781V13.1523ZM21.6115 22.2032C23.8413 22.2032 24.9047 20.949 24.9047 18.6778V18.5422C24.9047 16.3049 23.9442 15.0845 21.5772 15.0845H20.5824V22.1693H21.6115V22.2032Z" fill="#FC4336"/>
<path d="M29.2617 13.1523H36.5V15.0845H31.7659V17.6269H35.5394V19.4235H31.7659V22.1354H36.7401V24.0676H29.2617V13.1523Z" fill="#FC4336"/>
<path d="M38.4893 13.1523H42.4686C45.0757 13.1523 46.7566 14.2032 46.7566 16.4744V16.5422C46.7566 18.2032 45.7618 19.0846 44.4925 19.4574L47.4084 24.1015H44.7327L42.0912 19.8642H40.9935V24.1015H38.4893V13.1523ZM42.4 18.2032C43.6692 18.2032 44.2867 17.6947 44.2867 16.61V16.5422C44.2867 15.4235 43.6006 15.0507 42.4 15.0507H40.9935V18.2032H42.4Z" fill="#FC4336"/>
<path d="M51.6626 13.1523H54.9216L58.5235 24.1015H55.9164L55.1617 21.6608H51.1481L50.3934 24.1015H48.0264L51.6626 13.1523ZM51.6626 19.932H54.5785L53.1034 15.1862L51.6626 19.932Z" fill="#FC4336"/>
<path d="M60.0675 13.1523H62.5717V22.1693H67.0656V24.1015H60.0332V13.1523H60.0675Z" fill="#FC4336"/>
<path d="M71.1133 13.1523H75.0926C77.6997 13.1523 79.3807 14.2032 79.3807 16.4744V16.5422C79.3807 18.2032 78.4201 19.0846 77.1166 19.4574L80.0325 24.1015H77.3567L74.7153 19.8642H73.6175V24.1015H71.1133V13.1523ZM75.024 18.2032C76.2933 18.2032 76.9107 17.6947 76.9107 16.61V16.5422C76.9107 15.4235 76.2247 15.0507 75.024 15.0507H73.6175V18.2032H75.024Z" fill="#FC4336"/>
<path d="M81.542 13.1523H88.7802V15.0845H84.0462V17.6269H87.8197V19.4235H84.0462V22.1354H89.0203V24.0676H81.542V13.1523Z" fill="#FC4336"/>
<path d="M90.0488 20.5082H92.4501C92.5531 21.4912 92.9647 22.3048 94.6113 22.3048C95.7091 22.3048 96.4295 21.6946 96.4295 20.8472C96.4295 19.9997 95.9492 19.6607 94.3369 19.4234C91.4896 19.0506 90.3233 18.2031 90.3233 16.1014C90.3233 14.237 91.9013 12.8472 94.3712 12.8472C96.8411 12.8472 98.3162 13.9658 98.522 16.1353H96.2236C96.0521 15.1523 95.4689 14.6777 94.3712 14.6777C93.2735 14.6777 92.7246 15.1862 92.7246 15.9319C92.7246 16.6777 93.0676 17.0845 94.7828 17.3217C97.4586 17.6607 98.8308 18.3726 98.8308 20.6438C98.8308 22.576 97.2185 24.1353 94.6113 24.1353C91.5925 24.1353 90.186 22.7116 90.0488 20.5082Z" fill="#FC4336"/>
<path d="M100.513 13.1523H107.717V15.0845H102.983V17.6269H106.756V19.4235H102.983V22.1354H107.957V24.0676H100.513V13.1523Z" fill="#FC4336"/>
<path d="M109.774 13.1523H113.754C116.361 13.1523 118.042 14.2032 118.042 16.4744V16.5422C118.042 18.2032 117.047 19.0846 115.778 19.4574L118.728 24.1015H116.052L113.376 19.8642H112.279V24.1015H109.774V13.1523ZM113.685 18.2032C114.954 18.2032 115.572 17.6947 115.572 16.61V16.5422C115.572 15.4235 114.886 15.0507 113.685 15.0507H112.279V18.2032H113.685Z" fill="#FC4336"/>
<path d="M118.419 13.1523H121.06L123.702 21.5591L126.343 13.1523H128.71L125.005 24.1015H122.124L118.419 13.1523Z" fill="#FC4336"/>
<path d="M129.877 13.1523H137.115V15.0845H132.381V17.6269H136.155V19.4235H132.381V22.1354H137.355V24.0676H129.877V13.1523Z" fill="#FC4336"/>
<path d="M142.672 13.1523H147.029C149.43 13.1523 150.699 14.1354 150.699 15.9998V16.0676C150.768 17.1862 150.013 18.1693 148.915 18.4066C150.356 18.7117 151.145 19.5252 151.145 20.9829V21.0507C151.145 23.0507 149.807 24.1015 147.269 24.1015H142.706V13.1523H142.672ZM146.617 17.6608C147.818 17.6608 148.298 17.2201 148.298 16.2371V16.1693C148.298 15.254 147.783 14.8473 146.583 14.8473H145.108V17.6608H146.617ZM146.857 22.4066C148.092 22.4066 148.675 21.8642 148.675 20.8473V20.7795C148.675 19.7625 148.126 19.254 146.754 19.254H145.176V22.4066H146.857Z" fill="#FC4336"/>
<path d="M155.502 13.1523H158.761L162.363 24.1015H159.756L159.002 21.6608H154.988L154.233 24.1015H151.866L155.502 13.1523ZM155.502 19.932H158.418L156.943 15.1862L155.502 19.932Z" fill="#FC4336"/>
<path d="M163.907 13.1523H166.823L171.043 20.3727V13.1523H173.272V24.1015H170.768L166.137 16.3049V24.1015H163.907V13.1523Z" fill="#FC4336"/>
<path d="M175.021 13.1526H177.526V17.8644L181.402 13.1187H184.078L179.687 18.339L184.284 24.1017H181.368L177.526 19.1864V24.1017H175.021V13.1526Z" fill="#FC4336"/>
<path d="M82.5363 27.9658H85.4521C87.6133 27.9658 89.2256 28.8133 89.2256 31.0506V31.1184C89.2256 33.3556 87.6133 34.237 85.4521 34.237H83.3596V38.915H82.502L82.5363 27.9658ZM85.5551 33.559C87.3389 33.559 88.4023 32.8133 88.4023 31.1184V31.0506C88.4023 29.2879 87.2703 28.6777 85.5208 28.6777H83.4282V33.559H85.5551Z" fill="#FC4336"/>
<path d="M91.3525 27.9658H92.2102V33.0506H98.728V27.9658H99.5856V38.915H98.728V33.7963H92.2102V38.915H91.3525V27.9658Z" fill="#FC4336"/>
<path d="M102.536 27.9658H103.394V38.915H102.536V27.9658Z" fill="#FC4336"/>
<path d="M106.344 27.9658H107.201V38.2031H112.587V38.915H106.344V27.9658Z" fill="#FC4336"/>
<path d="M117.631 27.9658H118.763L122.742 38.915H121.884L120.649 35.559H115.675L114.475 38.915H113.651L117.631 27.9658ZM115.915 34.8811H120.409L118.18 28.6777L115.915 34.8811Z" fill="#FC4336"/>
<path d="M124.697 27.9658H127.579C131.249 27.9658 133.102 30.3048 133.102 33.3556V33.4912C133.102 36.5421 131.318 38.915 127.545 38.915H124.697V27.9658ZM127.51 38.237C130.666 38.237 132.176 36.2709 132.176 33.4912V33.3556C132.176 30.6438 130.735 28.6777 127.476 28.6777H125.555V38.237H127.51Z" fill="#FC4336"/>
<path d="M135.331 27.9658H141.712V28.6777H136.189V32.9489H140.648V33.6607H136.189V38.237H141.986V38.9489H135.331V27.9658Z" fill="#FC4336"/>
<path d="M144.079 27.9658H144.937V38.2031H150.323V38.915H144.079V27.9658Z" fill="#FC4336"/>
<path d="M152.312 27.9658H155.228C157.39 27.9658 159.002 28.8133 159.002 31.0506V31.1184C159.002 33.3556 157.39 34.237 155.228 34.237H153.17V38.915H152.312V27.9658ZM155.331 33.559C157.115 33.559 158.179 32.8133 158.179 31.1184V31.0506C158.179 29.2879 157.047 28.6777 155.297 28.6777H153.204V33.559H155.331Z" fill="#FC4336"/>
<path d="M161.094 27.9658H161.951V33.0506H168.469V27.9658H169.327V38.915H168.469V33.7963H161.951V38.915H161.094V27.9658Z" fill="#FC4336"/>
<path d="M172.312 27.9658H173.169V38.915H172.312V27.9658Z" fill="#FC4336"/>
<path d="M179.173 27.9658H180.305L184.284 38.915H183.426L182.191 35.559H177.217L176.017 38.915H175.193L179.173 27.9658ZM177.457 34.8811H181.951L179.722 28.6777L177.457 34.8811Z" fill="#FC4336"/>
<path d="M216.118 11.3897C213.923 9.35578 210.081 7.96595 204.558 7.25409C204.523 6.9829 204.489 6.71172 204.455 6.44053C204.455 6.30494 204.455 6.13544 204.42 5.99985C203.872 1.76256 196.873 -0.813709 188.778 0.237139C180.682 1.28799 174.61 5.55917 175.193 9.79646C175.227 9.96595 175.262 10.1354 175.33 10.3049C175.742 6.54222 181.505 2.949 188.915 1.99985C192.791 1.49138 196.393 1.79646 199.138 2.71171C203.906 4.61002 202.088 7.42358 198.417 7.66087C199.172 9.99985 214.163 7.86426 216.907 16.0337C217.079 16.8134 217.113 17.5931 217.01 18.3727C213.648 15.3219 206.582 15.9999 201.676 16.9151C200.235 17.1524 198.795 17.4914 197.388 17.9321C196.839 18.0676 196.53 18.1693 196.53 18.1693H196.633L196.256 18.271C196.256 18.271 196.496 18.2032 196.873 18.1015C197.354 17.9999 197.834 17.9321 198.314 17.8643C199.858 17.6609 201.436 17.7626 202.945 18.2032C200.064 19.6948 185.587 27.9998 192.208 40.3727C192.208 40.3727 188.675 29.7287 200.716 21.2202C206.513 17.4236 210.835 18.6439 210.835 18.6439C210.835 18.6439 210.321 17.7287 208.571 17.1185C219.309 17.6609 216.633 23.8982 216.633 23.8982C220.578 17.2541 219.034 13.5253 216.118 11.3897Z" fill="#FC4336"/>
<path d="M209.258 12.1357C208.984 11.0171 206.273 11.8306 206.273 11.8306C206.273 11.8306 209.704 13.8306 209.258 12.1357Z" fill="#FC4336"/>
<path d="M201.95 48.0001C201.607 47.695 201.23 47.3899 200.887 47.0849C199.481 45.8984 198.28 44.4747 197.319 42.9154C196.325 41.3221 195.638 39.5594 195.295 37.695C195.09 36.5764 195.055 35.4577 195.124 34.3391C195.295 32.1357 195.879 30.0001 196.873 28.034C197.834 26.0679 199.035 24.2374 200.407 22.5425C199.961 22.9832 199.515 23.3899 199.138 23.8645C197.971 25.1865 196.942 26.6103 196.016 28.1018C194.609 30.4069 193.512 32.8137 193.237 35.5255C192.894 38.4408 193.82 41.356 195.776 43.5594C197.457 45.4916 199.583 46.8815 201.95 48.0001Z" fill="#FC4336"/>
</g>
<defs>
<clipPath id="clip0">
<rect width="219" height="48" fill="white"/>
</clipPath>
</defs>
</svg>
