<?xml version="1.0" encoding="UTF-8"?><svg id="Layer_1" xmlns="http://www.w3.org/2000/svg" viewBox="0 0 2048 194"><defs><style>.cls-1{fill:#4b40d9;}.cls-2{fill:#fc4336;}</style></defs><g><path class="cls-1" d="m358.67,23.75c0,12.14-10.12,23.02-23.78,23.02s-23.52-10.88-23.52-23.02S321.22.22,334.88.22s23.78,10.88,23.78,23.53Zm-3.79,166.99h-39.72V61.2h39.72v129.55Z"/><path class="cls-1" d="m508.2,118.89v71.86h-39.47v-70.34c0-15.94-9.37-26.31-24.04-26.31s-24.04,10.37-24.04,26.31v70.34h-39.72v-71.86c0-36.69,25.05-60.73,63.76-60.73s63.51,24.04,63.51,60.73Z"/><path class="cls-1" d="m660.51,118.89v71.86h-39.47v-70.34c0-15.94-9.37-26.31-24.04-26.31s-24.04,10.37-24.04,26.31v70.34h-39.72v-71.86c0-36.69,25.05-60.73,63.76-60.73s63.51,24.04,63.51,60.73Z"/><path class="cls-1" d="m805.22,134.07h-89.31c3.79,16.45,18.22,27.07,41.24,27.07,14.93,0,30.11-5.82,43.01-15.18v33.15c-10.37,8.86-27.58,14.68-50.09,14.68-42,0-69.83-27.07-69.83-67.81,0-37.7,26.82-67.81,66.29-67.81,43.01,0,65.28,33.65,58.7,75.91Zm-38.97-25.55c-.76-12.4-10.37-20.75-23.02-20.75s-22.27,6.83-26.57,20.75h49.59Z"/><path class="cls-1" d="m886.69,95.1c-12.65,0-20.75,10.88-20.75,30.36v65.28h-39.72v-72.11c0-36.69,16.19-60.47,53.13-60.47,4.55,0,17.71,1.02,23.02,3.04v37.45c-2.53-1.77-13.16-3.54-15.69-3.54Z"/><path class="cls-1" d="m1053.42,61.2v129.55h-39.47v-17.2c-7.59,13.16-21.25,20.24-38.71,20.24-35.17,0-62.5-28.59-62.5-67.81s27.33-67.81,62.5-67.81c17.46,0,31.12,7.09,38.71,20.24v-17.2h39.47Zm-39.47,64.77c0-18.22-13.15-31.88-30.62-31.88s-30.36,13.66-30.36,31.88,13.15,31.88,30.36,31.88,30.62-13.66,30.62-31.88Z"/><path class="cls-1" d="m1184.48,70.31v39.22c-9.37-10.12-21.51-15.43-35.42-15.43-19.73,0-34.66,13.66-34.66,31.88s14.93,31.88,34.66,31.88c13.91,0,26.82-5.82,36.18-16.19v39.73c-11.13,9.11-28.33,12.4-38.2,12.4-42,0-72.62-26.82-72.62-67.81s30.62-67.81,72.62-67.81c9.87,0,26.06,2.79,37.45,12.15Z"/><path class="cls-1" d="m1258.6,93.84v41.75c0,17.2,10.37,23.78,20.24,23.78s15.69-2.53,20.49-5.31v34.41c-9.11,3.29-19.48,5.32-28.08,5.32-29.1,0-52.38-17.46-52.38-56.17v-43.77h-20.24v-32.64h20.24V27.29h39.72v33.91h40.74v32.64h-40.74Z"/><path class="cls-1" d="m1368.15,23.75c0,12.14-10.12,23.02-23.78,23.02s-23.52-10.88-23.52-23.02S1330.7.22,1344.36.22s23.78,10.88,23.78,23.53Zm-3.79,166.99h-39.72V61.2h39.72v129.55Z"/><path class="cls-1" d="m1385.1,125.97c0-38.71,30.62-67.81,70.59-67.81s70.6,29.1,70.6,67.81-30.62,67.81-70.6,67.81-70.59-29.35-70.59-67.81Zm101.2,0c0-18.22-13.15-31.88-30.62-31.88s-30.36,13.66-30.36,31.88,13.15,31.88,30.36,31.88,30.62-13.66,30.62-31.88Z"/><path class="cls-1" d="m1673.27,118.89v71.86h-39.47v-70.34c0-15.94-9.36-26.31-24.04-26.31s-24.04,10.37-24.04,26.31v70.34h-39.72v-71.86c0-36.69,25.04-60.73,63.76-60.73s63.51,24.04,63.51,60.73Z"/><path class="cls-1" d="m1747.33,189.81c-2.06.94-6.36,1.69-10.48,1.69-19.46,0-29.58-12.36-29.58-32.01V58.95h23.4v99.59c0,7.49,3.56,12.54,10.68,12.54,1.87,0,4.3-.37,5.8-.93l.19,19.65Z"/><path class="cls-1" d="m1840.94,133.08v57.66h-23.41v-13.67c-4.3,9.36-14.41,15.91-26.39,15.91-18.91,0-32.39-12.91-32.39-30.7s14.23-29.58,33.7-29.58c10.11,0,19.28,3.37,25.08,7.87v-6.36c0-12.92-9.73-20.97-25.08-20.97-10.11,0-20.22,4.12-28.46,11.61v-20.03c8.62-7.3,20.78-11.04,32.39-11.04,26.58,0,44.56,15.72,44.56,39.31Zm-23.41,22.47v-.75c-5.24-3.93-12.35-6.55-19.46-6.55-9.92,0-16.85,5.81-16.85,13.48s6.93,13.66,16.85,13.66c10.67,0,19.09-8.42,19.46-19.84Z"/><path class="cls-1" d="m1961.87,143.38c0,28.08-21.72,49.61-51.1,49.61s-51.11-21.15-51.11-49.61l-.19-84.43h23.4l.19,43.24c7.87-5.24,17.41-8.42,27.71-8.42,29.39,0,51.1,21.53,51.1,49.61Zm-25.27,0c0-16.29-11.23-26.96-25.83-26.96s-26.21,10.67-26.21,26.96,11.42,27.14,26.21,27.14,25.83-10.86,25.83-27.14Z"/><path class="cls-1" d="m2043.51,102.2v22.84c-7.68-6.18-20.41-10.11-32.2-10.11-7.86,0-12.54,3.18-12.54,8.24,0,4.12,2.62,6.74,10.11,8.61l12.17,2.81c20.03,4.49,26.96,15.16,26.96,29.02,0,18.53-13.86,29.39-38.94,29.39-11.23,0-24.15-4.3-34.82-11.23l.19-23.02c10.11,8.24,24.52,13.48,36.88,13.48,8.42,0,12.91-3.56,12.91-8.98,0-4.68-2.81-7.49-10.29-9.36l-11.23-2.62c-20.59-4.68-27.33-15.35-27.33-27.52,0-22.09,17.78-29.95,36.88-29.95,11.98,0,23.78,3.37,31.27,8.42Z"/></g><g><path class="cls-1" d="m158.19.41c-44.14,0-80.05,35.91-80.05,80.06v55.29c0,9.45-7.69,17.15-17.15,17.15s-17.15-7.69-17.15-17.15V60.63H3.88v75.13c0,31.49,25.62,57.11,57.11,57.11s57.11-25.62,57.11-57.11v-55.29c0-22.11,17.99-40.1,40.09-40.1s40.09,17.99,40.09,40.1v110.19h39.96v-110.19C238.25,36.32,202.34.41,158.19.41Z"/><path class="cls-2" d="m158.23,84.84c-13.18,0-23.86,10.68-23.86,23.86s10.68,23.86,23.86,23.86,23.86-10.68,23.86-23.86-10.68-23.86-23.86-23.86Z"/><path class="cls-2" d="m23.86,48.13c13.18,0,23.86-10.68,23.86-23.86S37.04.41,23.86.41,0,11.09,0,24.27s10.68,23.86,23.86,23.86Z"/></g></svg>