<svg width="172" height="56" viewBox="0 0 172 56" fill="none" xmlns="http://www.w3.org/2000/svg">
<path d="M1.06684 29.6942C1.06684 29.6329 1.09741 29.6022 1.12799 29.5715C1.58661 28.8661 2.28982 28.59 3.11533 28.3753C7.85439 27.2098 12.5934 26.0136 17.3325 24.8173C17.4242 24.7867 17.4854 24.7867 17.5771 24.756C17.8523 24.664 17.9134 24.3573 17.73 24.1426C17.6688 24.0812 17.6382 24.0505 17.5771 23.9892C14.7031 21.4434 11.8597 18.867 8.98565 16.3212C7.79324 15.2477 6.60083 14.2048 5.37785 13.1313C4.79694 12.6405 4.39947 12.0884 4.43004 11.291C4.46061 10.5855 4.82751 10.0947 5.439 9.75735C6.05049 9.45063 6.60083 9.69601 7.05945 10.0947C8.22128 11.1069 9.35254 12.1498 10.5144 13.1926C13.7859 16.1371 17.0573 19.051 20.3594 21.9955C20.4511 22.0875 20.5428 22.1489 20.7569 22.3022C20.7569 21.9035 20.7569 21.6274 20.7569 21.3207C20.7569 15.6771 20.7569 10.0641 20.7569 4.42041C20.7569 4.02167 20.818 3.62293 20.9709 3.25487C21.2766 2.54941 21.8881 2.24269 22.5913 2.39605C23.2028 2.51874 23.7226 3.07084 23.7837 3.74562C23.8143 4.02167 23.8143 4.32839 23.8143 4.63511C23.8143 10.1561 23.8143 15.6771 23.8143 21.198C23.8143 21.2287 23.8143 21.2594 23.8143 21.3207C23.8143 21.6274 24.1812 21.8115 24.4258 21.5968C24.8233 21.2287 25.1902 20.8913 25.5571 20.5539C28.3699 17.8241 31.2134 15.0636 34.0262 12.3031C34.7906 11.567 35.5549 10.8309 36.3499 10.0947C37.1142 9.35861 37.8786 9.2666 38.5207 9.88004C39.1933 10.4935 39.285 11.6283 38.7041 12.3645C38.5207 12.5792 38.3066 12.7939 38.0926 13.0086C34.3014 16.6892 30.5101 20.3699 26.7189 24.0199C26.6272 24.1119 26.566 24.1732 26.4743 24.2652C26.2908 24.4799 26.3826 24.8173 26.6577 24.8787C28.0642 25.2467 29.3789 25.5841 30.7242 25.9215C34.5765 26.903 38.4595 27.8846 42.3119 28.8354C43.1374 29.0501 43.596 29.4795 43.7795 30.1236C44.0852 31.3812 42.8928 32.516 41.6087 32.2707C41.3641 32.2093 41.1195 32.148 40.8749 32.0866C35.7995 30.7984 30.7242 29.4795 25.6794 28.1913C25.4959 28.1606 25.3125 28.1606 25.129 28.1299C25.0984 28.0993 25.0679 28.0993 25.0373 28.0686C25.0679 28.0993 25.0679 28.1299 25.0984 28.1606C25.5571 29.3261 25.9851 30.4917 26.4437 31.6265C28.3088 36.074 30.1738 40.4908 32.0389 44.9382C32.4669 45.9504 32.1612 47.0546 31.3662 47.4533C30.5407 47.8827 29.7152 47.5454 29.2872 46.5638C28.7674 45.3983 28.3088 44.2021 27.789 43.0366C26.0463 38.8652 24.2729 34.6938 22.5302 30.5223C22.469 30.369 22.4079 30.2463 22.2856 30.0009C21.7352 31.2585 21.1849 32.4547 20.6651 33.6202C18.9224 37.6076 17.2102 41.5643 15.4675 45.5517C14.9477 46.7172 14.1833 47.1773 13.3272 46.7785C12.4711 46.4105 12.1348 45.2756 12.5629 44.2328C13.5107 42.0244 14.4891 39.8467 15.4369 37.6383C16.8127 34.5097 18.158 31.3812 19.5339 28.2833C19.595 28.1606 19.6256 28.0379 19.6867 27.7619C19.2281 27.8845 18.8612 27.9459 18.4943 28.0379C13.5413 29.3568 8.61875 30.6144 3.66568 31.8719C2.1981 32.24 1.89235 32.148 1.12799 30.9824C1.09741 30.9518 1.06684 30.8904 1.06684 30.8291C0.975116 30.369 0.975116 30.0929 1.06684 29.6942Z" fill="#FC4336"/>
<path d="M156.232 0.647949C156.936 0.770638 157.639 0.893326 158.311 1.04669C164.977 2.58029 169.227 6.75169 171.061 13.2542C172.559 18.4378 172.315 23.6213 169.96 28.5595C167.3 34.0805 162.867 37.2704 156.722 38.0065C153.267 38.436 149.842 38.1292 146.632 36.7183C142.107 34.7246 139.08 31.2894 137.521 26.6579C135.809 21.6277 135.809 16.5054 137.765 11.5365C140.15 5.46347 144.645 1.87483 151.126 0.831982C151.279 0.80131 151.432 0.709293 151.616 0.647949C153.144 0.647949 154.704 0.647949 156.232 0.647949ZM139.111 19.3579C139.263 20.7688 139.355 22.1797 139.6 23.56C140.334 27.3633 142.137 30.5839 145.164 32.9763C148.986 36.0129 153.419 36.5036 158.036 35.4301C162.653 34.3566 165.68 31.2587 167.545 27.0259C169.349 22.9159 169.471 18.5911 168.432 14.2664C167.667 11.0458 165.986 8.31597 163.509 6.13825C160.666 3.65381 157.302 2.76432 153.603 2.85634C148.864 2.97903 145.103 4.94204 142.321 8.80672C140.089 11.9659 139.202 15.5239 139.111 19.3579Z" fill="#FC4336"/>
<path d="M118.321 0.64786C118.81 0.770548 119.33 0.862564 119.819 0.985252C123.06 1.59869 125.812 2.94827 127.646 5.86211C128.747 7.57975 129.236 9.51209 129.481 11.5058C129.603 12.6406 129.664 13.8062 129.664 14.941C129.695 22.1797 129.664 29.4183 129.664 36.6262C129.664 36.8102 129.664 36.9943 129.664 37.2397C128.747 37.2397 127.83 37.2397 126.821 37.2397C126.821 36.9636 126.821 36.6569 126.821 36.3195C126.821 29.2036 126.821 22.057 126.821 14.941C126.821 13.2848 126.729 11.6285 126.301 10.0335C125.322 6.26085 122.938 3.96044 119.116 3.19364C116.486 2.67222 113.857 2.70289 111.289 3.50036C106.55 4.94195 103.798 8.25454 102.453 12.886C101.933 14.665 101.811 16.5053 101.811 18.3457C101.811 24.3574 101.811 30.3691 101.811 36.3502C101.811 36.6262 101.811 36.9329 101.811 37.2397C100.832 37.2397 99.9456 37.2397 99.0283 37.2397C99.0283 25.2775 99.0283 13.3768 99.0283 1.38399C99.915 1.38399 100.832 1.38399 101.78 1.38399C101.78 3.80708 101.78 6.23018 101.78 8.80663C101.933 8.6226 101.994 8.59193 102.025 8.53059C103.737 4.72725 106.855 2.61087 110.677 1.35332C111.472 1.10794 112.267 0.985252 113.093 0.80122C113.245 0.770548 113.368 0.678532 113.49 0.617188C115.141 0.64786 116.731 0.64786 118.321 0.64786Z" fill="#FC4336"/>
<path d="M89.2745 30.0625C86.4004 35.4915 81.7531 37.7919 75.9439 38.1293C73.926 38.2519 71.9081 38.0372 69.9208 37.5158C65.3957 36.2889 62.7357 33.3137 61.8796 28.7436C61.5739 27.118 61.421 25.4617 61.421 23.8054C61.3599 16.5361 61.3905 9.2975 61.3905 2.02821C61.3905 1.84418 61.421 1.66015 61.421 1.41477C62.3383 1.41477 63.2249 1.41477 64.2339 1.41477C64.2339 1.69082 64.2339 1.96687 64.2339 2.24292C64.2339 9.54287 64.2339 16.8735 64.2339 24.1735C64.2339 25.9218 64.4173 27.6394 64.9371 29.2957C66.0072 32.731 68.3003 34.8473 71.847 35.5528C74.8433 36.1662 77.809 36.0742 80.6524 35.0007C84.5965 33.4978 87.0731 30.5532 88.3878 26.5965C88.9993 24.7256 89.2133 22.7932 89.2133 20.8302C89.2133 14.6344 89.2133 8.43868 89.2133 2.24292C89.2133 1.96687 89.2133 1.66015 89.2133 1.32275C90.1611 1.32275 91.0784 1.32275 92.0262 1.32275C92.0262 13.2542 92.0262 25.2163 92.0262 37.1784C91.1089 37.1784 90.2223 37.1784 89.2439 37.1784C89.2745 34.8167 89.2745 32.4549 89.2745 30.0625Z" fill="#FC4336"/>
<path d="M50.7808 1.16943C51.698 1.16943 52.5541 1.16943 53.4713 1.16943C53.4713 1.44548 53.4713 1.72153 53.4713 1.96691C53.4713 16.3521 53.4713 30.7373 53.4713 45.0919C53.4713 46.6561 53.349 48.1897 52.921 49.6927C52.0037 52.7905 49.9552 54.6002 46.8366 55.2136C45.1245 55.551 43.3817 55.4283 41.6084 55.367C41.6084 54.5388 41.6084 53.772 41.6084 52.9132C42.3116 52.9132 43.0148 52.9439 43.6875 52.9132C44.5741 52.8826 45.4608 52.9132 46.3169 52.7599C48.9463 52.2998 50.1387 51.1036 50.5056 48.4658C50.689 47.1776 50.7808 45.8587 50.7808 44.5704C50.8113 30.4613 50.7808 16.3521 50.7808 2.24296C50.7808 1.87489 50.7808 1.5375 50.7808 1.16943Z" fill="#FC4336"/>
</svg>
