<?xml version="1.0" encoding="utf-8"?>
<!-- Generator: Adobe Illustrator 19.1.0, SVG Export Plug-In . SVG Version: 6.00 Build 0)  -->
<svg version="1.1" id="Layer_1" xmlns="http://www.w3.org/2000/svg" xmlns:xlink="http://www.w3.org/1999/xlink" x="0px" y="0px"
	 viewBox="0 0 196.6 38.7" style="enable-background:new 0 0 196.6 38.7;" xml:space="preserve">
<g>
	<path style="fill:none;" d="M82.4,13.5c-0.6,0-1.2,0.1-1.7,0.3c-0.5,0.2-1,0.5-1.4,0.8c-0.4,0.3-0.7,0.7-0.9,1.2
		c-0.2,0.5-0.4,0.9-0.4,1.4h8.3c0-1-0.3-1.9-1-2.6C84.7,13.9,83.7,13.5,82.4,13.5z"/>
	<path style="fill:none;" d="M38.1,13.5c-0.6,0-1.2,0.1-1.7,0.3c-0.5,0.2-1,0.5-1.4,0.8c-0.4,0.3-0.7,0.7-0.9,1.2
		c-0.2,0.5-0.4,0.9-0.4,1.4h8.3c0-1-0.3-1.9-1-2.6C40.3,13.9,39.4,13.5,38.1,13.5z"/>
	<path style="fill:#FFFFFF;" d="M14.5,18.3h5.3v5.1c-0.6,0.3-1.3,0.5-2,0.6c-0.7,0.1-1.4,0.2-2.2,0.2c-1.4,0-2.6-0.2-3.6-0.6
		c-1.1-0.4-1.9-1-2.7-1.8c-0.7-0.8-1.3-1.7-1.6-2.8c-0.4-1.1-0.5-2.2-0.5-3.5c0-1.3,0.2-2.4,0.6-3.5c0.4-1.1,1-2,1.7-2.7
		C10.2,8.4,11,7.8,12,7.3c1-0.4,2.1-0.6,3.3-0.6c1.4,0,2.6,0.2,3.6,0.7c1.1,0.5,1.9,1.1,2.6,1.9l4.2-4.8c-1.2-1.1-2.7-2-4.6-2.7
		c-1.9-0.7-3.9-1-6.1-1c-2.1,0-4.1,0.3-5.9,1C7.3,2.5,5.7,3.5,4.3,4.7C3,6,1.9,7.5,1.2,9.3c-0.8,1.8-1.2,3.8-1.2,6
		c0,2.2,0.4,4.2,1.1,6c0.8,1.8,1.8,3.3,3.2,4.6c1.3,1.3,3,2.3,4.8,3C11,29.6,13,30,15.2,30c2.1,0,4.1-0.2,5.9-0.7
		c1.8-0.4,3.4-1,4.8-1.7V12.9H14.5V18.3z"/>
	<path style="fill:#FFFFFF;" d="M45.1,11.9c-0.9-0.9-1.9-1.6-3.1-2.1c-1.2-0.5-2.5-0.7-4-0.7c-1.5,0-2.9,0.2-4.2,0.7
		c-1.3,0.5-2.4,1.2-3.3,2.1c-0.9,0.9-1.7,2-2.2,3.3c-0.5,1.3-0.8,2.7-0.8,4.3c0,1.6,0.3,3.1,0.8,4.4c0.6,1.3,1.3,2.4,2.3,3.2
		c1,0.9,2.1,1.5,3.4,2c1.3,0.5,2.7,0.7,4.2,0.7c2,0,3.7-0.4,5.2-1.1c1.5-0.7,2.7-1.7,3.6-3.1l-4.5-2.8c-0.4,0.6-1,1.1-1.7,1.5
		c-0.7,0.4-1.6,0.6-2.6,0.6c-0.6,0-1.1-0.1-1.7-0.3c-0.5-0.2-1-0.4-1.4-0.8c-0.4-0.3-0.8-0.7-1.1-1.2c-0.3-0.4-0.4-0.9-0.5-1.5h14.1
		c0-0.2,0-0.5,0-0.7c0-0.3,0-0.5,0-0.8c0-1.7-0.2-3.2-0.7-4.5C46.6,14,46,12.9,45.1,11.9z M33.7,17.3c0-0.5,0.2-1,0.4-1.4
		c0.2-0.5,0.5-0.9,0.9-1.2c0.4-0.3,0.8-0.6,1.4-0.8c0.5-0.2,1.1-0.3,1.7-0.3c1.3,0,2.2,0.4,2.9,1.1c0.6,0.7,1,1.6,1,2.6H33.7z"/>
	<path style="fill:#FFFFFF;" d="M67.9,11.7c-0.6-0.7-1.3-1.4-2.2-1.8c-0.9-0.5-2-0.7-3.3-0.7c-0.7,0-1.3,0.1-1.9,0.3
		c-0.6,0.2-1.2,0.4-1.7,0.7c-0.5,0.3-1,0.6-1.3,1c-0.4,0.4-0.7,0.8-0.9,1.2h-0.1V9.8h-6.2v19.5h6.5V18.7c0-0.5,0.1-1.1,0.2-1.6
		c0.1-0.5,0.4-1,0.6-1.4c0.3-0.4,0.6-0.7,1.1-0.9c0.4-0.2,0.9-0.3,1.5-0.3c0.6,0,1.1,0.1,1.4,0.3c0.4,0.2,0.7,0.5,0.9,0.9
		c0.2,0.4,0.4,0.8,0.5,1.3c0.1,0.5,0.1,1,0.1,1.6v10.7h6.5V17.2c0-1-0.1-1.9-0.4-2.9C68.9,13.3,68.5,12.5,67.9,11.7z"/>
	<path style="fill:#FFFFFF;" d="M89.4,11.9c-0.9-0.9-1.9-1.6-3.1-2.1c-1.2-0.5-2.5-0.7-4-0.7c-1.5,0-2.9,0.2-4.2,0.7
		c-1.3,0.5-2.4,1.2-3.3,2.1c-0.9,0.9-1.7,2-2.2,3.3c-0.5,1.3-0.8,2.7-0.8,4.3c0,1.6,0.3,3.1,0.8,4.4c0.6,1.3,1.3,2.4,2.3,3.2
		c1,0.9,2.1,1.5,3.4,2c1.3,0.5,2.7,0.7,4.2,0.7c2,0,3.7-0.4,5.2-1.1c1.5-0.7,2.7-1.7,3.6-3.1L87,22.9c-0.4,0.6-1,1.1-1.7,1.5
		c-0.7,0.4-1.6,0.6-2.6,0.6c-0.6,0-1.1-0.1-1.7-0.3c-0.5-0.2-1-0.4-1.4-0.8c-0.4-0.3-0.8-0.7-1.1-1.2c-0.3-0.4-0.4-0.9-0.5-1.5h14.1
		c0-0.2,0-0.5,0-0.7c0-0.3,0-0.5,0-0.8c0-1.7-0.2-3.2-0.7-4.5C91,14,90.3,12.9,89.4,11.9z M78,17.3c0-0.5,0.2-1,0.4-1.4
		c0.2-0.5,0.5-0.9,0.9-1.2c0.4-0.3,0.8-0.6,1.4-0.8c0.5-0.2,1.1-0.3,1.7-0.3c1.3,0,2.2,0.4,2.9,1.1c0.6,0.7,1,1.6,1,2.6H78z"/>
	<path style="fill:#FFFFFF;" d="M106.1,9.2c-1.2,0-2.3,0.3-3.2,0.9c-0.9,0.6-1.6,1.4-2.1,2.4h-0.1V9.8h-6.2v19.5h6.4v-10
		c0-0.4,0.1-0.8,0.2-1.4c0.2-0.5,0.4-1,0.8-1.4c0.4-0.4,0.8-0.8,1.4-1.1c0.6-0.3,1.3-0.5,2.2-0.5c0.3,0,0.5,0,0.8,0
		c0.3,0,0.6,0.1,0.8,0.2l0.3-5.7c-0.2-0.1-0.4-0.1-0.6-0.1C106.7,9.2,106.4,9.2,106.1,9.2z"/>
	<path style="fill:#FFFFFF;" d="M138.6,16c0.4-0.5,0.9-0.8,1.4-1.1c0.5-0.3,1.2-0.4,1.8-0.4c0.7,0,1.3,0.1,1.9,0.4
		c0.6,0.3,1.1,0.7,1.5,1.1l3.7-4.3c-0.4-0.4-0.9-0.7-1.4-1.1c-0.5-0.3-1.1-0.6-1.8-0.8c-0.6-0.2-1.3-0.4-2-0.5
		c-0.7-0.1-1.4-0.2-2.1-0.2c-1.5,0-2.9,0.2-4.3,0.7c-1.3,0.5-2.5,1.2-3.5,2.1c-1,0.9-1.8,2-2.3,3.3c-0.6,1.3-0.8,2.7-0.8,4.3
		c0,1.6,0.3,3.1,0.8,4.3c0.6,1.3,1.3,2.4,2.3,3.3c1,0.9,2.1,1.6,3.5,2.1c1.3,0.5,2.8,0.7,4.3,0.7c1.4,0,2.8-0.2,4.1-0.7
		c1.3-0.4,2.3-1.1,3.1-1.8l-3.6-4.3c-0.4,0.5-0.9,0.8-1.5,1.1c-0.6,0.2-1.3,0.4-1.9,0.4c-0.7,0-1.3-0.1-1.9-0.4
		c-0.6-0.3-1-0.6-1.4-1.1c-0.4-0.5-0.7-1-0.9-1.6c-0.2-0.6-0.3-1.2-0.3-1.9c0-0.7,0.1-1.3,0.3-1.9C137.9,17,138.2,16.5,138.6,16z"/>
	<path style="fill:#FFFFFF;" d="M156.6,1c-0.3-0.3-0.7-0.6-1.2-0.7C155,0.1,154.5,0,154,0c-0.5,0-1,0.1-1.4,0.3
		c-0.4,0.2-0.8,0.5-1.2,0.8c-0.3,0.3-0.6,0.7-0.8,1.1c-0.2,0.4-0.3,0.9-0.3,1.4c0,1,0.4,1.8,1.1,2.5c0.7,0.7,1.6,1,2.6,1
		c0.5,0,1-0.1,1.4-0.3c0.5-0.2,0.8-0.4,1.2-0.7c0.3-0.3,0.6-0.7,0.8-1.1c0.2-0.4,0.3-0.9,0.3-1.4c0-0.5-0.1-1-0.3-1.4
		C157.2,1.7,156.9,1.3,156.6,1z"/>
	<rect x="150.8" y="9.8" style="fill:#FFFFFF;" width="6.4" height="19.5"/>
	<path style="fill:#FFFFFF;" d="M168.3,4.6H162v5.1h-3.1v4.8h3.1v8.2c0,1,0.1,2,0.4,2.8c0.2,0.9,0.6,1.6,1.2,2.2
		c0.5,0.6,1.2,1.1,2.1,1.4c0.9,0.3,2,0.5,3.3,0.5c0.7,0,1.4-0.1,2-0.2c0.7-0.1,1.2-0.3,1.7-0.4l-0.1-4.7c-0.2,0.1-0.5,0.2-0.9,0.2
		c-0.4,0.1-0.7,0.1-1,0.1c-0.9,0-1.5-0.2-1.9-0.7c-0.4-0.5-0.5-1.1-0.5-2.1v-7.5h4.6V9.8h-4.6V4.6z"/>
	<path style="fill:#FFFFFF;" d="M189.8,9.8l-3.9,12.5h-0.1l-4.3-12.5h-7.1l8.1,19.2l-0.6,1.6c-0.3,0.8-0.7,1.5-1.1,1.9
		c-0.4,0.5-1.2,0.7-2.2,0.7c-0.3,0-0.7,0-1-0.1c-0.4-0.1-0.7-0.2-1-0.3l-0.7,5.4c0.5,0.1,1,0.2,1.7,0.3c0.6,0.1,1.3,0.1,1.9,0.1
		c1.2,0,2.3-0.1,3.2-0.4c0.9-0.3,1.7-0.7,2.3-1.3c0.7-0.6,1.2-1.2,1.7-2c0.5-0.8,0.9-1.7,1.3-2.7l8.7-22.4H189.8z"/>
	<path style="fill:#FFFFFF;" d="M123.3,10.4c0,1.2,0,8.2,0,8.4c0.2,0,1.8,0,3.1,0c-2.4,2.6-5.2,5.3-7.2,7.4c0-0.6,0-15.5,0-16.9
		c-0.3,0-0.6,0-0.9,0c-6,0-10.8,4.7-10.8,10.5c0,4,2.3,7.5,5.8,9.3c0-0.3,0-8.2,0-8.4c-0.2,0-2.7,0-3.1,0c0.4-0.5,7-7.2,7.2-7.4
		c0,1.8,0,13.7,0,16.9c0.3,0,0.6,0,0.9,0c6,0,10.8-4.7,10.8-10.5C129.1,15.7,126.8,12.2,123.3,10.4z"/>
</g>
</svg>
