<svg width="144" height="36" viewBox="0 0 144 36" fill="none" xmlns="http://www.w3.org/2000/svg">
<g clip-path="url(#clip0)">
<path d="M43.4473 0.992188L27.0575 20.2574L31.2556 4.93148L27.4601 0.992188L11.0128 20.2574L15.2109 4.93148L11.3578 0.992188L0 12.7813L3.33546 16.1743L8.68371 10.711L3.9393 27.9922L7.79233 31.9602L15.9297 22.4139L24.0958 12.8963L19.984 27.9922L23.8371 31.9602L40.2268 12.8101L36.0288 27.9922L39.8818 31.9602L51.2971 20.1711L47.9617 16.7206L42.5559 22.2414L47.3003 4.93148L43.4473 0.992188Z" fill="#FC4336"/>
<path d="M140.089 30.6666C139.342 30.6666 138.939 30.1778 138.939 29.6315C138.939 28.9702 139.399 28.6251 140.003 28.5388L142.073 28.2226V28.5964C142.073 30.1491 141.153 30.6666 140.089 30.6666ZM137.041 29.7178C137.041 31.0117 138.077 32.1618 139.716 32.1618C141.009 32.1618 141.786 31.5005 142.16 30.8679C142.16 31.5293 142.217 31.8456 142.246 31.9031H144C143.971 31.8168 143.914 31.328 143.914 30.6091V26.5836C143.914 24.9734 142.993 23.5644 140.549 23.5644C138.594 23.5644 137.358 24.8008 137.214 26.2098L138.939 26.6123C139.025 25.8072 139.572 25.1459 140.578 25.1459C141.613 25.1459 142.073 25.6922 142.073 26.3823C142.073 26.6698 141.93 26.8999 141.498 26.9574L139.457 27.2737C138.105 27.4749 137.041 28.2801 137.041 29.7178ZM133.275 20.9478C133.275 21.6379 133.821 22.1842 134.482 22.1842C135.172 22.1842 135.719 21.6379 135.719 20.9478C135.719 20.2577 135.172 19.6826 134.482 19.6826C133.821 19.6826 133.275 20.2577 133.275 20.9478ZM135.431 23.7944H133.562V31.9031H135.431V23.7944ZM126.431 27.1587C126.46 26.1235 127.035 25.3184 128.07 25.3184C129.249 25.3184 129.709 26.1235 129.709 27.1299V31.9318H131.607V26.8136C131.607 25.0309 130.658 23.5932 128.703 23.5932C127.869 23.5932 126.977 23.8807 126.431 24.5995V19.8839H124.533V31.9318H126.431V27.1587ZM121.169 27.8488C121.169 29.4015 120.278 30.4079 119.041 30.4079C117.805 30.4079 116.914 29.4015 116.914 27.8488C116.914 26.3248 117.805 25.3472 119.041 25.3472C120.307 25.3472 121.169 26.3248 121.169 27.8488ZM116.914 35.0948V31.0117C117.316 31.6155 118.179 32.1331 119.329 32.1331C121.6 32.1331 123.067 30.2928 123.067 27.8775C123.067 25.4909 121.744 23.6507 119.415 23.6507C118.208 23.6507 117.287 24.2257 116.885 24.9446V23.8519H115.073V35.1235L116.914 35.0948ZM112.946 19.8551H111.048V31.9031H112.946V19.8551ZM107.885 29.0852C107.626 29.8903 107.051 30.4941 105.901 30.4941C104.722 30.4941 103.773 29.6027 103.744 28.3663H109.524C109.553 28.3376 109.581 28.0788 109.581 27.7625C109.581 25.2034 108.144 23.5357 105.7 23.5357C103.687 23.5357 101.846 25.2321 101.846 27.7912C101.846 30.5516 103.744 32.1331 105.901 32.1331C107.799 32.1331 109.064 30.9829 109.466 29.574L107.885 29.0852ZM103.773 26.9861C103.831 26.1235 104.521 25.1746 105.7 25.1746C106.993 25.1746 107.626 26.0372 107.655 26.9861H103.773ZM100.323 19.8551H98.4823V24.7433C98.2522 24.2257 97.5334 23.5644 96.1532 23.5644C93.9104 23.5644 92.3864 25.4909 92.3864 27.82C92.3864 30.2641 93.9104 32.1043 96.182 32.1043C97.3034 32.1043 98.1372 31.5293 98.511 30.8679C98.511 31.213 98.5685 31.7305 98.5973 31.9031H100.409C100.38 31.7593 100.323 31.1555 100.323 30.4079V19.8551ZM94.2554 27.8488C94.2554 26.296 95.1756 25.3184 96.412 25.3184C97.6484 25.3184 98.4823 26.296 98.4823 27.82C98.4823 29.3727 97.6197 30.4079 96.3832 30.4079C95.0893 30.4079 94.2554 29.3727 94.2554 27.8488ZM87.2395 30.6666C86.4919 30.6666 86.0893 30.1778 86.0893 29.6315C86.0893 28.9702 86.5494 28.6251 87.1532 28.5388L89.2235 28.2226V28.5964C89.1947 30.1491 88.2746 30.6666 87.2395 30.6666ZM84.1915 29.7178C84.1915 31.0117 85.2267 32.1618 86.8657 32.1618C88.1596 32.1618 88.9359 31.5005 89.3097 30.8679C89.3097 31.5293 89.3673 31.8456 89.396 31.9031H91.15C91.1212 31.8168 91.0637 31.328 91.0637 30.6091V26.5836C91.0637 24.9734 90.1436 23.5644 87.6995 23.5644C85.7442 23.5644 84.5078 24.8008 84.3641 26.2098L86.0893 26.6123C86.1756 25.8072 86.7219 25.1459 87.7283 25.1459C88.7634 25.1459 89.2235 25.6922 89.2235 26.3823C89.2235 26.6698 89.0797 26.8999 88.6484 26.9574L86.6069 27.2737C85.2267 27.4749 84.1915 28.2801 84.1915 29.7178ZM82.5813 19.8551H80.6835V31.9031H82.5813V19.8551ZM76.4279 20.9478C76.4279 21.6379 76.9743 22.1842 77.6356 22.1842C78.3257 22.1842 78.872 21.6379 78.872 20.9478C78.872 20.2577 78.3257 19.6826 77.6356 19.6826C76.9743 19.6826 76.4279 20.2577 76.4279 20.9478ZM78.5845 23.7944H76.7155V31.9031H78.5845V23.7944ZM69.5845 27.1587C69.6133 26.1235 70.1883 25.3184 71.2235 25.3184C72.4024 25.3184 72.8625 26.1235 72.8625 27.1299V31.9318H74.7602V26.8136C74.7602 25.0309 73.8113 23.5932 71.8561 23.5932C71.0222 23.5932 70.1308 23.8807 69.5845 24.5995V19.8839H67.6867V31.9318H69.5845V27.1587ZM62.8273 27.3024C65.0414 27.3024 66.5078 25.7785 66.5078 23.7082C66.5078 21.6379 65.0414 20.1139 62.8273 20.1139H58.543V31.9318H60.4982V27.3312L62.8273 27.3024ZM60.4982 25.5484V21.8967H62.5398C63.7762 21.8967 64.5238 22.6155 64.5238 23.7369C64.5238 24.8583 63.7762 25.5484 62.5398 25.5484H60.4982Z" fill="#FC4336"/>
<path d="M127.323 14.6214C127.409 15.5415 128.3 17.0655 130.6 17.0655C132.613 17.0655 133.591 15.6853 133.591 14.4776C133.591 13.27 132.815 12.3498 131.319 12.0048L130.112 11.746C129.623 11.6597 129.307 11.3435 129.307 10.8834C129.307 10.3946 129.767 9.96326 130.457 9.96326C131.521 9.96326 131.866 10.7109 131.923 11.1709L133.505 10.7109C133.361 9.90575 132.671 8.4393 130.457 8.4393C128.818 8.4393 127.553 9.64697 127.553 11.0559C127.553 12.1773 128.271 13.0974 129.68 13.4137L130.859 13.6725C131.492 13.8163 131.779 14.1326 131.779 14.5639C131.779 15.0527 131.377 15.484 130.6 15.484C129.594 15.484 129.048 14.8227 128.99 14.1038L127.323 14.6214ZM124.648 6.22524H122.952V7.43291C122.952 8.15176 122.578 8.69809 121.744 8.69809H121.342V10.4233H122.808V14.5064C122.808 16.0304 123.728 16.9217 125.195 16.9217C125.885 16.9217 126.23 16.778 126.345 16.7492V15.139C126.259 15.1677 125.942 15.1965 125.684 15.1965C124.993 15.1965 124.677 14.9089 124.677 14.1901V10.4233H126.316V8.69809H124.677V6.22524H124.648ZM120.335 8.66933C120.249 8.64058 120.048 8.61182 119.818 8.61182C118.783 8.61182 117.891 9.1294 117.517 10.0208V8.72684H115.677V16.8355H117.575V12.9537C117.575 11.4297 118.236 10.5671 119.703 10.5671C119.904 10.5671 120.105 10.5958 120.335 10.6246V8.66933ZM109.035 7.17412L110.789 12.0048H107.281L109.035 7.17412ZM112.543 16.8355H114.671L110.185 5.01757H107.914L103.428 16.8355H105.498L106.562 13.8738H111.45L112.543 16.8355ZM98.6835 4.75879H96.7858V16.8067H98.6835V4.75879ZM91.0062 15.5703C90.2586 15.5703 89.8561 15.0815 89.8561 14.5351C89.8561 13.8738 90.3161 13.5288 90.92 13.4425L92.9903 13.1262V13.5C92.9903 15.0527 92.0701 15.5703 91.0062 15.5703ZM87.9871 14.6214C87.9871 15.9153 89.0222 17.0655 90.6612 17.0655C91.9551 17.0655 92.7315 16.4042 93.1053 15.7716C93.1053 16.4329 93.1628 16.7492 93.1915 16.8067H94.9455C94.9168 16.7205 94.8593 16.2316 94.8593 15.5128V11.4872C94.8593 9.877 93.9391 8.46805 91.495 8.46805C89.5398 8.46805 88.3034 9.70448 88.1596 11.1134L89.8848 11.516C89.9711 10.7109 90.5174 10.0495 91.5238 10.0495C92.5589 10.0495 93.019 10.5958 93.019 11.2859C93.019 11.5735 92.8752 11.8035 92.4439 11.861L90.4024 12.1773C89.0222 12.3786 87.9871 13.1837 87.9871 14.6214ZM87.2107 8.66933C87.1244 8.64058 86.9232 8.61182 86.6931 8.61182C85.658 8.61182 84.7666 9.1294 84.3928 10.0208V8.72684H82.5526V16.8355H84.4503V12.9537C84.4503 11.4297 85.1117 10.5671 86.5781 10.5671C86.7794 10.5671 86.9807 10.5958 87.1819 10.6246L87.2107 8.66933ZM78.6708 15.9153C78.6708 16.2604 78.6995 16.6342 78.7283 16.8067H80.5398C80.511 16.5192 80.4535 16.0016 80.4535 15.3115V8.72684H78.5558V13.5288C78.5558 14.5927 77.9807 15.3403 76.888 15.3403C75.7379 15.3403 75.3065 14.4776 75.3065 13.5V8.72684H73.4088V13.8451C73.4088 15.6566 74.5014 17.0655 76.3992 17.0655C77.3481 17.0655 78.2682 16.6629 78.6708 15.9153ZM71.2235 16.8355V5.01757H68.5781L64.8976 14.0176L61.1596 5.01757H58.543V16.8355H60.4407V8.15176L64.0062 16.8067H65.7027L69.297 8.12301V16.8067L71.2235 16.8355Z" fill="#FC4336"/>
</g>
<defs>
<clipPath id="clip0">
<rect width="144" height="34.131" fill="white" transform="translate(0 0.992188)"/>
</clipPath>
</defs>
</svg>
