<svg width="148" height="42" viewBox="0 0 148 42" fill="none" xmlns="http://www.w3.org/2000/svg">
<path fill-rule="evenodd" clip-rule="evenodd" d="M2 15.7993H3.95991L11.1955 28.7583V16.3099H13.9205V35.1941H11.9606L4.72508 22.2284H4.63782V34.8447H2V15.7993ZM19.1962 29.3562C19.1962 30.9013 19.7063 32.6211 21.2366 32.6211C22.1696 32.6211 22.767 31.9359 23.1093 30.9013L25.7471 31.4186C25.0692 33.8236 23.2771 35.1941 21.2366 35.1941C18.0887 35.1941 16.216 32.5337 16.216 28.9262C16.216 25.238 17.8336 22.4031 21.0688 22.4031C24.3913 22.4031 25.8344 25.3187 25.8344 28.9262V29.3562H19.1962ZM23.1093 27.2131C23.022 26.0106 22.3441 24.8081 21.2366 24.8081C20.0419 24.8081 19.4512 25.9233 19.2767 27.2131H23.1093ZM27.2842 22.7524H30.177V34.8582H27.2842V22.7524ZM41.7552 34.0789C41.7552 38.029 40.6478 41.2872 36.9025 41.2872C34.4324 41.2872 31.9624 39.4868 31.7946 36.2219H34.862C34.9493 37.5118 35.7144 38.3649 36.8219 38.3649C38.8624 38.3649 38.8624 36.2219 38.8624 34.4148V33.6422C38.265 34.5894 37.1575 35.1873 36.1373 35.1873C33.1572 35.1873 31.6268 32.0971 31.6268 28.8322C31.6268 25.5739 33.2444 22.3964 36.2246 22.3964C37.2448 22.3964 38.265 22.9942 38.8624 23.9415V22.739H41.7552V34.0789ZM39.2047 28.8456C39.2047 27.2131 38.3523 25.4127 36.9025 25.4127C35.3721 25.4127 34.5197 27.2131 34.5197 28.8456C34.5197 30.3907 35.3721 32.1911 36.9025 32.1911C38.3523 32.1911 39.2047 30.3907 39.2047 28.8456ZM46.608 13.9922V23.7803C47.2054 22.7524 48.2256 22.4098 49.2459 22.4098C51.9709 22.4098 52.7361 24.6401 52.7361 27.4751V34.8582H49.8432V28.4224C49.8432 26.9646 49.9305 25.1574 48.3129 25.1574C46.608 25.1574 46.608 27.3878 46.608 28.8456V34.8514H43.7152V13.9922H46.608ZM54.1859 13.9922H56.9982V23.8609C57.6761 22.9136 58.7031 22.4031 59.8106 22.4031C62.6229 22.4031 64.4083 25.5807 64.4083 28.7583C64.4083 32.0232 62.7034 35.1941 59.7233 35.1941C58.7031 35.1941 57.6761 34.6768 57.0855 33.6489H56.9982V34.8514H54.1859V13.9922ZM61.5087 28.7583C61.5087 27.1258 60.569 25.4127 59.1259 25.4127C57.6761 25.4127 56.7432 27.1258 56.7432 28.7583C56.7432 30.3907 57.6829 32.1911 59.1259 32.1911C60.5757 32.1911 61.5087 30.3907 61.5087 28.7583ZM75.7247 28.8456C75.7247 32.5337 73.597 35.2008 70.4491 35.2008C67.3012 35.2008 65.1735 32.5405 65.1735 28.8456C65.1735 25.0701 67.3012 22.4098 70.4491 22.4098C73.597 22.4031 75.7247 25.0701 75.7247 28.8456ZM68.0663 28.8456C68.0663 30.3907 68.9188 32.1911 70.4491 32.1911C71.8989 32.1911 72.8319 30.3907 72.8319 28.8456C72.8319 27.1258 71.8922 25.4127 70.4491 25.4127C68.9188 25.4127 68.0663 27.1258 68.0663 28.8456ZM79.8124 24.0355C80.4097 22.9204 81.2622 22.4031 82.2824 22.4031C82.7052 22.4031 83.1348 22.4904 83.4771 22.6584L83.1348 25.8359C82.7925 25.5807 82.3696 25.406 81.9401 25.406C79.9802 25.406 79.8124 27.549 79.8124 29.3562V34.8514H76.9195V22.7524H79.8124V24.0355ZM89.2629 28.9329L92.3236 16.0546H94.1157L97.3509 28.9329L100.412 16.3166H103.559L98.3644 35.2008H96.1494L93.082 23.095H92.9948L90.1019 35.2008H87.8869L82.9469 16.3166H86.1015L89.2629 28.9329ZM112.762 28.8456C112.762 32.5337 110.634 35.2008 107.486 35.2008C104.338 35.2008 102.21 32.5405 102.21 28.8456C102.21 25.0701 104.425 22.4098 107.486 22.4098C110.634 22.4031 112.762 25.0701 112.762 28.8456ZM105.184 28.8456C105.184 30.3907 106.036 32.1911 107.486 32.1911C109.016 32.1911 109.869 30.3907 109.869 28.8456C109.869 27.1258 109.016 25.4127 107.486 25.4127C106.036 25.4127 105.184 27.1258 105.184 28.8456ZM116.937 24.0355C117.534 22.9204 118.386 22.4031 119.494 22.4031C119.917 22.4031 120.259 22.4904 120.689 22.6584L120.346 25.8359C120.004 25.5807 119.581 25.406 119.151 25.406C117.104 25.406 116.937 27.549 116.937 29.3562V34.8514H114.044V22.7524H116.937V24.0355ZM124.937 27.2131H125.024L128.005 22.7524H131.75L127.494 28.073L132.092 34.8582H128.347L125.024 29.7055H124.937V34.8582H122.125V13.9922H124.937V27.2131ZM138.563 25.5807C138.133 25.1507 137.623 24.8081 137.113 24.8081C136.603 24.8081 136.093 25.238 136.093 25.8359C136.093 26.6958 137.2 26.9511 138.22 27.4684C139.241 27.9857 140.267 28.8389 140.267 30.9013C140.267 33.6489 138.482 35.1941 136.354 35.1941C134.992 35.1941 133.717 34.5088 132.777 33.219L134.139 31.1566C134.65 31.9291 135.415 32.527 136.267 32.527C136.864 32.527 137.375 32.0097 137.375 31.2372C137.375 30.2026 136.435 29.9473 135.415 29.4368C134.394 28.9195 133.368 28.2343 133.368 26.2592C133.368 24.0288 134.73 22.3964 136.603 22.3964C137.623 22.3964 138.985 22.739 139.838 23.5989L138.563 25.5807ZM143.073 23.8676C142.899 23.6929 142.731 23.525 142.476 23.525C142.221 23.525 141.966 23.7803 141.966 24.1229C141.966 24.3781 142.221 24.5528 142.388 24.6401L142.644 24.8148C143.154 24.9828 143.496 25.3321 143.496 25.93C143.496 26.7026 142.986 27.2198 142.388 27.2198C141.878 27.2198 141.449 26.7026 141.368 26.1047L141.798 26.0173C141.798 26.4473 142.053 26.7026 142.476 26.7026C142.818 26.7026 143.073 26.3599 143.073 25.93C143.073 25.5 142.731 25.3321 142.476 25.2448L142.221 25.0701C141.878 24.8954 141.536 24.6401 141.536 24.1229C141.536 23.4376 142.046 23.095 142.476 23.095C142.905 23.095 143.16 23.2697 143.328 23.6929L143.073 23.8676ZM144.268 24.4655L143.926 27.1258H143.503L144.187 23.0077L145.295 26.0979L146.402 23.0077L147.08 27.1258H146.657L146.315 24.4655L145.295 27.2131L144.268 24.4655Z" fill="#FC4336"/>
<path fill-rule="evenodd" clip-rule="evenodd" d="M32.9493 11.5528V16.3629L17.6257 0.992188L0 18.7612H2.47002L17.5385 3.6525L32.9493 19.1911H36.3523V11.5528H32.9493ZM114.601 11.5528V16.3629L99.3579 0.992188L81.7322 18.7612H84.2022L99.1834 3.6525L114.594 19.1911H117.997V11.5528H114.601Z" fill="#FC4336"/>
</svg>
