<svg width="134" height="128" viewBox="0 0 134 128" fill="none" xmlns="http://www.w3.org/2000/svg">
<path d="M72.1965 127.758C71.0842 126.333 69.9719 124.873 68.8596 123.448C68.7205 123.274 68.512 123.1 68.3382 122.927C68.2686 123.135 68.1296 123.378 68.0948 123.587C68.0601 124.317 68.0601 125.047 68.0253 125.777C67.9558 127.167 67.9558 127.202 66.6002 126.994C65.1402 126.75 65.1402 126.75 65.1402 125.29C65.1402 123.552 65.1402 121.814 65.1055 120.111C65.1055 118.86 65.1055 118.86 66.2873 118.825C68.6858 118.755 68.651 118.755 70.0066 120.806C70.7018 121.884 71.4666 122.927 72.2313 124.004C72.3703 124.178 72.6484 124.282 72.857 124.387C72.9612 124.143 73.1003 123.935 73.1003 123.691C73.2046 122.301 73.3088 120.945 73.3436 119.555C73.3784 118.582 73.7607 118.616 74.9078 118.616C75.7073 118.616 75.8463 119.068 75.8116 119.694C75.7073 121.814 75.6725 123.935 75.4987 126.055C75.464 126.646 75.0121 127.237 74.7688 127.828C73.9345 127.758 73.0655 127.758 72.1965 127.758Z" fill="#FC4336"/>
<path d="M133.966 66.3716C133.131 67.8663 133.131 67.9706 131.602 67.6578C129.064 67.1364 126.527 66.4759 124.024 65.885C123.781 65.8155 123.433 65.746 123.329 65.5722C123.155 65.2246 123.016 64.7727 123.086 64.3903C123.12 64.2165 123.572 64.008 123.85 63.9732C124.546 63.9384 125.241 64.008 125.936 64.008C126.805 63.9732 126.875 63.8689 126.562 63.1042C126.04 61.8528 125.449 60.6362 124.928 59.4196C124.789 59.1068 124.65 58.7939 124.511 58.4811C124.094 57.4731 124.163 57.334 125.067 56.8821C125.971 56.4303 126.249 56.5345 126.666 57.4731C127.048 58.3073 127.361 59.1763 127.744 59.9758C128.161 60.7753 128.334 60.81 128.995 60.1843C129.586 59.6282 130.177 59.0373 130.768 58.4811C130.907 58.3421 131.046 58.1335 131.254 58.0292C131.915 57.6816 132.436 56.8821 133.27 57.1602C133.653 57.2993 133.166 59.5934 132.645 60.0105C131.706 60.7753 130.698 61.4357 129.76 62.2004C129.482 62.409 129.169 62.8261 129.203 63.0694C129.308 63.5908 129.134 64.3556 129.968 64.5641C131.324 64.877 132.645 65.2593 134 65.6069C133.966 65.8502 133.966 66.0936 133.966 66.3716Z" fill="#FC4336"/>
<path d="M0 62.7222C0.31284 62.1313 0.764721 61.8185 1.45992 61.888C1.80752 61.9228 2.15512 61.8532 2.50272 61.888C4.58833 62.2704 6.18729 61.3666 7.57769 59.9067C7.71673 59.7329 7.89053 59.5938 8.06433 59.4548C8.65525 59.0377 9.00285 59.2115 9.10713 59.9414C9.31569 61.6099 9.00285 62.2008 7.47341 62.896C7.09105 63.0698 6.70869 63.2784 6.18729 63.5217C6.50013 63.765 6.70869 63.9736 6.95201 64.0779C8.69001 64.7036 8.55097 66.233 8.65525 67.6234C8.69001 68.2143 8.23813 68.3186 7.89053 68.0405C7.40389 67.6582 6.91725 67.1715 6.56965 66.6501C5.90921 65.5726 5.07497 65.0512 3.78885 65.3293C3.1284 65.4683 2.39844 65.3988 1.738 65.5031C1.07756 65.6073 0.521401 65.5031 0.0695201 65.0512C0 64.2864 0 63.487 0 62.7222Z" fill="#FC4336"/>
<path d="M32.0486 46.1412C31.9096 47.3578 32.5352 48.5049 33.5085 49.4087C34.3775 50.2082 34.1342 51.1467 34.0647 52.0504C34.0299 52.259 33.5781 52.5718 33.3 52.5718C32.3962 52.6066 31.4924 52.5718 30.5887 52.4676C26.3827 51.9809 22.4548 50.4167 18.3879 49.3739C17.6232 49.1654 16.8932 48.922 16.1285 48.7135C15.5723 48.5744 15.2595 48.3311 15.5723 47.7054C16.0242 46.6974 16.3718 45.5851 16.928 44.6118C19.0483 41.101 21.2382 37.5903 23.4629 34.1143C23.9148 33.3843 24.4709 32.6891 25.0966 32.0982C28.8159 28.5527 32.6395 25.0766 36.3589 21.4616C40.9819 16.9428 46.5783 14.5791 52.8351 13.5016C56.6935 12.8411 60.5171 11.9721 64.4102 12.0069C66.9477 12.0416 69.5199 12.2502 72.0574 12.563C77.341 13.2235 82.4159 14.6834 87.3866 16.5952C91.1407 18.0551 94.4429 20.245 97.5713 22.7825C98.4403 23.4777 99.3441 24.1729 100.248 24.8333C103.446 27.1275 106.261 29.804 108.66 32.8977C110.989 35.9218 113.318 38.9459 115.507 42.0743C116.376 43.2909 116.933 44.7161 117.628 46.0717C117.941 46.7322 117.802 47.184 117.037 47.4969C114.152 48.6787 111.336 50.1039 108.277 50.7991C107.582 50.9729 106.887 51.39 106.296 50.521C105.636 49.5825 105.601 48.9568 106.331 47.9488C106.991 47.0102 107.513 45.9674 107.478 44.8204C107.478 43.9166 107.269 42.9086 106.922 42.0743C106.435 40.9967 104.94 40.4058 103.828 40.6144C102.681 40.823 101.534 42.0743 101.395 43.2214C101.186 44.9246 101.603 46.4888 102.403 47.9835C102.994 49.0611 102.82 49.652 101.882 50.1734C101.673 50.2777 101.291 50.1734 100.978 50.1039C100.908 50.1039 100.839 49.9996 100.804 49.9301C96.9109 46.1065 92.983 42.3176 90.3412 37.4165C89.4027 35.7132 89.3679 35.7827 87.9428 37.1036C86.2395 38.7026 84.4668 40.232 82.6592 41.7267C80.4346 43.569 78.1404 45.4113 75.8463 47.184C75.0816 47.775 74.1778 48.2616 73.274 48.7135C72.2312 49.2001 71.7446 48.8525 71.6751 47.7054C71.6055 46.7322 71.9184 46.037 72.6831 45.3418C74.6992 43.569 75.3944 41.2401 74.6992 38.6331C74.2821 36.9646 72.9612 36.0956 71.1884 36.0956C69.5895 36.0956 68.4076 36.9646 67.921 38.5635C67.2258 40.8577 67.2953 43.0128 69.0681 44.8551C69.5895 45.3765 69.5895 46.6626 69.1376 47.2188C69.0333 47.3578 68.6509 47.3926 68.4771 47.3231C67.7819 46.9755 67.0867 46.5931 66.4611 46.1412C63.2631 43.8471 60.0305 41.5529 56.8673 39.1892C56.1373 38.6331 55.6507 38.5983 54.9207 39.1545C52.3485 41.0663 49.7762 42.9781 47.1345 44.8204C44.2494 46.8364 41.2948 48.7135 38.3749 50.66C38.1664 50.7991 37.9231 50.9034 37.6797 51.0424C37.2626 51.2857 36.9845 51.1119 36.9845 50.66C36.915 49.652 36.8455 48.7135 37.5755 47.7402C38.653 46.2803 39.0006 44.5075 38.5487 42.6652C38.2359 41.4834 37.645 40.5449 36.3589 40.3711C35.0727 40.1973 33.9604 40.6144 33.1609 41.692C32.2919 42.9781 32.0834 44.438 32.0486 46.1412Z" fill="#FC4336"/>
<path d="M41.9551 112.498C43.3803 112.429 43.9017 113.124 43.4845 114.167C43.4498 114.236 43.415 114.341 43.3803 114.41C42.6503 116.148 42.6503 116.148 44.284 117.122C44.3883 117.191 44.4926 117.261 44.6316 117.33C45.6397 117.921 45.6744 117.921 46.0916 116.809C46.1263 116.739 46.1263 116.635 46.1611 116.565C46.8215 114.793 47.4472 114.654 48.7333 116.079C48.9071 116.287 48.9419 116.739 48.8376 116.982C48.1772 118.72 47.5862 120.493 46.1958 121.849C45.8482 122.162 45.5702 122.614 45.3964 123.031C45.0835 123.761 44.6316 123.9 43.9712 123.622C43.6931 123.517 43.3803 123.413 43.1022 123.378C42.546 123.274 42.5113 122.961 42.7546 122.544C43.1022 121.884 43.415 121.223 43.7974 120.598C44.0407 120.146 43.9712 119.868 43.5193 119.659C43.2065 119.52 42.8936 119.346 42.5808 119.172C41.2251 118.477 40.669 118.616 39.7652 119.868C39.6957 119.972 39.6262 120.076 39.5567 120.18C38.7224 121.467 38.3748 121.536 37.0887 120.702C36.9149 120.598 36.7411 120.18 36.8106 120.041C38.1315 117.747 39.4524 115.488 40.8428 113.263C41.1209 112.846 41.7118 112.637 41.9551 112.498Z" fill="#FC4336"/>
<path d="M120.13 104.782C118.705 104.573 117.315 104.399 115.89 104.191C115.438 104.121 115.194 104.191 115.403 104.712C115.82 105.651 116.272 106.589 116.654 107.563C116.793 107.91 116.863 108.397 116.759 108.744C116.689 108.883 116.098 108.953 115.751 108.918C114.291 108.71 112.935 108.223 111.718 107.319C110.884 106.694 109.772 106.415 108.799 105.929C107.964 105.512 107.964 105.477 108.66 104.782C109.424 104.052 110.154 103.948 111.127 104.399C111.753 104.677 112.483 104.747 113.178 104.886C112.97 104.26 112.761 103.6 112.518 102.974C112.448 102.766 112.275 102.592 112.275 102.383C112.275 102.036 112.275 101.584 112.448 101.375C112.657 101.167 113.144 101.062 113.456 101.097C114.186 101.201 114.882 101.445 115.577 101.619C115.89 101.688 116.237 101.619 116.55 101.619C116.411 101.306 116.307 100.993 116.133 100.68C115.855 100.193 115.507 99.7416 115.229 99.2549C114.777 98.4902 115.368 97.2041 116.202 97.065C116.341 97.0303 116.585 97.2041 116.724 97.3431C117.315 98.1426 117.94 98.9073 118.497 99.7416C119.296 101.028 120.061 102.349 120.791 103.669C121.243 104.399 120.965 104.782 120.13 104.782Z" fill="#FC4336"/>
<path d="M122.077 77.3559C122.32 76.0002 122.564 74.6446 122.877 73.2889C122.946 72.9413 123.224 72.5937 123.537 72.3852C124.615 71.7247 126.387 71.8985 127.256 72.8023C127.778 73.3585 128.091 73.2542 128.508 72.8371C129.133 72.2114 129.898 72.0376 130.767 72.0376C131.462 72.0376 131.914 72.1766 131.949 73.0109C131.949 74.0189 131.879 74.1927 131.01 74.3665C130.837 74.4013 130.663 74.4013 130.489 74.4013C128.716 74.5751 127.952 75.2007 127.5 76.904C127.465 77.0778 127.5 77.2864 127.395 77.3906C127.222 77.5992 126.944 77.9468 126.77 77.8773C126.492 77.8078 126.214 77.5297 126.109 77.2516C126.005 76.904 126.144 76.4869 126.109 76.1045C126.04 75.6874 125.936 75.2355 125.727 74.9227C125.345 74.3317 124.893 74.3665 124.476 74.8879C124.058 75.4093 123.815 77.4949 124.232 78.0163C124.441 78.2596 124.858 78.4334 125.206 78.503C126.839 78.781 128.438 79.0244 130.072 79.3024C130.524 79.372 131.184 79.5805 131.289 79.8586C131.462 80.4495 131.358 81.1447 131.289 81.7704C131.289 81.8747 130.802 82.0485 130.559 82.0137C129.412 81.8399 128.264 81.5966 127.117 81.3185C125.936 81.0404 124.788 80.6233 123.607 80.4148C122.494 80.241 122.355 79.8238 122.251 78.8506C122.181 78.3292 122.251 77.8078 122.251 77.2863C122.181 77.3559 122.112 77.3559 122.077 77.3559Z" fill="#FC4336"/>
<path d="M86.3783 125.951C85.1965 125.951 84.5361 125.499 84.1885 124.317C83.7366 122.788 83.2847 121.223 82.9023 119.694C82.5895 118.547 82.7285 118.06 83.8409 117.608C85.4051 116.983 87.0388 116.531 88.6377 116.044C89.1591 115.87 89.7848 115.836 89.9934 116.635C90.2367 117.435 89.5763 117.608 89.0896 117.817C88.2554 118.199 87.4211 118.547 86.5521 118.825C85.8222 119.068 85.7527 119.485 85.9265 120.111C86.0307 120.528 86.2393 120.702 86.6912 120.493C87.3169 120.215 87.9773 119.937 88.6377 119.729C88.9506 119.624 89.3677 119.277 89.6458 119.833C89.9239 120.424 89.6806 121.328 89.1939 121.501C88.5335 121.745 87.8383 121.849 87.2126 122.092C86.9693 122.197 86.6912 122.579 86.6912 122.822C86.6912 123.274 86.9693 123.483 87.4907 123.309C88.6725 122.857 89.8543 122.44 91.0362 122.023C91.4881 121.849 91.9399 121.814 92.0442 122.44C92.1137 122.996 92.7742 123.691 91.94 124.039C90.2367 124.734 88.4292 125.325 86.6912 125.916C86.5521 125.985 86.4479 125.951 86.3783 125.951Z" fill="#FC4336"/>
<path d="M25.9309 26.1891C25.1662 26.8148 24.5058 27.4057 23.7758 27.8923C23.7063 27.9271 23.2892 27.5795 23.1154 27.3709C22.594 26.78 22.1421 26.9538 21.725 27.4752C21.4469 27.8228 21.2036 28.1704 20.9602 28.5528C20.6474 29.0394 20.5779 29.5261 21.134 29.9084C21.8292 30.3951 21.5859 30.7774 21.0993 31.2293C20.1955 32.0983 20.0217 32.1331 19.0484 31.2988C17.8318 30.256 16.6152 29.2132 15.3986 28.1704C14.5296 27.4057 14.4601 27.0581 14.912 26.0501C15.1553 25.5287 15.4682 25.4244 15.92 25.8067C16.511 26.2586 17.1019 26.6757 17.6928 27.1276C18.1447 27.4752 18.5618 27.4752 18.9094 26.9886C18.9442 26.9191 19.0137 26.8495 19.0832 26.8148C20.7517 25.0768 20.7517 24.9377 18.9094 23.4431C18.7008 23.2693 18.4923 23.0955 18.3185 22.9564C17.9709 22.6783 17.9361 22.4003 18.2837 22.1222C18.5618 21.8789 18.8051 21.6703 19.0484 21.427C19.4308 21.0446 19.7784 21.0446 20.1955 21.3575C21.8988 22.7131 23.602 24.034 25.2705 25.3896C25.479 25.5634 25.6529 25.8415 25.9309 26.1891Z" fill="#FC4336"/>
<path d="M28.1205 107.666C27.8772 107.423 27.7034 107.18 27.4948 107.006C26.8691 106.45 26.2782 105.928 25.6177 105.407C25.1659 105.059 25.0963 104.747 25.4787 104.225C26.6953 102.592 26.7301 102.557 28.3986 103.739C29.8585 104.747 31.2836 105.789 32.7436 106.797C34.1687 107.806 34.2035 108.014 33.1607 109.474C33.0912 109.578 32.9869 109.683 32.9521 109.787C32.6045 110.378 32.1874 110.343 31.666 109.995C30.2756 109.126 30.2756 109.161 29.5456 110.586C29.059 111.594 28.4333 112.533 27.8772 113.506C27.7381 113.715 27.4253 114.062 27.3558 114.028C26.6953 113.645 26.1044 113.228 25.4787 112.776C25.0963 112.498 25.0616 112.151 25.3397 111.768C26.1044 110.725 26.8344 109.648 27.5991 108.605C27.7729 108.327 27.9467 108.014 28.1205 107.666Z" fill="#FC4336"/>
<path d="M103.445 109.856C103.689 110.135 104.036 110.447 104.21 110.864C104.454 111.351 104.662 111.942 104.141 112.429C103.758 112.776 103.341 113.089 102.924 113.402C102.576 113.68 102.403 113.889 102.716 114.34C103.445 115.383 104.106 116.53 104.836 117.573C105.183 118.06 105.183 118.512 104.766 118.825C104.21 119.276 103.55 119.624 102.924 119.972C102.82 120.041 102.403 119.728 102.298 119.52C101.847 118.72 101.499 117.886 101.082 117.087C100.943 116.774 100.769 116.461 100.595 116.183C99.8652 115.14 99.7262 115.105 98.6138 115.8C98.5096 115.87 98.4053 115.939 98.301 116.009C97.8491 116.218 97.1539 116.704 96.9801 116.565C96.4587 116.113 96.0763 115.453 95.7287 114.827C95.6245 114.653 95.7983 114.236 95.9721 114.062C98.0229 112.185 100.387 110.899 102.994 109.961C103.098 109.961 103.167 109.926 103.445 109.856Z" fill="#FC4336"/>
<path d="M15.8501 100.819C13.3822 100.715 11.2965 97.6209 12.2003 95.3268C12.3046 95.0487 12.5131 94.8054 12.7217 94.5968C13.695 93.6583 14.703 92.7893 15.6763 91.8508C16.0587 91.5032 16.3368 91.4337 16.7886 91.7813C18.2138 92.9631 18.2486 93.1369 16.8582 94.3883C16.5801 94.6664 16.2672 94.9097 15.9892 95.153C15.433 95.6396 15.2592 96.2305 15.572 96.891C15.9196 97.6209 16.6148 97.6905 17.2405 97.4819C17.9705 97.2386 18.6309 96.7867 19.3261 96.4739C19.7085 96.3001 20.0561 95.5701 20.5427 96.0567C21.0641 96.5434 21.377 97.2386 21.7246 97.8643C21.7593 97.9338 21.4812 98.2814 21.3074 98.3857C20.1256 99.0461 18.9438 99.6718 17.7272 100.263C17.1362 100.541 16.4758 100.645 15.8501 100.819Z" fill="#FC4336"/>
<path d="M107.2 16.4914C106.991 16.8738 106.852 17.1519 106.713 17.3952C106.505 17.7776 106.296 18.1599 106.053 18.5075C105.636 19.0637 105.671 19.446 106.192 19.9327C107.131 20.8017 107.478 21.3926 108.556 19.7589C108.729 19.4808 108.973 19.2027 109.181 18.9594C110.12 17.8471 110.294 17.8818 111.128 19.0637C111.371 19.4113 111.476 19.7241 111.163 20.1065C109.842 21.7054 108.556 23.3392 107.27 24.9729C106.887 25.4595 106.609 25.3552 106.227 24.9729C105.288 24.1386 105.288 24.1734 105.705 22.9568C105.844 22.5049 105.01 20.906 104.628 20.9755C104.315 21.0102 104.072 21.3231 103.794 21.5316C103.133 22.0183 102.646 21.8445 101.743 20.9755C101.187 20.4541 101.638 20.1065 101.917 19.7589C102.925 18.577 103.898 17.3604 104.593 15.97C105.08 14.9967 105.219 14.9967 106.157 15.6572C106.47 15.9005 106.852 16.2134 107.2 16.4914Z" fill="#FC4336"/>
<path d="M76.8195 6.13256C76.5067 6.06304 76.2286 6.06304 75.9157 5.95876C75.5334 5.85448 75.2205 5.81972 75.0815 6.2716C74.9077 6.86252 75.3596 6.89728 75.7419 7.00156C76.3329 7.1406 76.9238 7.27964 77.5147 7.41868C77.9318 7.52296 78.2794 7.662 78.1056 8.21816C77.9666 8.7048 77.8623 9.19144 77.2019 9.08716C75.6724 8.84384 74.143 8.56576 72.6135 8.28768C72.1269 8.21816 71.9878 7.90532 72.0921 7.41868C72.6483 5.33307 73.1697 3.24747 73.7259 1.16187C73.8301 0.675228 74.1082 0.536187 74.5949 0.640467C75.8462 0.918548 77.1323 1.16187 78.3837 1.50947C79.2179 1.75279 79.357 2.06563 79.1484 2.83035C78.9399 3.66459 78.3489 3.45603 77.7928 3.35175C77.3757 3.24747 76.9585 3.03891 76.5414 3.00415C76.2981 2.96939 76.0548 3.21271 75.8115 3.31699C75.9505 3.52555 76.0895 3.80363 76.2633 3.90791C76.5762 4.08171 76.9238 4.08171 77.2714 4.18599C77.758 4.35979 78.3837 4.46407 78.1056 5.19403C77.9318 5.7502 77.5842 6.2716 76.8195 6.13256Z" fill="#FC4336"/>
<path d="M89.611 12.8066C87.734 12.1114 85.8569 11.4509 84.0146 10.7557C83.4585 10.5472 83.4237 10.0953 83.667 9.5739C84.7793 7.52306 85.8917 5.47222 86.9345 3.38661C87.2821 2.72617 87.6992 2.48285 88.3944 2.83045C88.6377 2.93473 88.881 3.03901 89.1244 3.14329C89.7848 3.35185 89.8891 3.80373 89.611 4.3599C89.1244 5.43746 88.6725 6.48026 88.1858 7.55782C88.012 7.90542 87.8035 8.25302 87.6297 8.56586C87.3168 9.15678 87.4211 9.53914 88.0816 9.7477C88.8463 10.0258 89.611 10.3386 90.3757 10.6515C90.8971 10.86 91.1057 11.2076 90.8276 11.7985C90.619 12.3199 90.4105 12.8761 89.611 12.8066Z" fill="#FC4336"/>
<path d="M36.2896 15.97C36.081 15.7614 35.8377 15.5528 35.6987 15.3095C35.1773 14.371 34.6559 13.3977 34.2387 12.4244C33.8216 11.4859 33.5088 10.4779 33.1264 9.50459C32.9179 8.98319 32.9874 8.67035 33.5783 8.53131C33.7521 8.49655 33.8911 8.39227 34.0649 8.35751C35.3511 7.90563 35.3511 7.90563 35.8725 9.12223C36.1853 9.88695 36.5329 10.6517 36.8805 11.3816C37.4714 12.5287 37.4714 12.494 38.6185 12.0421C39.3832 11.7292 40.1479 11.4512 40.9127 11.1731C41.2603 11.0688 41.6774 10.756 41.9207 11.2774C42.1293 11.764 42.4769 12.3202 41.9902 12.8416C41.7122 13.1196 41.3993 13.3282 41.0517 13.5368C39.6613 14.2667 38.3057 14.9967 36.9153 15.6919C36.7415 15.7962 36.5677 15.8657 36.2896 15.97Z" fill="#FC4336"/>
<path d="M31.8402 20.0714C31.3883 20.4885 31.0407 20.8361 30.6583 21.1837C29.7546 22.018 29.8588 22.1918 28.7465 21.0795C27.4604 19.7933 26.07 18.6115 24.7491 17.3601C23.8106 16.4911 23.8453 16.4564 24.8186 15.5874C26.2785 14.2665 26.2785 14.2665 27.6689 15.6917C28.8508 16.8735 30.0674 18.0901 31.2492 19.3067C31.423 19.5153 31.5968 19.7586 31.8402 20.0714Z" fill="#FC4336"/>
<path d="M116.759 25.9457C116.515 26.2933 116.411 26.5019 116.237 26.7105C115.299 27.788 114.395 28.9003 113.422 29.9431C112.379 31.0902 111.058 30.9512 110.293 29.6651C110.189 29.526 110.259 29.1437 110.398 29.0046C111.719 27.649 113.039 26.2586 114.43 24.9725C114.638 24.7639 115.195 24.6596 115.438 24.7987C115.89 25.0767 116.272 25.5286 116.759 25.9457Z" fill="#FC4336"/>
<path d="M119.887 50.3474C119.539 48.6441 118.74 48.1923 117.21 48.9917C114.812 50.2083 112.483 51.5292 110.119 52.8501C108.694 53.6496 108.069 54.8662 108.103 56.4999C108.242 63.591 108.277 70.7168 108.416 77.8078C108.451 78.9549 108.729 80.1367 108.799 81.2838C108.972 84.0299 109.077 86.8107 109.181 89.5915C109.216 90.1824 108.868 90.3562 108.347 90.2519C107.651 90.1129 106.991 89.9738 106.296 89.8348C105.253 89.5915 105.218 89.5915 105.253 88.4444C105.392 85.6288 105.531 82.848 105.357 80.0325C105.149 76.4522 105.392 72.8371 105.462 69.2568C105.462 68.5964 105.357 68.1098 104.766 67.6926C103.619 66.9279 102.507 66.0589 101.36 65.2942C100.526 64.7033 100.109 64.9118 100.004 65.9199C99.9695 66.4413 99.9347 66.9627 99.9695 67.4841C100.039 69.083 100.213 70.682 100.143 72.281C100.039 76.2784 99.8305 80.241 99.6914 84.2037C99.6567 84.8989 99.3786 85.1422 98.7181 85.0727C97.432 84.9336 96.1459 84.8293 94.825 84.6903C94.0951 84.6208 93.8865 84.2384 94.0603 83.5085C94.3036 82.3961 94.5469 81.3186 94.7555 80.2063C95.3117 77.1821 95.6245 74.0885 96.4935 71.1686C97.8491 66.5803 98.3358 61.8182 99.3438 57.1951C99.6567 55.7352 99.6914 54.2405 98.7877 52.7111C96.0069 48.227 92.7742 44.1253 89.5415 39.9889C88.9853 39.2589 88.9158 39.2589 88.2554 39.9889C86.4131 41.9702 84.6056 43.9515 82.798 45.8981C80.1563 48.7832 77.5145 51.6335 74.838 54.5186C74.4209 54.9705 74.1428 55.4223 74.2123 56.1175C74.4209 57.8903 74.5251 59.6631 74.6642 61.4358C74.838 63.591 74.9423 65.7808 75.2551 67.9012C75.8113 71.5858 76.576 75.2356 77.1321 78.9201C77.3755 80.5191 77.3755 82.1876 77.4798 83.8213C77.5145 84.586 77.2017 84.7598 76.4717 84.586C75.2899 84.3427 74.0733 84.2037 72.8567 84.0994C72.1962 84.0299 72.0919 83.7518 72.1615 83.1609C72.2657 82.3614 72.3005 81.5271 72.3353 80.6929C72.4048 78.9549 72.4395 77.2169 72.5438 75.5136C72.6133 73.7756 72.7176 72.0376 72.8219 70.3344C72.8567 69.6044 72.7176 69.2221 71.8834 69.1873C70.0063 69.083 68.1641 68.9092 66.287 68.7702C65.8351 68.7354 65.3833 68.7007 65.279 69.2916C65.0009 70.6125 64.5838 71.8986 64.4795 73.2195C64.2362 76.9736 64.1319 80.7624 63.9929 84.5165C63.9233 86.1155 63.9233 87.7144 63.8886 89.3134C63.8886 89.7305 63.8886 90.2172 63.2281 90.2172C62.1506 90.2172 61.073 90.2172 59.9954 90.2172C59.0569 90.2172 59.0917 90.2172 59.1612 89.2439C59.5088 85.2812 59.7869 81.3186 60.1345 77.3212C60.2388 76.0003 60.2735 74.6099 60.5864 73.3238C61.1425 70.8906 61.8377 68.4574 62.6025 66.0589C63.9929 61.6792 65.4528 57.3341 66.9475 52.9891C67.156 52.3287 67.156 51.8768 66.5999 51.3902C63.7148 48.8874 60.8644 46.35 57.9794 43.8472C56.5194 42.5611 55.998 42.5611 54.4338 43.6387C52.2092 45.2029 49.9845 46.8018 47.7599 48.366C46.0219 49.5827 44.2839 50.834 42.5459 52.0506C41.9897 52.433 41.5726 52.8501 41.6769 53.6496C42.1288 56.9865 42.5459 60.3583 42.963 63.6952C43.5539 68.9092 44.1449 74.1232 44.701 79.3025C44.9443 81.6662 44.9096 81.6662 42.5807 81.2838C41.5031 81.11 41.3641 81.0057 41.225 79.9282C40.9122 77.6688 40.6341 75.3746 40.356 73.1152C40.217 71.9681 40.2865 70.682 39.7999 69.674C38.8961 67.7622 37.7142 65.9894 35.8372 64.8076C35.2115 64.3904 34.8292 64.46 34.4468 65.0161C33.7168 66.0937 32.9869 67.1712 32.2569 68.2488C31.666 69.1178 31.4574 70.0216 31.4922 71.0644C31.527 74.7489 31.4922 78.4335 31.4922 82.1181C31.5617 82.1181 31.666 82.1181 31.7355 82.1181C31.7355 83.7518 31.7008 85.4203 31.7703 87.054C31.805 87.8882 31.4574 88.3054 30.7275 88.6182C29.5804 89.0701 28.4333 88.9658 27.2515 88.8268C26.5563 88.7572 26.5563 88.2706 26.591 87.6797C26.8691 85.1074 27.0429 82.5004 27.321 79.9282C27.7034 76.1393 28.051 72.3505 28.5376 68.5616C28.92 65.329 29.5109 62.131 29.8932 58.9331C30.1713 56.7432 30.1018 56.6389 27.9467 55.9437C23.8102 54.6229 19.639 53.441 15.5026 52.1201C14.5641 51.8421 14.4598 52.3982 14.3207 52.9891C13.5213 56.048 13.0694 59.1764 12.9999 62.3743C12.8261 69.4654 14.2165 76.2436 17.0668 82.7437C18.1096 85.1422 19.3957 87.5059 20.7861 89.7305C21.8637 91.4338 23.3583 92.8937 24.5749 94.5274C27.3905 98.4205 30.797 101.618 34.9682 104.017C38.2009 105.894 41.225 108.084 44.7358 109.439C47.4471 110.482 50.1931 111.456 52.8696 112.603C56.9713 114.375 61.2468 115.071 65.6613 115.244C70.5973 115.453 75.4637 115.105 80.2953 114.202C84.397 113.402 88.4987 112.533 92.2875 110.795C98.1967 108.084 103.689 104.747 108.173 99.8804C110.988 96.8216 113.561 93.6932 115.125 89.8C116.029 87.5059 117.071 85.2465 118.045 82.9871C118.948 80.9362 119.366 78.7811 119.574 76.5565C119.991 72.1767 120.269 67.7622 120.721 63.3476C121.243 58.9679 120.756 54.6576 119.887 50.3474ZM21.8289 71.0296C21.6551 71.8291 20.8904 71.412 20.508 71.551C19.2914 71.551 19.1524 71.3772 19.3262 70.2649C19.3957 69.8825 19.4305 69.5002 19.5695 69.1178C19.7085 68.7354 19.8476 68.1445 20.0909 68.075C20.6471 67.9707 21.2727 68.075 21.8637 68.214C22.0027 68.2488 22.1765 68.6312 22.1765 68.8397C22.0375 69.6044 22.0027 70.3344 21.8289 71.0296ZM23.3931 61.3316C23.2193 62.0615 23.0455 62.7567 22.8717 63.4867C22.7674 63.9733 22.5589 64.3209 22.0027 64.0776C21.6899 64.0428 21.4465 64.0081 21.2032 63.9733C20.4385 63.8343 20.1257 63.4867 20.2299 62.7567C20.3342 61.853 20.4733 60.9492 20.6818 60.0802C20.8209 59.4197 21.1685 59.0721 21.9679 59.2459C23.845 59.5935 23.845 59.524 23.3931 61.3316ZM49.1155 59.3155C49.0808 58.5507 48.9765 57.7513 49.1503 57.0213C49.2198 56.7085 49.8455 56.4999 50.2279 56.2566C50.2626 56.2218 50.2974 56.2218 50.3669 56.2218C51.9311 55.7699 51.9311 55.7699 51.8616 57.3689C51.8616 57.5079 51.8616 57.6122 51.8616 57.7513C51.7921 59.1417 50.9231 59.8369 49.5674 59.524C49.3936 59.4893 49.1155 59.385 49.1155 59.3155ZM51.7225 75.4789C51.5488 76.2436 50.784 75.8265 50.2974 75.896C49.8455 75.9655 49.5327 75.7917 49.5674 75.2356C49.5674 74.9227 49.5674 74.6446 49.5674 74.3318C49.5674 74.1232 49.5674 73.9147 49.5674 73.6714C49.6369 72.3157 50.3321 71.9334 51.514 72.6286C51.653 72.6981 51.8268 72.8719 51.8268 73.0109C51.8268 73.8799 51.8964 74.7142 51.7225 75.4789ZM51.6878 68.1445C51.0621 68.214 50.3321 68.3878 50.0193 67.5536C49.8107 66.9974 49.6022 66.4065 49.4631 65.8156C49.1155 64.3904 49.2198 64.2862 50.6797 64.1471C51.8616 64.0081 52.0006 64.1471 52.1049 65.3637C52.1744 65.9199 52.2092 66.476 52.2787 66.9974C52.2787 67.4841 52.383 68.075 51.6878 68.1445ZM55.998 75.2356C55.859 76.1046 55.2333 76.4869 54.4338 76.1741C54.26 76.1046 54.0515 75.896 54.0515 75.757C54.0167 75.027 53.982 74.297 54.0167 73.5671C54.0515 73.1847 55.1986 72.7676 55.7895 72.9762C56.0328 73.0804 56.1718 73.4976 56.2761 73.6018C56.1718 74.2971 56.1023 74.7489 55.998 75.2356ZM57.6318 66.9627C57.5275 67.3798 57.458 67.7969 57.3189 68.214C57.0408 69.1178 56.1718 69.5697 55.3028 69.1178C55.0248 68.9788 54.9205 68.5616 54.8162 68.4574C54.9552 67.3103 55.0595 66.4065 55.1986 65.5375C55.3028 64.8771 55.72 64.6685 56.3109 64.9118C57.9446 65.5028 58.0141 65.5723 57.6318 66.9627ZM58.5355 59.1764C57.9446 60.6016 58.0141 60.4278 56.5194 60.0107C56.2761 59.9411 56.1023 59.6283 55.998 59.524C56.2066 58.1684 56.3456 57.0561 56.5194 55.9437C56.6237 55.3528 56.9018 55.179 57.5275 55.3876C59.5436 56.048 59.5783 56.048 58.9179 58.0641C58.7788 58.4465 58.6746 58.8288 58.5355 59.1764ZM82.5547 56.5694C82.6242 56.5347 82.7285 56.4999 82.798 56.4651C84.2927 55.8395 84.2927 55.8742 84.4665 57.4037C84.5013 57.6122 84.536 57.8208 84.5708 58.0293C84.7446 59.3502 84.5708 59.5588 83.2847 59.5588C82.4852 59.5588 82.2419 59.2459 81.929 57.9946C81.7205 57.3689 81.8943 56.8475 82.5547 56.5694ZM84.3275 74.2971C84.2927 74.5056 84.258 74.7142 84.2232 74.9227C84.1189 75.3746 84.4318 76.1046 83.4237 76.0351C82.2071 75.9655 81.9986 75.8613 81.8595 74.8185C81.8248 74.6099 81.8248 74.4013 81.79 74.1928C81.7552 72.9762 81.8943 72.8371 83.0761 72.8371C84.3275 72.8371 84.5013 73.0457 84.3275 74.2971ZM83.7366 67.8317C82.4852 67.936 82.1028 67.6231 81.929 66.3718C81.79 65.4332 82.1028 64.9814 83.0066 64.8076C84.6056 64.46 84.6751 64.4947 84.6751 66.1632C84.6751 66.2327 84.6751 66.337 84.6751 66.4065C84.7098 67.6579 84.6403 67.7622 83.7366 67.8317ZM90.2019 74.8185C90.2019 75.3746 90.0977 75.8265 89.4025 75.9308C88.5335 76.035 88.012 75.896 87.8382 75.166C87.6992 74.4708 87.6992 73.7061 87.8035 73.0109C87.9078 72.3852 88.4987 72.2462 89.5415 72.3852C90.1672 72.4548 90.2019 72.8371 90.2019 73.289C90.2019 73.5323 90.2019 73.8104 90.2019 74.0537C90.2019 74.2971 90.2019 74.5751 90.2019 74.8185ZM90.6191 67.7274C90.5495 68.1793 90.5148 68.9788 90.3757 69.0135C89.8196 69.083 89.1939 68.9788 88.6377 68.7702C88.3944 68.7007 88.1858 68.214 88.1858 67.936C88.1858 67.345 88.2901 66.7194 88.4639 66.1632C88.5334 65.9546 88.9853 65.7113 89.1939 65.7461C90.619 66.0589 90.619 65.7461 90.5843 67.5884C90.619 67.6231 90.6191 67.6926 90.6191 67.7274ZM91.9052 57.4037C91.7314 58.2031 91.5228 59.0026 91.349 59.8021C91.1752 60.4973 90.6886 60.6364 90.0629 60.5668C89.4025 60.4625 88.8811 60.2192 88.9158 59.4197C88.9158 59.1069 88.9158 58.8288 88.9158 58.6898C88.9506 58.2727 88.9506 58.0641 88.9853 57.8555C89.2982 55.6309 88.8811 56.1871 91.0709 56.2913C91.7314 56.3261 92.079 56.6737 91.9052 57.4037ZM114.951 76.2436C114.916 76.5564 114.916 76.8693 114.847 77.1474C114.743 77.5645 114.603 78.0164 114.013 77.9816C113.491 77.9121 112.935 77.9469 112.796 77.2517C112.761 77.0083 112.692 76.7303 112.657 76.4869C112.553 75.1313 113.074 74.6446 114.395 75.1313C114.708 75.2356 114.847 75.7917 115.09 76.1393C115.055 76.1393 115.021 76.1741 114.951 76.2436ZM114.534 69.674C114.082 69.7435 113.248 69.7087 113.248 69.674C113.178 68.8745 113.074 68.0402 113.248 67.2755C113.283 67.067 114.291 66.8584 114.743 67.0322C115.055 67.1365 115.125 67.8317 115.229 68.075C115.125 68.8397 115.368 69.5349 114.534 69.674ZM115.194 62.722C115.125 62.9653 114.638 63.1391 114.36 63.3476C113.422 63.3129 113.005 63 113.074 62.131C113.074 61.992 113.039 61.8877 113.039 61.7487C112.796 60.1149 112.935 60.0107 114.499 59.8021C115.16 59.7326 115.403 59.9759 115.368 60.5321C115.333 61.2968 115.368 62.0267 115.194 62.722Z" fill="#FC4336"/>
<path d="M8.6206 76.73C5.666 76.7648 3.78896 78.7113 3.82372 81.7007C3.85848 84.3772 5.4922 86.428 8.34252 86.2195C11.7838 86.428 13.0699 83.7168 13.2437 81.0402C13.4175 78.468 11.3666 76.6952 8.6206 76.73ZM9.87197 83.1258C8.75964 83.9601 7.54304 83.9948 6.67404 83.1954C5.73552 82.3264 5.77028 81.1793 6.84784 80.4841C7.404 80.1365 8.0992 79.9974 8.72488 79.7541C9.87197 79.8932 10.4629 80.2408 10.741 81.0402C11.019 81.7702 10.7062 82.5349 9.87197 83.1258Z" fill="#FC4336"/>
<path d="M67.5039 4.67275C67.4691 4.11659 67.4343 3.56043 67.3996 3.00427C67.2953 1.68338 66.5306 0.814383 65.2792 0.501543C64.1669 0.223462 62.985 0.119182 61.838 0.014902C61.0732 -0.0893782 60.7952 0.362503 60.7256 1.09246C60.5866 2.86523 60.3433 4.60323 60.239 6.37599C60.1 8.56587 59.9262 8.32255 62.0813 8.77443C62.2898 8.80919 62.4984 8.87871 62.707 8.87871C65.2444 9.12204 67.7472 7.87067 67.5039 4.67275ZM64.0974 6.79311C63.6802 6.93215 63.4022 6.93215 63.3674 6.44551C63.2979 5.33319 63.1936 4.22087 63.1936 3.10855C63.1936 2.69143 63.5412 2.30907 63.715 1.9267C64.1669 2.20479 64.7926 2.41335 65.0359 2.83047C65.314 3.31711 65.314 3.97755 65.4183 4.56847C65.3835 5.85459 65.0011 6.48027 64.0974 6.79311Z" fill="#FC4336"/>
<path d="M14.2859 40.6145C13.3473 40.0584 13.4516 40.0236 13.9383 38.946C14.3901 38.0075 14.703 37.0342 15.0506 36.0957C14.9115 34.2882 13.8687 33.3844 12.0264 33.5582C10.5665 33.6973 9.52373 34.5315 8.75901 35.6786C8.16808 36.5128 7.82048 37.5209 7.1948 38.3551C6.63864 39.0851 6.91672 39.3284 7.50764 39.7455C9.03709 40.7536 10.5318 41.7616 11.9917 42.8392C13.8687 44.16 13.5211 44.0905 14.5987 42.3178C15.1549 41.4488 15.3982 41.3097 14.2859 40.6145ZM12.0264 38.4594C11.9222 38.6332 11.3312 38.7375 11.1574 38.6332C10.8446 38.4246 10.4275 37.8685 10.5318 37.6599C10.9141 36.8604 11.4355 36.1305 11.9917 35.4353C12.0612 35.331 12.5479 35.331 12.6521 35.4353C12.8607 35.6438 12.965 35.9914 13.104 36.3043C12.7217 37.1038 12.4436 37.8337 12.0264 38.4594Z" fill="#FC4336"/>
<path d="M126.179 87.506C125.519 86.0461 124.163 85.5247 122.634 85.6637C121.035 85.8028 119.714 86.5675 119.401 88.1665C119.123 89.4178 119.053 90.7735 119.262 91.9901C119.575 94.0061 121.521 95.2575 123.607 95.0837C125.866 94.8751 127.013 93.45 127.222 90.7735C126.84 89.6959 126.631 88.5488 126.179 87.506ZM123.92 92.4767C123.225 92.8243 122.599 92.6505 121.973 92.2334C120.618 91.2601 120.305 89.9045 121.139 88.6531C121.869 87.5408 123.329 87.4365 124.059 88.5141C124.511 89.1745 124.684 89.974 124.997 90.7039C124.928 91.5382 124.58 92.1291 123.92 92.4767Z" fill="#FC4336"/>
<path d="M122.286 33.5583C121.73 33.4888 121.174 33.5583 120.583 33.5583C120.583 33.5235 120.583 33.5235 120.583 33.4888C120.409 33.4888 120.235 33.4888 120.061 33.4888C118.149 33.315 116.377 33.9407 114.569 34.3578C113.7 34.5663 113.631 34.9139 114.187 35.6787C114.5 36.1305 114.917 36.5477 115.264 36.9995C115.577 37.4167 115.89 37.4514 116.377 37.1733C117.28 36.6519 117.42 36.7562 117.871 37.6947C118.15 38.2857 117.906 38.6333 117.489 38.9113C116.724 39.4327 116.863 39.9541 117.454 40.5103C117.628 40.6841 117.802 40.9274 117.976 41.0665C118.706 41.6921 119.053 41.6921 119.505 40.8579C120.687 38.7723 121.799 36.6867 122.877 34.5663C123.224 33.9059 123.051 33.6278 122.286 33.5583ZM119.47 36.4434C119.366 36.5824 119.123 36.6867 118.984 36.6519C118.879 36.6519 118.706 36.4086 118.706 36.2696C118.706 36.0958 118.845 35.8525 118.984 35.7829C119.227 35.6439 119.54 35.6091 120.096 35.4353C119.783 35.922 119.644 36.2001 119.47 36.4434Z" fill="#FC4336"/>
<path d="M101.395 10.721C100.631 10.0605 99.9007 9.40009 99.1012 8.80917C98.1279 8.07921 97.8151 8.18349 97.0851 9.15677C95.938 10.721 94.8257 12.3199 93.7134 13.9189C93.6091 14.0579 93.5048 14.197 93.4353 14.336C93.1225 14.7879 93.3658 15.1007 93.7134 15.3093C94.1653 15.5526 94.5824 16.4216 95.1038 15.8655C95.8685 15.066 96.5637 15.1355 97.398 15.5179C97.7108 15.6569 98.0584 15.6221 98.1974 15.6569C100.005 15.6569 101.534 14.4751 101.986 12.9109C102.23 12.1114 102.056 11.3467 101.395 10.721ZM99.6226 12.5633C99.414 12.9804 99.1012 13.3975 98.7188 13.6061C98.406 13.7451 97.9541 13.5365 97.537 13.5018C97.6065 13.1889 97.6065 12.8761 97.7456 12.598C97.9541 12.2157 98.2322 11.9028 98.5103 11.5552C98.6146 11.4162 98.7536 11.3467 98.8579 11.2771C99.3793 11.2424 99.9007 12.0766 99.6226 12.5633Z" fill="#FC4336"/>
<path d="M55.4427 8.74C54.087 6.79343 52.7314 4.81211 51.341 2.90031C50.611 1.89226 50.1591 1.96178 49.603 3.07411C49.5334 3.21315 49.4639 3.38695 49.4292 3.56075C48.8035 5.61159 48.1778 7.69719 47.5521 9.7828C47.4478 10.1999 47.2045 10.617 47.7954 10.8951C48.3864 11.1732 49.5682 10.9994 49.6377 10.5823C49.8115 9.74804 50.4025 9.74804 51.0281 9.74804C51.6538 9.74804 52.3143 9.67852 52.9052 9.81756C53.4961 9.99136 55.1298 9.9566 55.5469 9.53948C55.6165 9.46996 55.6512 9.33092 55.7207 9.22664C55.6165 9.01808 55.5469 8.87904 55.4427 8.74ZM50.8891 8.25335C50.75 8.25335 50.472 7.97527 50.5067 7.83623C50.5763 7.21055 50.75 6.61963 50.8891 5.99395C50.9586 5.99395 51.0281 5.99395 51.0977 5.95919C51.2715 6.34155 51.48 6.68915 51.6191 7.10627C51.8971 7.87099 51.6886 8.25335 50.8891 8.25335Z" fill="#FC4336"/>
<path d="M117.071 116.009C114.916 116.009 113.143 117.677 113.178 119.728C113.213 121.779 114.986 123.413 117.141 123.378C119.226 123.343 120.93 121.709 120.964 119.728C120.964 117.677 119.226 116.009 117.071 116.009ZM117.071 122.509C115.264 122.474 113.839 121.188 113.908 119.589C113.978 118.06 115.438 116.843 117.176 116.878C118.844 116.913 120.339 118.233 120.304 119.728C120.269 121.223 118.74 122.509 117.071 122.509Z" fill="#FC4336"/>
<path d="M118.741 119.485C118.845 118.095 118.636 117.851 117.211 117.817C115.438 117.782 115.438 117.782 115.438 119.589C115.438 119.972 115.404 121.084 115.438 121.466C115.786 121.466 115.96 121.466 116.203 121.466C116.203 121.223 116.238 120.91 116.238 120.806C116.238 120.041 116.655 119.972 117.246 120.006C118.011 120.006 117.976 120.563 118.115 121.049C118.15 121.223 118.462 121.362 118.636 121.501C118.74 121.293 118.88 121.084 118.88 120.875C118.88 120.424 118.706 119.937 118.741 119.485ZM117.107 119.589C116.794 119.311 116.551 119.068 116.307 118.859C116.585 118.72 116.829 118.477 117.107 118.442C117.489 118.373 117.976 118.373 117.941 118.929C117.906 119.137 117.489 119.311 117.107 119.589Z" fill="#FC4336"/>
</svg>
