<svg width="166" height="46" viewBox="0 0 166 46" fill="none" xmlns="http://www.w3.org/2000/svg">
<g clip-path="url(#clip0)">
<path d="M4.20521 41.0939C4.42654 41.5073 4.73087 41.8656 5.09054 42.1137C5.45021 42.3893 5.89287 42.5822 6.36321 42.6925C6.86121 42.8303 7.35921 42.8854 7.88487 42.8854C8.24454 42.8854 8.63187 42.8578 9.01921 42.8027C9.40654 42.7476 9.79387 42.6374 10.1535 42.472C10.5132 42.3066 10.8175 42.0586 11.0389 41.783C11.2879 41.4798 11.3985 41.1215 11.3985 40.6529C11.3985 40.1568 11.2325 39.771 10.9282 39.4678C10.6239 39.1646 10.2089 38.9166 9.68321 38.6961C9.12987 38.4756 8.54887 38.3102 7.94021 38.1724C7.27621 38.007 6.63987 37.8417 5.97587 37.6763C5.31187 37.5109 4.64787 37.2904 3.98387 37.0424C3.37521 36.8219 2.79421 36.4912 2.24087 36.1053C1.74287 35.7194 1.30021 35.2233 0.995874 34.6445C0.69154 34.0658 0.52554 33.3492 0.52554 32.5223C0.52554 31.5852 0.719207 30.7859 1.13421 30.0969C1.52154 29.4079 2.04721 28.8291 2.71121 28.3881C3.34754 27.9196 4.09454 27.5888 4.89687 27.3683C5.69921 27.1478 6.50154 27.0376 7.33154 27.0376C8.24454 27.0376 9.15754 27.1478 10.0705 27.3408C10.9559 27.5613 11.7305 27.892 12.3945 28.3605C13.0585 28.8291 13.6119 29.463 13.9992 30.1796C14.3865 30.9238 14.6079 31.8057 14.6079 32.8531H10.7345C10.7069 32.3018 10.5962 31.8608 10.4025 31.5025C10.2089 31.1718 9.95987 30.8686 9.62787 30.6757C9.29587 30.4552 8.90854 30.3174 8.52121 30.2347C8.07854 30.152 7.60821 30.0969 7.16554 30.0969C6.83354 30.0969 6.52921 30.1245 6.19721 30.2072C5.89287 30.2623 5.58854 30.4001 5.31187 30.5655C5.06287 30.7308 4.84154 30.9513 4.67554 31.1994C4.50954 31.4474 4.42654 31.7782 4.42654 32.164C4.42654 32.5223 4.48187 32.7979 4.62021 33.0184C4.75854 33.2389 5.03521 33.4318 5.42254 33.6248C5.80987 33.8177 6.36321 34.0106 7.08254 34.176C7.77421 34.3689 8.71487 34.5894 9.84921 34.8926C10.1812 34.9477 10.6515 35.0855 11.2602 35.2509C11.8689 35.4163 12.4499 35.7194 13.0585 36.1053C13.6395 36.4912 14.1652 37.0148 14.6079 37.6763C15.0505 38.3378 15.2442 39.1646 15.2442 40.1844C15.2442 41.0112 15.0782 41.7829 14.7739 42.4995C14.4419 43.2161 13.9715 43.8225 13.3352 44.3462C12.6989 44.8698 11.9242 45.2557 10.9835 45.5589C10.0429 45.8345 8.96387 45.9998 7.71887 45.9998C6.72287 45.9998 5.75454 45.8896 4.81387 45.6415C3.87321 45.3935 3.04321 45.0076 2.32387 44.484C1.60454 43.9603 1.02354 43.2713 0.60854 42.472C0.19354 41.6727 -0.0277929 40.7081 -0.000126274 39.578H3.87321C3.87321 40.1568 3.98387 40.6529 4.20521 41.0939ZM23.7932 32.4396V34.8375H21.1372V41.3144C21.1372 41.9208 21.2479 42.3342 21.4415 42.5271C21.6352 42.72 22.0502 42.8303 22.6589 42.8303C22.8525 42.8303 23.0462 42.8303 23.2399 42.8027C23.4335 42.7752 23.5995 42.7476 23.7655 42.72V45.5037C23.4612 45.5589 23.1292 45.5864 22.7419 45.614C22.3545 45.6415 21.9949 45.6415 21.6352 45.6415C21.0819 45.6415 20.5562 45.614 20.0582 45.5313C19.5602 45.4486 19.1175 45.3108 18.7302 45.0903C18.3429 44.8698 18.0385 44.5391 17.8172 44.1532C17.5959 43.7398 17.4852 43.2161 17.4852 42.5547V34.8375H15.2995V32.4396H17.4852V28.5259H21.1095V32.4396C21.1649 32.4396 23.7932 32.4396 23.7932 32.4396ZM28.3029 32.4396V34.865H28.3582C28.5242 34.4516 28.7732 34.0658 29.0499 33.735C29.3265 33.4043 29.6585 33.1011 30.0459 32.8531C30.4055 32.605 30.8205 32.4121 31.2355 32.2743C31.6505 32.1365 32.1209 32.0813 32.5635 32.0813C32.8125 32.0813 33.0615 32.1365 33.3382 32.2191V35.5541C33.1445 35.5265 32.9232 35.4989 32.7295 35.4714C32.5082 35.4438 32.2592 35.4438 32.0379 35.4438C31.3739 35.4438 30.8205 35.5541 30.3502 35.7746C29.8799 35.9951 29.5202 36.2982 29.2435 36.6841C28.9669 37.07 28.7732 37.5109 28.6349 38.007C28.5242 38.5031 28.4689 39.0544 28.4689 39.6607V45.5589H24.8445V32.4672L28.3029 32.4396ZM33.9745 36.4636C34.0299 35.6092 34.2512 34.9202 34.6109 34.3689C34.9705 33.8177 35.4685 33.3492 36.0219 33.0184C36.6029 32.6877 37.2392 32.4396 37.9585 32.3018C38.6779 32.164 39.3972 32.0813 40.1442 32.0813C40.8082 32.0813 41.4722 32.1365 42.1639 32.2191C42.8555 32.3018 43.4642 32.4948 44.0175 32.7704C44.5709 33.0184 45.0412 33.4043 45.4009 33.9004C45.7605 34.3689 45.9265 35.0304 45.9265 35.8021V42.6098C45.9265 43.1886 45.9542 43.7674 46.0372 44.3186C46.0925 44.8698 46.2309 45.2557 46.3969 45.5313H42.7449C42.6895 45.3384 42.6342 45.1179 42.5789 44.8974C42.5235 44.6769 42.4959 44.4564 42.4959 44.2635C41.9425 44.8423 41.2232 45.2832 40.4485 45.5037C39.6739 45.7518 38.8715 45.862 38.0692 45.862C37.4882 45.862 36.8795 45.7794 36.3262 45.6415C35.7729 45.4762 35.3025 45.2557 34.9152 44.9249C34.5002 44.5942 34.1682 44.1808 33.9745 43.7122C33.7532 43.2161 33.6425 42.6374 33.6425 41.9759C33.6425 41.2317 33.7809 40.6254 34.0299 40.1293C34.2789 39.6607 34.6385 39.2749 35.0535 38.9717C35.4685 38.6961 35.9389 38.4756 36.4645 38.3378C36.9902 38.2 37.5435 38.0897 38.0692 38.007C38.5949 37.9244 39.1482 37.8692 39.6739 37.8141C40.1442 37.759 40.6145 37.7039 41.0849 37.5936C41.4999 37.4834 41.8042 37.3456 42.0532 37.1526C42.3022 36.9597 42.4129 36.6841 42.3852 36.2982C42.3852 35.9124 42.3299 35.6092 42.1915 35.3611C42.0809 35.1407 41.8872 34.9477 41.6935 34.8375C41.4722 34.6997 41.2232 34.617 40.9465 34.5894C40.6422 34.5343 40.3379 34.5343 40.0335 34.5343C39.3142 34.5343 38.7609 34.6997 38.3459 35.0028C37.9309 35.306 37.7095 35.8021 37.6265 36.5187L33.9745 36.4636ZM42.3022 39.1371C42.1362 39.2749 41.9425 39.3851 41.7212 39.4402C41.4999 39.5229 41.2509 39.578 40.9742 39.6332C40.6975 39.6883 40.4485 39.7158 40.1442 39.771C39.8675 39.7985 39.5632 39.8537 39.2865 39.9088C39.0099 39.9639 38.7609 40.019 38.4842 40.1017C38.2352 40.1844 38.0139 40.2946 37.7925 40.4324C37.5989 40.5702 37.4329 40.7632 37.3222 40.9837C37.2115 41.2042 37.1562 41.4798 37.1562 41.8105C37.1562 42.1412 37.2115 42.3893 37.3222 42.6098C37.4329 42.8303 37.5989 42.9957 37.7925 43.1335C37.9862 43.2713 38.2352 43.3539 38.5119 43.4091C38.7885 43.4642 39.0652 43.4918 39.3419 43.4918C40.0612 43.4918 40.6145 43.3815 41.0019 43.1335C41.3892 42.8854 41.6935 42.6098 41.8595 42.2791C42.0532 41.9483 42.1639 41.6176 42.1915 41.2868C42.2469 40.9561 42.2469 40.6805 42.2469 40.4876L42.3022 39.1371ZM57.0209 43.8776C56.6059 44.5942 56.0525 45.0903 55.3609 45.4211C54.6692 45.7242 53.8945 45.8896 53.0369 45.8896C52.0409 45.8896 51.1832 45.6967 50.4362 45.3108C49.6892 44.9249 49.0805 44.4288 48.5825 43.7674C48.1122 43.1059 47.7249 42.3617 47.4759 41.5349C47.2269 40.6805 47.1162 39.7985 47.1162 38.889C47.1162 38.007 47.2269 37.1526 47.4759 36.3534C47.7249 35.5265 48.0845 34.8099 48.5825 34.176C49.0805 33.5421 49.6892 33.0184 50.4085 32.6601C51.1279 32.2743 51.9855 32.0813 52.9539 32.0813C53.7285 32.0813 54.4755 32.2467 55.1672 32.5774C55.8589 32.8806 56.4399 33.4043 56.8272 34.0382H56.8825V27.451H60.5069V45.5313H57.0762V43.8501H57.0209V43.8776ZM56.8549 37.4007C56.7442 36.9046 56.5782 36.4636 56.3292 36.0777C56.0802 35.6919 55.7482 35.3887 55.3885 35.1407C55.0012 34.8926 54.5032 34.7824 53.9222 34.7824C53.3412 34.7824 52.8155 34.8926 52.4282 35.1407C52.0409 35.3611 51.6812 35.6919 51.4599 36.0777C51.2109 36.4636 51.0449 36.9046 50.9342 37.4007C50.8235 37.8968 50.7682 38.4205 50.7682 38.9717C50.7682 39.4678 50.8235 39.9915 50.9342 40.4876C51.0449 40.9837 51.2385 41.4522 51.5152 41.8381C51.7642 42.2239 52.0962 42.5547 52.5112 42.8027C52.8985 43.0508 53.3965 43.161 53.9499 43.161C54.5309 43.161 55.0289 43.0508 55.4439 42.8027C55.8312 42.5822 56.1632 42.2515 56.3845 41.8656C56.6335 41.4798 56.7995 41.0112 56.8825 40.5151C56.9932 40.019 57.0485 39.4954 57.0485 38.9441C57.0485 38.3929 56.9655 37.8968 56.8549 37.4007ZM61.9179 36.4636C61.9732 35.6092 62.1945 34.9202 62.5542 34.3689C62.9139 33.8177 63.4119 33.3492 63.9652 33.0184C64.5462 32.6877 65.1825 32.4396 65.9019 32.3018C66.6212 32.164 67.3405 32.0813 68.0875 32.0813C68.7515 32.0813 69.4155 32.1365 70.1072 32.2191C70.7989 32.3018 71.4075 32.4948 71.9609 32.7704C72.5142 33.0184 72.9845 33.4043 73.3442 33.9004C73.7039 34.3689 73.8699 35.0304 73.8699 35.8021V42.6098C73.8699 43.1886 73.8975 43.7674 73.9805 44.3186C74.0359 44.8698 74.1742 45.2557 74.3402 45.5313H70.6882C70.5499 45.1179 70.4669 44.7045 70.4392 44.2635C69.8859 44.8423 69.1665 45.2832 68.3919 45.5037C67.6172 45.7518 66.8149 45.862 66.0125 45.862C65.3762 45.862 64.7952 45.7794 64.2695 45.6415C63.7439 45.5037 63.2735 45.2557 62.8585 44.9249C62.4435 44.5942 62.1115 44.1808 61.9179 43.7122C61.6965 43.2161 61.5859 42.6374 61.5859 41.9759C61.5859 41.2317 61.7242 40.6254 61.9732 40.1293C62.2222 39.6607 62.5819 39.2749 62.9969 38.9717C63.4119 38.6961 63.8822 38.4756 64.4079 38.3378C64.9335 38.2 65.4869 38.0897 66.0125 38.007C66.5382 37.9244 67.0915 37.8692 67.6172 37.8141C68.0875 37.759 68.5579 37.7039 69.0282 37.5936C69.4432 37.4834 69.7475 37.3456 69.9965 37.1526C70.2455 36.9597 70.3562 36.6841 70.3285 36.2982C70.3285 35.9124 70.2732 35.6092 70.1349 35.3611C70.0242 35.1407 69.8305 34.9477 69.6369 34.8375C69.4155 34.6997 69.1665 34.617 68.8899 34.5894C68.5855 34.5343 68.2812 34.5343 67.9769 34.5343C67.2575 34.5343 66.7042 34.6997 66.2892 35.0028C65.8742 35.306 65.6529 35.8021 65.5699 36.5187L61.9179 36.4636ZM70.2455 39.1371C70.0795 39.2749 69.9135 39.3851 69.6645 39.4402C69.4155 39.4954 69.1942 39.578 68.9175 39.6332C68.6685 39.6883 68.3919 39.7158 68.0875 39.771C67.8109 39.7985 67.5065 39.8537 67.2299 39.9088C66.9532 39.9639 66.7042 40.019 66.4275 40.1017C66.1785 40.1844 65.9572 40.2946 65.7359 40.4324C65.5422 40.5702 65.3762 40.7632 65.2655 40.9837C65.1549 41.2042 65.0995 41.4798 65.0995 41.8105C65.0995 42.1412 65.1549 42.3893 65.2655 42.6098C65.3762 42.8303 65.5422 42.9957 65.7359 43.1335C65.9295 43.2713 66.1785 43.3539 66.4552 43.4091C66.7319 43.4642 67.0085 43.4918 67.2852 43.4918C68.0045 43.4918 68.5579 43.3815 68.9452 43.1335C69.3325 42.8854 69.6369 42.6098 69.8029 42.2791C69.9689 41.9759 70.1072 41.6176 70.1349 41.2868C70.1625 41.0112 70.1902 40.7356 70.1902 40.4876L70.2455 39.1371Z" fill="#FC4336"/>
<path d="M102.671 15.2969H106.489V17.0333H102.671V19.0453H106.489V20.7816H100.928V11.6864H106.489V13.4227H102.671C102.671 13.3676 102.671 15.2969 102.671 15.2969ZM107.983 20.7541V11.6588H111.413C113.599 11.6588 114.872 13.0093 114.872 15.0213V17.3916C114.872 19.4036 113.627 20.7541 111.413 20.7541H107.983ZM113.129 15.0213C113.129 13.974 112.382 13.3952 111.441 13.3952H109.753V19.0453H111.441C112.382 19.0453 113.129 18.4665 113.129 17.4191C113.129 17.3916 113.129 15.0213 113.129 15.0213ZM123.061 11.6312V17.5018C123.061 19.5138 121.816 20.8643 119.603 20.8643C117.417 20.8643 116.144 19.5138 116.144 17.5018V11.6312H117.887V17.5018C117.887 18.5492 118.634 19.1279 119.575 19.1279C120.516 19.1279 121.263 18.5492 121.263 17.5018V11.6312H123.061ZM131.278 17.6948C131.195 19.5965 129.95 20.8643 127.82 20.8643C125.634 20.8643 124.361 19.5138 124.361 17.5018V14.8835C124.361 12.8715 125.606 11.521 127.82 11.521C129.95 11.521 131.195 12.7888 131.278 14.6906H129.507C129.424 13.7535 128.705 13.2574 127.82 13.2574C126.879 13.2574 126.132 13.8362 126.132 14.8835V17.5018C126.132 18.5492 126.879 19.1279 127.82 19.1279C128.705 19.1279 129.424 18.6318 129.507 17.6948H131.278ZM134.183 18.9075L133.519 20.7541H131.693L134.958 11.6588H136.618L139.882 20.7541H138.056L137.392 18.9075H134.183ZM135.815 14.3047L134.792 17.2538H136.839L135.815 14.3047ZM144.226 13.3676V20.7541H142.428V13.3676H139.882V11.6312H146.771V13.3676H144.226ZM149.372 20.7541H147.629V11.6588H149.372V20.7541ZM154.241 20.8919C152.056 20.8919 150.783 19.5414 150.783 17.5294V14.911C150.783 12.8991 152.028 11.5486 154.241 11.5486C156.427 11.5486 157.7 12.8991 157.7 14.911V17.5294C157.7 19.5138 156.427 20.8919 154.241 20.8919ZM155.929 14.8835C155.929 13.8362 155.182 13.2574 154.241 13.2574C153.301 13.2574 152.554 13.8362 152.554 14.8835V17.5018C152.554 18.5492 153.301 19.1279 154.241 19.1279C155.182 19.1279 155.929 18.5492 155.929 17.5018V14.8835ZM166 20.7541H164.257L160.854 14.8835V20.7541H159.111V11.6588H160.854L164.257 17.5018V11.6312H166V20.7541ZM107.817 35.1962H106.074L102.671 29.3257V35.1962H100.928V26.101H102.671L106.074 31.9716V26.101H107.817V35.1962ZM111.275 29.7391H115.093V31.4755H111.275V33.4874H115.093V35.2238H109.532V26.1285H115.093V27.8649H111.275V29.7391ZM120.045 27.8374V35.2238H118.247V27.8374H115.702V26.101H122.591V27.8374H120.045ZM127.488 29.932L126.326 35.2238H124.444L122.757 26.1285H124.527L125.579 32.3023L126.658 27.4239H128.345L129.424 32.3023L130.476 26.1285H132.246L130.559 35.2238H128.677L127.488 29.932ZM136.424 35.3341C134.238 35.3341 132.966 33.9835 132.966 31.9716V29.3532C132.966 27.3412 134.211 25.9907 136.424 25.9907C138.61 25.9907 139.882 27.3412 139.882 29.3532V31.9716C139.882 33.9835 138.637 35.3341 136.424 35.3341ZM138.139 29.3257C138.139 28.2783 137.392 27.6995 136.452 27.6995C135.511 27.6995 134.764 28.2783 134.764 29.3257V31.944C134.764 32.9913 135.511 33.5701 136.452 33.5701C137.392 33.5701 138.139 32.9913 138.139 31.944V29.3257ZM143.064 31.4479V35.1962H141.321V26.101H145.167C147.02 26.101 148.044 27.1483 148.044 28.7744C148.044 30.1249 147.352 31.062 146.08 31.3652L148.348 35.1962H146.329L144.115 31.4479H143.064ZM145.194 27.8374H143.064V29.7666H145.194C145.858 29.7666 146.301 29.4359 146.301 28.802C146.301 28.1681 145.858 27.8374 145.194 27.8374ZM151.143 35.1962H149.372V26.101H151.143V30.0423L154.49 26.101H156.731L153.522 29.8493L157.063 35.1962H154.933L152.332 31.255L151.17 32.633L151.143 35.1962Z" fill="#FC4336"/>
<path d="M40.3102 5.12657C40.3102 6.75269 49.9382 10.253 49.9382 14.3321C49.9382 18.4112 38.4842 22.6281 34.7769 22.6281L39.0929 24.3369L69.9135 12.2099L47.3099 3.36264C47.3099 3.33508 40.3102 3.61069 40.3102 5.12657Z" fill="#FC4336"/>
<path d="M34.2513 5.45705C34.2513 8.02026 39.425 9.42589 39.425 12.4025C39.425 17.5565 20.1413 16.895 20.1413 16.895L8.24463 12.2372L39.0653 0.137695L45.0136 2.48042C45.0413 2.45285 34.2513 2.9214 34.2513 5.45705Z" fill="#FC4336"/>
<path d="M87.6484 0H86.5693V45.9449H87.6484V0Z" fill="#FC4336"/>
</g>
<defs>
<clipPath id="clip0">
<rect width="166" height="46" fill="white"/>
</clipPath>
</defs>
</svg>
