<svg width="139" height="106" viewBox="0 0 139 106" fill="none" xmlns="http://www.w3.org/2000/svg">
<g clip-path="url(#clip0)">
<path d="M109.276 52.5538C109.546 51.4534 109.757 50.6206 109.997 49.6391C109.396 49.1633 108.735 48.5982 107.984 47.9736C107.232 48.5684 106.541 49.1335 105.79 49.7284C106.03 50.0853 106.15 50.4422 106.421 50.6206C107.473 51.3642 107.533 52.4349 107.533 53.5353C107.503 55.7065 107.473 57.9074 107.413 60.0785C107.413 60.257 107.353 60.4652 107.292 60.7626H102.334C102.303 58.4427 102.273 56.1526 102.243 53.7138C98.727 54.2789 96.0823 53.2379 94.3992 50.1447C91.3037 52.4646 89.5305 54.4276 85.353 53.1487C84.8721 55.7065 85.5333 58.175 85.3229 60.7923H77.5389C76.2766 62.101 76.1865 63.6178 75.9761 65.1346C74.5936 65.0454 74.233 63.826 73.4516 63.1122C72.9406 64.629 72.5199 66.1161 71.8887 67.514C71.2877 68.9118 70.4462 70.1908 69.6648 71.5886C69.4844 71.4697 69.244 71.4102 69.1839 71.2615C68.4926 70.1313 67.8916 68.9118 67.1102 67.8709C66.0883 66.5028 65.4872 64.9859 65.1867 63.1122C64.4353 63.7665 63.8343 64.2721 63.0529 64.9562C62.6321 63.5286 62.2715 62.3389 61.8507 60.941H51.8728C51.8126 58.8888 51.2116 57.0151 53.135 55.6172C53.676 55.2306 54.0968 54.725 53.6459 53.7138C50.0395 53.1189 46.2526 53.6543 42.6161 53.0594V49.996C42.6161 49.6391 42.7964 49.3417 43.0669 49.1335L43.3374 48.9551C43.5177 48.8361 43.5177 48.5982 43.3374 48.4792C42.586 47.9141 41.2336 47.8546 40.0916 48.3305C39.8812 48.4197 39.8511 48.7171 40.0615 48.8361L40.7528 49.2822C41.0232 49.4607 41.1435 49.7581 41.1134 50.0555C40.9932 50.9775 40.873 51.9887 40.7227 53.0892H36.6654C36.1545 53.9517 36.6053 54.487 37.0561 54.7845C38.7992 55.8552 39.0697 57.3125 38.5287 59.1268C38.4386 59.4539 38.4686 59.8108 38.4085 60.2272C37.2965 60.2867 36.2146 60.3462 34.8922 60.4354C33.2993 58.6807 31.6764 56.7474 29.9032 54.9629C28.1601 53.2082 26.2667 51.6021 24.3132 49.7878C20.9772 53.1487 17.8516 57.0151 14.8462 60.4949C12.2615 60.4949 10.0074 60.3165 7.78345 60.5544C5.5895 60.7626 3.42561 61.4169 1.26172 61.7738C4.44745 59.6919 8.1441 59.2755 11.961 58.6807V45.9511C13.2533 45.1778 14.3653 44.5235 15.5374 43.8395V35.3928C16.7696 35.2441 17.9718 35.0656 19.0237 34.9466C19.9854 33.638 19.0237 32.835 18.5729 31.9725C19.745 31.3479 24.7339 31.3181 28.4306 31.8535C28.4907 35.3928 28.5508 38.9915 28.6109 42.7985C29.3322 42.8282 29.9032 42.858 30.5644 42.9175C31.0453 39.1997 31.0753 35.7497 31.1956 32.0617C31.2256 31.0802 31.466 30.3367 32.2775 29.7418C32.7884 29.3552 33.2693 28.8793 33.7802 28.4927C34.772 27.7194 35.4632 26.8569 35.3731 25.4887C35.343 25.0426 35.6135 24.4775 35.914 24.1801C36.8457 23.2878 37.026 22.2766 36.7856 21.0572C36.6654 20.5516 36.7556 19.9865 36.8157 19.4511C36.8457 19.2429 37.0862 19.0942 37.2665 18.886C37.9277 19.2727 37.8375 19.8973 37.8075 20.3731C37.7774 21.5925 38.1982 22.693 38.649 23.7934C38.9495 24.5073 39.0397 25.34 39.0397 26.1133C39.0397 26.7379 39.2801 27.3625 39.7309 27.8086C42.2555 30.3961 42.2855 30.4259 42.2855 33.9949C42.3156 36.7609 42.015 39.4972 42.3156 42.2929C44.3292 41.7278 45.2909 40.5679 45.351 38.7833C45.4111 35.9579 45.5614 33.1324 45.5915 30.3069C45.5013 25.7267 45.351 21.1167 45.5013 16.5067C45.5013 16.0903 45.8319 15.6144 46.1324 15.2575C46.3729 14.9601 46.7636 14.8114 47.1242 14.5437C46.7035 13.5622 46.3128 12.67 45.8319 11.5101C47.3947 11.2721 48.9575 11.8075 49.5285 10.1122C49.8591 9.01174 50.1897 7.94103 50.4602 6.84059C50.6405 6.09704 50.7307 5.38323 51.5722 4.99659C52.5039 5.59143 52.7744 6.51342 52.8645 7.52465C53.0148 9.01174 53.706 10.2312 54.6678 11.3911H57.4929C58.0038 12.7295 57.012 13.7407 56.9218 14.9601C57.553 15.5252 58.154 16.2985 58.1841 17.1313C58.2142 23.1391 57.7333 29.1172 58.0038 35.1251C60.0475 34.5897 59.7169 33.2514 59.6868 31.675C59.6868 28.4629 59.6868 25.2508 59.6868 21.9792C60.2879 21.4736 60.8289 20.9382 61.4299 20.5218C62.2414 19.9567 62.572 19.2132 62.5419 18.2317C62.3316 15.4062 62.6021 15.4062 65.0064 13.8597C65.0064 13.2648 65.0665 12.551 64.9763 11.8075C64.8561 10.7665 65.2468 10.023 66.2085 9.6958C67.4408 9.24967 68.0118 8.47639 68.1019 7.16775C68.3123 4.66943 68.5528 2.52802 69.0036 -0.0297852C69.3041 0.475827 69.5445 0.654278 69.5445 0.892213C69.5746 1.63576 69.6347 2.37931 69.5445 3.12285C69.3041 4.84788 69.7249 6.48368 70.2959 8.06C71.0172 9.72555 73.2412 9.6958 73.0007 11.9859C72.8805 13.4433 73.121 14.7222 74.5035 15.6144C75.1045 16.0011 75.345 16.7149 75.1947 17.4584C74.9543 19.3322 74.7739 21.2059 76.8176 22.2469C77.6291 22.693 77.8695 23.4663 77.7493 24.418C77.5389 26.5892 77.3285 28.7603 77.2684 30.9315C77.2083 32.8945 77.3586 34.8574 77.4187 37.1773L79.1017 35.8984C79.823 31.2587 79.7028 26.6487 79.7028 22.0387C79.7028 19.9567 79.7629 17.8748 79.8531 15.7929C79.8831 15.2278 80.0334 14.633 80.1536 14.0084C80.8148 13.8597 81.3858 13.7704 82.1372 13.6217C82.6782 12.551 83.0689 11.2721 83.4896 10.1419C84.1508 8.53587 84.3311 8.47639 86.0743 8.71432C86.8256 8.83329 87.2464 9.16045 87.3966 9.904C87.6972 11.1234 88.0278 12.2833 88.3584 13.5325C89.1097 13.6217 89.7709 13.6812 90.6124 13.7704C91.0632 21.4438 90.6425 29.1172 90.7326 36.8204C90.7326 37.445 90.8829 38.0398 90.943 38.5752C91.7244 38.9023 92.1151 38.6941 92.2353 38.0993C92.3556 37.5639 92.4758 37.0286 92.4758 36.4932C92.5058 33.9652 92.5058 31.4668 92.5359 28.9388C92.5659 26.7081 92.5659 26.7081 94.6998 25.9349C95.1506 24.5667 95.0003 23.0499 94.82 21.6223C94.6697 20.4029 94.9402 19.7188 96.0222 19.0942C97.3145 18.2912 98.4565 17.2205 99.6888 16.2688C100.981 16.4769 101.402 17.7261 102.303 18.3804C103.235 19.0347 104.107 19.808 105.219 20.73V25.578C105.82 25.8754 106.241 26.0538 106.721 26.2918C107.112 27.6599 106.902 29.0875 106.812 30.5151C106.631 33.1919 106.421 35.8389 106.241 38.5157C106.21 39.051 106.09 39.7053 107.052 40.1217C107.172 38.1885 107.112 37.7424 108.915 36.8204C109.456 35.2738 109.426 33.6083 109.336 31.9427C109.276 30.9018 109.306 30.9018 110.118 29.9798C112.552 30.6043 115.137 29.5336 117.871 30.1879C118.052 31.7345 118.022 33.1324 118.082 34.6492C118.112 36.0174 118.503 37.1178 119.795 37.8911C120.727 38.4264 121.057 39.3782 120.997 40.4489C120.757 44.0774 120.787 47.5275 120.817 51.2154H121.989C121.748 50.6503 121.568 50.2042 121.298 49.6391C122.319 48.6874 123.341 47.6762 124.393 46.7244C124.904 46.2783 125.445 46.4865 125.836 46.9624C126.737 48.0033 127.609 49.074 128.601 50.2637C127.699 51.5426 126.317 52.4646 126.557 54.1896C126.707 55.7065 126.707 57.253 126.798 58.9483C129.562 59.1863 132.207 59.6919 134.912 60.1975C136.234 60.4652 136.926 60.941 137.857 61.9523C133.95 60.6139 129.893 60.5246 125.776 60.5246C125.625 59.9596 125.385 59.5432 125.595 59.0673C126.136 57.6992 126.226 56.2121 125.686 54.844C124.784 52.5538 126.016 51.4831 127.158 50.0555C126.467 49.4309 125.836 48.8658 125.084 48.152C124.303 48.7469 123.582 49.2525 122.89 49.7581C123.041 50.7098 124.153 51.3344 123.341 52.5241C118.923 52.6133 114.295 52.7918 109.276 52.5538ZM66.9899 14.6032C65.9681 15.3765 64.2851 15.9119 64.6758 17.4287C65.1266 19.3322 64.1949 20.5516 62.8124 21.5925C62.6622 21.7115 62.5119 21.8602 62.3616 21.9792C61.3398 22.6038 61.1294 23.615 61.0993 24.6857C61.0993 30.4259 60.9491 36.1661 60.8289 41.8765C60.8289 42.5606 60.6786 43.1257 59.6868 43.3339C58.8453 41.014 59.5666 38.7239 59.5365 36.3743C58.4846 36.523 57.553 37.8911 56.6513 36.3743C56.5311 30.7233 56.6513 25.0426 56.6513 19.3619C56.6513 18.3209 56.6513 17.3395 55.9 16.4175C55.329 15.7037 55.2088 14.8114 55.5093 13.8894C55.5995 13.6217 55.5995 13.3243 55.6596 12.9674C55.1186 12.9079 54.6377 12.8484 54.0366 12.789C53.3454 11.5398 52.6542 10.2609 51.7525 8.6251C51.0913 10.1122 50.5504 11.2424 50.0395 12.3726C49.5285 12.5213 49.0477 12.67 48.5969 12.8187C49.228 14.633 49.228 14.6032 48.0859 16.1795C47.7253 16.6851 47.3045 17.2502 47.1843 17.8451C46.7636 21.3249 47.0942 24.8642 46.9439 28.3737C46.8237 32.3294 46.4029 36.285 46.8537 40.4191C45.0505 41.9955 43.2472 43.542 41.3538 45.1481C41.2637 44.9102 41.0533 44.5533 41.0533 44.2261C41.0833 40.5679 41.0533 36.9096 41.2036 33.2514C41.2637 31.6453 41.0533 30.3367 39.761 29.2957C39.22 28.8496 38.7692 28.3142 38.2583 27.7789C38.0779 26.6784 37.8976 25.5482 37.7173 24.3585C34.9223 25.0426 37.8676 27.3327 35.0425 28.909C34.4715 29.2362 34.0507 29.7418 33.5097 30.0987C32.8485 30.5151 32.6081 31.1099 32.6081 31.8535C32.6081 34.2923 32.548 36.7014 32.5179 39.1403C32.4879 40.6273 32.5179 42.1144 32.4578 43.6015C32.3977 44.8804 31.7966 45.8024 30.7448 46.0998C30.6846 45.4158 30.6245 44.7615 30.5644 43.8989C29.5125 43.7502 28.5207 43.6015 27.2585 43.4528C27.0782 40.1812 26.9279 36.9096 26.7476 33.4298C24.6438 33.519 22.7504 33.6083 20.7067 33.6975C20.7067 34.7682 20.7067 35.6307 20.7067 36.6122C19.4444 36.7312 18.3625 36.8204 17.2505 36.9096C16.5893 39.7648 17.6111 42.4416 17.3406 45.1184C15.9582 45.8024 14.7259 46.4567 13.5839 47.0218C13.0129 50.115 13.0129 57.2828 13.5839 58.5319C16.2887 55.9741 18.6931 53.0892 21.3078 50.4422C22.2094 49.4904 23.1711 48.5387 24.5837 47.9438C26.4771 49.6689 28.4005 51.3344 30.2038 53.1189C32.0371 54.9332 33.7201 56.8961 35.5233 58.8294C36.0643 58.7996 36.5752 58.7401 37.0561 58.7104C37.537 57.6992 37.2364 57.0746 36.5452 56.5095C34.9223 55.1711 34.6217 53.7435 35.6135 51.6021C36.7556 51.6021 38.0178 51.6021 39.2801 51.6021C39.3402 50.3827 39.3402 50.3827 38.138 49.4904C37.6872 47.468 38.108 46.9624 40.1517 46.9624C41.8347 46.9921 43.3374 46.8434 45.0204 47.1706C45.0204 48.2115 45.0204 49.1038 45.0204 49.996C44.5095 50.2042 44.1188 50.3529 43.7281 50.5016C43.2773 51.7805 44.7499 51.6616 45.5614 51.6913C48.3564 51.7508 51.1515 51.84 53.9765 51.8995C54.6978 51.8995 55.4191 52.0482 55.4191 52.8512C55.4492 54.2491 55.7798 55.7362 54.3071 56.7772C53.4957 57.3423 53.2252 58.1453 53.7361 59.1268C56.1404 59.1268 58.5147 59.1268 61.0092 59.1268C60.9791 57.6397 61.0092 56.3905 61.1294 54.9629C58.695 54.8737 58.695 54.8737 57.7633 54.3383C57.8535 51.3642 63.9545 45.0886 68.673 43.0662C69.3041 42.1442 69.8451 41.3114 70.4161 40.4786C70.5063 40.5381 70.6265 40.5976 70.7166 40.6571C70.2658 41.4304 69.8451 42.2334 69.3342 43.1257C74.6537 45.624 78.1099 49.6094 80.5143 55.0521C79.4323 54.8142 78.711 54.6655 78.0198 54.5168C78.0198 56.3013 78.0198 57.9074 78.0198 59.4837C79.9733 59.4837 81.8366 59.4837 83.8503 59.4837C84.0005 57.1341 83.8803 54.9927 83.9705 52.6728C83.9705 52.1969 84.1809 51.6913 84.271 51.2749C84.5415 51.2452 84.6016 51.2154 84.6617 51.2452C84.9022 51.3344 85.1426 51.3642 85.383 51.4831C89.4403 53.6245 91.6343 50.1447 94.4593 47.9141C95.1205 48.7469 95.6916 49.4607 96.2325 50.2042C97.0741 51.3642 97.9757 52.3456 99.6587 52.0185C101.101 51.7805 102.273 51.6318 103.776 51.6616C103.776 54.3086 103.776 56.7474 103.776 59.3052C104.708 59.3052 105.489 59.3052 106.21 59.3052C106.301 59.0376 106.361 58.8888 106.361 58.7699C106.331 57.5207 106.15 56.2716 106.301 55.0521C106.511 53.0892 106.09 51.4534 104.588 50.1447C104.527 50.0853 104.558 49.9663 104.527 49.8771C104.618 49.9663 104.708 50.0555 104.798 50.1447C105.82 49.0145 106.812 47.8546 107.894 46.6649C109.126 47.6167 110.328 48.5684 111.5 49.4607C111.23 50.2042 111.019 50.7396 110.779 51.3642C113.724 51.3642 116.519 51.3642 119.314 51.3642C119.404 51.037 119.554 50.8288 119.554 50.5909C119.645 47.1706 119.735 43.7502 119.795 40.3299C119.825 39.6161 119.464 39.1105 118.863 38.7536C117.421 37.8911 116.88 36.6122 116.94 35.0061C117 33.9949 116.94 32.9539 116.94 32.0022C115.076 31.4074 112.672 31.4074 111.079 32.0319C111.049 33.4595 110.989 34.9764 110.959 36.4932C111.019 38.3372 110.448 38.2183 108.825 38.6346C108.705 39.7648 108.585 40.8653 108.465 42.0252C107.322 42.0252 106.301 42.0252 105.159 42.0252C104.948 37.1773 105.94 32.4186 105.489 27.5707C104.768 27.3327 104.137 27.1245 103.536 26.9163C103.536 25.1913 103.566 23.5555 103.506 21.9197C103.506 21.4141 103.415 20.7598 103.115 20.4029C102.454 19.6296 101.612 18.9753 100.681 18.1128C99.4784 18.7968 98.2462 19.4214 97.0741 20.1649C96.7735 20.3731 96.5932 20.9085 96.5631 21.3249C96.4129 23.2283 96.6232 25.1616 96.3227 27.0651C95.6014 27.3327 94.9703 27.6004 94.2189 27.8978C94.0386 31.7345 93.8883 35.5117 93.708 39.2295C91.9649 39.6459 91.0332 39.5864 89.801 39.051C89.1398 31.1694 90.3419 23.1986 89.4403 15.2278C88.689 15.1088 88.0278 14.9899 87.4567 14.8709C86.1945 13.3243 86.8256 11.2424 85.5934 9.45787C85.2027 9.96348 84.842 10.2312 84.7218 10.5881C84.3612 11.6588 84.0306 12.7592 83.7902 13.8597C83.6399 14.5735 83.3393 15.0493 82.588 15.1386C82.3175 15.1683 82.047 15.317 81.7765 15.4062C81.8667 20.9977 81.476 26.5 81.4459 32.0914C81.3558 34.6492 81.2957 37.2368 81.2055 39.7946C81.1755 40.6571 80.6946 41.133 79.6126 41.1627C79.4924 40.0325 79.4023 38.9321 79.282 37.6234C78.6509 38.0101 78.1701 38.2777 77.7493 38.5752C77.2384 38.9023 76.7275 38.9915 76.1865 38.3967C76.1564 38.0993 76.0963 37.7126 76.0963 37.326C76.1564 33.8462 76.1865 30.3961 76.3067 26.9163C76.457 23.7637 75.2849 23.1094 73.4816 20.8787C73.8423 18.4399 74.1128 16.0903 71.4379 14.9304C71.4379 11.2126 71.4981 11.4803 68.4626 9.51735C67.8315 9.93374 67.3506 10.2609 66.7796 10.6178C66.8397 11.9264 66.9298 13.1756 66.9899 14.6032ZM69.5445 69.0011C72.1592 65.0752 73.8423 60.941 68.6129 58.5319C65.1566 62.7255 65.9681 65.2536 69.5445 69.0011ZM63.6539 62.3389C68.0418 59.5432 68.8232 55.4983 65.5774 52.762C64.9763 53.0892 64.3752 53.4163 63.7441 53.7138C62.8425 54.1301 62.3616 54.8737 62.2113 55.7957C61.9108 58.1453 62.572 60.257 63.6539 62.3389ZM76.5772 54.7845C74.8341 54.3978 73.3013 54.0409 71.7084 53.684C70.4762 56.1229 71.8286 60.0785 75.0144 62.7553C76.2165 60.1677 77.7493 57.6694 76.5772 54.7845ZM78.1099 53.2081C77.1783 50.4422 72.7603 46.0106 70.0555 45.1778C70.3259 47.6167 70.6265 49.9365 72.3396 51.84C73.722 53.3866 76.3368 54.0112 78.1099 53.2081ZM68.3123 44.4046C64.5556 46.7244 61.8808 49.7581 59.5365 53.2676C63.8643 53.7435 69.2139 49.4904 68.3123 44.4046ZM69.274 48.5089C68.4025 49.8176 67.6812 50.918 67.0801 51.84C67.6812 53.5353 68.2222 55.1116 68.8232 56.6582C69.1238 57.372 69.5746 58.0263 70.4161 58.2048C70.4161 56.8664 70.1456 55.528 70.4762 54.3383C71.0472 52.1969 69.7549 50.6206 69.274 48.5089Z" fill="#FC4336"/>
<path d="M126.678 80.6006C127.76 80.779 128.722 80.9278 129.803 81.1062C130.284 83.7235 130.735 86.311 131.216 88.8688C131.306 88.8986 131.426 88.9581 131.517 88.9878C132.929 86.8166 134.372 84.6752 135.874 82.3851C136.836 82.5635 137.798 82.742 139 82.9799C138.159 87.2628 137.137 91.3671 136.175 95.7094C135.303 95.5607 134.492 95.412 133.56 95.2336C133.981 93.2111 134.372 91.3374 134.762 89.4934C134.672 89.4339 134.552 89.3744 134.462 89.3447C133.53 90.7426 132.599 92.1404 131.637 93.5978C130.916 93.4788 130.254 93.3598 129.443 93.2409C129.142 91.5159 128.812 89.8503 128.511 88.155C128.391 88.155 128.301 88.1253 128.181 88.1253C127.79 89.999 127.369 91.8728 126.948 93.8655C126.107 93.7168 125.386 93.5978 124.424 93.4491C124.995 89.1365 125.927 84.9726 126.678 80.6006Z" fill="#FC4336"/>
<path d="M66.4497 75.5145C68.5234 75.5145 70.3868 75.3361 72.19 75.5443C75.5561 75.9607 76.6981 78.7861 74.9249 81.4927C75.1053 81.7306 75.3157 81.9983 75.496 82.2659C76.9386 84.1694 76.3976 86.7272 74.2337 87.8277C73.6627 88.1251 73.0015 88.363 72.4004 88.3928C70.5671 88.482 68.7338 88.4225 66.6901 88.4225C66.3896 84.1694 66.6 79.9461 66.4497 75.5145ZM69.4251 85.9242C70.5371 85.835 71.5288 85.8647 72.4605 85.6863C73.1217 85.5673 73.6026 85.0319 73.5725 84.2884C73.5425 83.6043 73.0616 83.2474 72.4305 83.0987C71.4687 82.8608 70.4769 82.7418 69.4251 83.1285C69.4251 83.9612 69.4251 84.7643 69.4251 85.9242ZM69.4551 80.6301C70.2666 80.6004 71.048 80.6004 71.7993 80.5112C72.4906 80.3922 73.0015 79.9461 72.9414 79.2025C72.8813 78.5185 72.3403 78.1913 71.7092 78.1318C70.9879 78.0723 70.2666 78.1318 69.4852 78.1318C69.4251 78.6077 69.3349 78.9349 69.3349 79.2918C69.3649 79.6487 69.395 80.0056 69.4551 80.6301Z" fill="#FC4336"/>
<path d="M78.2306 84.5857C77.87 83.1581 77.8399 81.6413 78.1405 80.2137C78.1705 80.1244 78.1705 80.0352 78.2006 79.9162C78.9219 77.1205 81.1759 75.3657 83.9709 75.4847C86.9463 75.5739 88.99 77.3287 89.5911 80.2731C90.0118 82.3551 89.7413 84.318 88.7495 86.162C87.6375 88.244 85.8042 89.1957 83.46 89.0767C81.0858 88.9578 79.4027 87.7681 78.5312 85.5672C78.441 85.2698 78.3208 84.9129 78.2306 84.5857ZM86.5857 84.1693C86.9764 83.0689 87.0665 81.8792 86.8561 80.7193C86.8261 80.5706 86.796 80.4516 86.766 80.3029C86.3753 79.024 85.3234 78.2209 84.0311 78.1912C82.7688 78.1317 81.7169 78.7563 81.206 79.9757C80.5448 81.552 80.5147 83.1581 81.206 84.7047C81.6868 85.8051 82.5584 86.3702 83.7906 86.4C84.9627 86.4297 85.8343 85.8943 86.3152 84.8831C86.4053 84.6749 86.4955 84.4073 86.5857 84.1693Z" fill="#FC4336"/>
<path d="M20.2259 87.2628C21.398 88.7201 22.5701 90.2072 23.8925 91.8727C22.7504 92.0809 21.8789 92.2297 20.8871 92.4081C19.715 91.0102 18.5429 89.6421 17.3407 88.2145C16.9199 88.274 16.4992 88.3632 15.9282 88.4524C16.1385 89.999 16.3489 91.4564 16.5893 93.0922C15.7478 93.2706 14.9965 93.3896 14.0047 93.5978C13.1932 89.2852 12.4118 85.0916 11.5703 80.6898C13.8845 80.3329 15.9282 79.6786 18.092 79.8273C19.6549 79.9165 20.9171 80.5411 21.5483 82.0282C22.1794 83.5153 21.9991 84.9429 21.0373 86.2515C20.827 86.5787 20.5565 86.8464 20.2259 87.2628ZM15.4172 85.7459C16.6494 85.9541 17.6412 85.7162 18.5429 85.1213C19.174 84.6752 19.3543 84.0209 19.1139 83.2773C18.9035 82.5635 18.3625 82.2066 17.6412 82.2364C16.7697 82.2661 15.8981 82.4446 14.8462 82.5635C15.0566 83.7532 15.2369 84.7644 15.4172 85.7459Z" fill="#FC4336"/>
<path d="M117.451 78.8752C120.907 78.8454 123.282 81.0463 123.492 84.5261C123.612 86.5486 123.101 88.4521 121.899 90.1176C120.517 91.9913 118.623 92.6457 116.369 92.3185C114.145 91.9913 112.613 90.7422 111.921 88.6008C111.17 86.1917 111.35 83.8123 112.643 81.5817C113.694 79.7972 115.287 78.8454 117.451 78.8752ZM120.637 85.121C120.547 85.0912 120.697 85.1507 120.637 85.121C120.637 84.883 120.667 84.6154 120.637 84.3774C120.487 82.8606 119.615 81.8494 118.203 81.6114C116.7 81.3735 115.558 81.9386 114.927 83.3067C114.266 84.6748 114.055 86.1322 114.536 87.6193C114.897 88.7495 115.618 89.4633 116.85 89.6715C118.142 89.8797 119.164 89.4335 119.735 88.3331C120.216 87.3516 120.457 86.2809 120.637 85.121Z" fill="#FC4336"/>
<path d="M60.4086 88.6607C57.5534 88.7796 54.9688 88.8986 52.1437 89.0176C51.8732 84.6753 51.6328 80.4222 51.3623 75.9312C54.2475 75.8122 56.9223 75.723 59.7173 75.604C59.7774 76.4963 59.8075 77.1803 59.8376 78.0726C58.0343 78.2213 56.3212 78.3402 54.4879 78.4592C54.4879 79.2325 54.4879 79.9166 54.4879 80.7493C55.9305 80.7493 57.2529 80.7493 58.7556 80.7493C58.8157 81.5226 58.8458 82.1769 58.9059 83.0395C57.4933 83.1584 56.171 83.2476 54.7584 83.3666C54.7584 84.3183 54.7584 85.1809 54.7584 86.1326C56.5316 86.1326 58.2747 86.1326 60.1681 86.1326C60.2583 86.9356 60.3184 87.7089 60.4086 88.6607Z" fill="#FC4336"/>
<path d="M33.4197 86.3405C33.5399 87.8275 33.6602 89.1362 33.7804 90.5935C32.8487 90.7125 32.0973 90.8017 31.1657 90.9207C30.5946 86.5784 30.0537 82.3848 29.5127 78.0127C30.3843 77.864 31.1356 77.7153 31.917 77.6558C33.3596 77.5666 34.8022 77.3584 36.2148 77.5071C38.3185 77.7451 39.4906 79.024 39.7611 80.9274C40.0316 82.9201 39.1901 84.5857 37.3568 85.4185C36.6355 85.7456 35.8541 85.8943 35.0727 86.0728C34.5618 86.1917 34.0809 86.2215 33.4197 86.3405ZM33.029 83.4852C34.2011 83.634 35.223 83.5447 36.1546 83.0391C36.8459 82.6822 37.1164 82.0576 36.9661 81.2843C36.8459 80.5705 36.3951 80.1542 35.6738 80.0054C34.682 79.827 33.7203 79.946 32.6684 80.3623C32.8186 81.4331 32.9088 82.4443 33.029 83.4852Z" fill="#FC4336"/>
<path d="M71.8292 95.7095C72.3101 97.613 72.791 99.4867 73.3019 101.39C73.4221 101.39 73.5123 101.39 73.6325 101.39C73.8429 100.468 74.0532 99.5164 74.2336 98.5944C74.4139 97.6724 74.5942 96.7504 74.7745 95.7392C75.4357 95.7392 75.9767 95.7392 76.8182 95.7392C76.157 99.0703 75.5259 102.282 74.8647 105.643C74.0833 105.643 73.362 105.643 72.5205 105.643C72.0697 104.007 71.6189 102.312 71.168 100.617C71.0478 100.617 70.9577 100.617 70.8374 100.617C70.3866 102.282 69.9058 103.978 69.455 105.703C68.7036 105.703 68.0124 105.703 67.1408 105.703C66.4796 102.431 65.8184 99.1595 65.1572 95.769C65.9086 95.769 66.4796 95.769 67.1708 95.769C67.5616 97.7022 67.9523 99.6354 68.3129 101.539C68.4031 101.539 68.4932 101.569 68.6134 101.569C69.1244 99.6354 69.6052 97.7319 70.1161 95.7392C70.6271 95.7095 71.168 95.7095 71.8292 95.7095Z" fill="#FC4336"/>
<path d="M3.96714 84.8835C2.76497 85.0917 1.74314 85.2701 0.571027 85.4783C0.390703 84.6456 0.210378 83.902 0 82.98C3.24584 82.2959 6.34141 81.6714 9.6173 80.9873C9.82768 81.8498 9.97795 82.5934 10.2184 83.4856C9.04627 83.7533 8.02443 83.9912 6.82227 84.2589C7.51351 87.709 8.14465 91.0401 8.83589 94.4901C7.93427 94.6983 7.18292 94.847 6.22119 95.0552C5.46984 91.6646 4.74854 88.3633 3.96714 84.8835Z" fill="#FC4336"/>
<path d="M95.9323 89.6122C95.0307 89.5527 94.2493 89.523 93.2575 89.4635C93.528 85.954 93.7684 82.5634 94.0389 79.0836C92.8968 78.9349 91.875 78.7862 90.6729 78.6375C90.7029 77.8642 90.733 77.0909 90.7931 76.1392C94.099 76.4068 97.2547 76.6448 100.591 76.9125C100.47 77.8642 100.41 78.6077 100.29 79.4703C99.1481 79.4108 98.1263 79.3513 96.894 79.2918C96.5935 82.7419 96.293 86.1027 95.9323 89.6122Z" fill="#FC4336"/>
<path d="M105.219 80.1245C104.077 79.946 103.055 79.7676 101.883 79.5891C101.943 78.8158 101.973 78.102 102.004 77.418C103.356 77.1503 109.066 77.6856 111.771 78.3697C111.711 79.0835 111.621 79.8568 111.531 80.7491C110.328 80.6598 109.277 80.5706 108.074 80.4814C107.624 83.9612 107.173 87.322 106.722 90.8018C105.76 90.6828 105.009 90.5936 104.077 90.5044C104.468 86.9651 104.829 83.6043 105.219 80.1245Z" fill="#FC4336"/>
<path d="M45.9827 100.319C46.1029 100.498 46.1631 100.647 46.2532 100.766C47.786 102.966 46.8242 105.316 44.1494 105.673C42.7669 105.851 41.3544 105.703 39.7916 105.703C39.5812 102.401 39.7315 99.1298 39.7014 95.7689C41.2943 95.7689 42.7369 95.5905 44.1194 95.7987C46.3434 96.1556 46.9745 97.8211 45.9827 100.319ZM41.8353 103.888C42.7369 103.799 43.4882 103.829 44.1795 103.591C44.5401 103.472 44.9909 102.907 44.9909 102.55C44.9909 102.193 44.48 101.688 44.1194 101.598C43.4281 101.42 42.6768 101.479 41.8653 101.42C41.8353 102.282 41.8353 102.937 41.8353 103.888ZM41.8052 99.7246C42.5566 99.6651 43.1877 99.6949 43.6986 99.5164C44.0292 99.3974 44.4199 98.8918 44.4199 98.5647C44.4199 98.2673 43.9391 97.8211 43.5784 97.7319C43.0374 97.5832 42.4364 97.7022 41.8052 97.7022C41.8052 98.3862 41.8052 98.9216 41.8052 99.7246Z" fill="#FC4336"/>
<path d="M88.1786 95.7388C88.99 95.7388 89.4709 95.7388 90.1321 95.7388C90.3425 99.0104 90.2523 102.282 90.1621 105.673C89.4408 105.673 88.8698 105.673 88.1485 105.673C87.1567 103.918 86.1048 102.104 85.053 100.289C84.9327 100.319 84.8125 100.349 84.6923 100.379C84.6923 102.133 84.6923 103.858 84.6923 105.702C83.9409 105.702 83.43 105.702 82.7087 105.702C82.5284 102.401 82.6486 99.1293 82.6486 95.7685C83.4 95.7685 84.0011 95.7685 84.7224 95.7685C85.7442 97.5233 86.7961 99.3673 87.848 101.211C87.9682 101.182 88.0584 101.182 88.1786 101.152C88.1786 99.397 88.1786 97.6422 88.1786 95.7388Z" fill="#FC4336"/>
<path d="M50.4608 105.673C49.7094 105.673 49.1985 105.673 48.5674 105.673C48.5674 102.342 48.5674 99.1 48.5674 95.7392C50.1001 95.7392 51.5427 95.6499 52.9553 95.7689C54.1574 95.8879 55.1793 96.5124 55.5399 97.7319C55.9006 98.9513 55.6902 100.081 54.7886 101.033C54.5481 101.271 54.3378 101.539 54.0372 101.836C54.7285 103.056 55.3896 104.275 56.141 105.643C55.2995 105.643 54.6383 105.643 53.8569 105.643C53.346 104.751 52.7749 103.799 52.234 102.877C51.9034 102.312 51.5427 101.896 50.6411 102.312C50.581 103.353 50.5209 104.454 50.4608 105.673ZM50.6411 100.26C51.4225 100.2 52.1138 100.23 52.7749 100.081C53.4061 99.9328 53.7367 99.3974 53.7066 98.7431C53.7066 98.0293 53.2558 97.6426 52.5946 97.5534C51.9935 97.4642 51.3624 97.5237 50.6111 97.5237C50.6411 98.4159 50.6411 99.1595 50.6411 100.26Z" fill="#FC4336"/>
<path d="M42.4363 89.7015C42.0456 85.2403 41.6549 81.0169 41.2642 76.6746C42.2559 76.6151 43.0373 76.5854 43.969 76.5259C44.51 79.9165 44.51 83.2475 44.9608 86.6679C46.6438 86.6679 48.2668 86.6679 50.0099 86.6679C50.07 87.5006 50.1001 88.1847 50.1602 89.1067C47.5755 89.3149 45.1411 89.4933 42.4363 89.7015Z" fill="#FC4336"/>
<path d="M99.9 97.1367C99.4191 97.5531 98.9984 97.8803 98.6077 98.2372C98.4274 98.1777 98.2771 98.148 98.1569 98.0885C96.0831 96.8691 94.3701 97.6721 94.1597 100.051C94.0996 100.944 94.31 101.925 94.6405 102.788C94.9411 103.62 95.7525 104.037 96.7143 103.948C97.6459 103.858 98.0667 103.353 98.3973 102.044C97.7361 101.955 97.0749 101.895 96.3236 101.806C96.3236 101.271 96.3236 100.795 96.3236 100.23C97.7662 100.23 99.1186 100.23 100.561 100.23C100.862 101.836 100.561 103.234 99.6295 104.483C97.9164 106.773 94.2498 106.476 92.8373 103.858C91.7253 101.806 91.7253 99.6351 92.8073 97.5829C94.2198 94.9358 97.676 94.6682 99.9 97.1367Z" fill="#FC4336"/>
<path d="M57.5835 105.673C57.5835 102.312 57.5835 99.0699 57.5835 95.7388C59.6272 95.7388 61.5506 95.7388 63.5943 95.7388C63.5943 96.3039 63.5943 96.8095 63.5943 97.5233C62.332 97.5828 61.0698 97.6423 59.6873 97.7315C59.6873 98.3263 59.6873 98.8319 59.6873 99.4862C60.6791 99.5457 61.6408 99.6052 62.7528 99.6944C62.7828 100.2 62.8129 100.676 62.873 101.301C61.761 101.39 60.7392 101.479 59.6572 101.568C59.6572 102.312 59.6572 102.936 59.6572 103.769C60.9796 103.829 62.302 103.888 63.7145 103.977C63.7145 104.572 63.7145 105.078 63.7145 105.702C61.7009 105.673 59.7173 105.673 57.5835 105.673Z" fill="#FC4336"/>
<path d="M28.2809 91.3077C27.2891 91.397 26.5378 91.4564 25.576 91.5457C24.9449 87.2331 24.3438 83.0692 23.6826 78.7269C24.6443 78.5782 25.4558 78.4593 26.4776 78.3105C27.0787 82.6826 27.6498 86.8762 28.2809 91.3077Z" fill="#FC4336"/>
<path d="M78.4716 95.6797C79.0426 95.6797 79.5235 95.6797 80.2448 95.6797C80.365 99.0108 80.3049 102.282 80.3049 105.613C79.8541 105.673 79.5836 105.732 79.283 105.732C79.0426 105.732 78.8022 105.703 78.5617 105.673C78.2011 104.602 78.141 97.4642 78.4716 95.6797Z" fill="#FC4336"/>
<path d="M39.4007 33.638C39.4007 35.0656 38.4991 35.9281 37.0565 35.8984C35.7041 35.8686 34.7123 34.9764 34.6822 33.757C34.6522 32.3888 35.7642 31.1694 37.0265 31.1694C38.3789 31.1694 39.4007 32.2401 39.4007 33.638ZM37.0265 34.9764C37.8079 35.0061 38.4089 34.4113 38.439 33.6083C38.439 32.835 37.8379 32.1509 37.0866 32.1212C36.4254 32.0914 35.7341 32.7755 35.674 33.5488C35.6139 34.3221 36.215 34.9466 37.0265 34.9764Z" fill="#FC4336"/>
</g>
<defs>
<clipPath id="clip0">
<rect width="139" height="106" fill="white"/>
</clipPath>
</defs>
</svg>
