<svg width="197" height="36" viewBox="0 0 197 36" fill="none" xmlns="http://www.w3.org/2000/svg">
<g clip-path="url(#clip0)">
<path d="M124.782 33.1355H167.656V3.40332H124.782V33.1355Z" fill="#FC4336"/>
<path d="M167.656 3.40332V33.1355H197.092V3.40332H167.656ZM182.282 29.9212C175.609 29.9212 170.124 24.564 170.124 18.0462C170.124 11.5283 175.609 6.17118 182.282 6.17118C188.956 6.17118 194.44 11.5283 194.44 18.0462C194.44 24.6533 189.047 29.9212 182.282 29.9212Z" fill="#FC4336"/>
<path d="M176.066 20.3669L176.614 20.099C176.797 20.0098 176.706 20.0098 176.706 19.8312C176.523 19.2955 176.431 18.6705 176.431 18.0455C176.431 14.8312 179.082 12.2419 182.373 12.1526C185.664 12.1526 188.315 14.7419 188.407 17.9562C188.407 18.7598 188.224 19.5633 187.95 20.2776C187.95 20.3669 187.95 20.4562 188.041 20.4562L188.59 20.724C188.681 20.724 188.772 20.724 188.864 20.6348C190.418 17.2419 188.772 13.224 185.299 11.7955C181.825 10.2776 177.711 11.8848 176.249 15.2776C175.517 16.7955 175.517 18.5812 176.066 20.1883C175.883 20.3669 175.974 20.4562 176.066 20.3669Z" fill="#FC4336"/>
<path d="M174.238 21.1706L174.969 20.8135C175.06 20.8135 175.06 20.7242 175.06 20.6349C173.689 16.7956 175.7 12.5099 179.723 11.0813C183.745 9.65276 188.041 11.7063 189.504 15.6349C190.144 17.4206 190.053 19.3849 189.321 21.0813C189.321 21.1706 189.321 21.2599 189.413 21.2599L190.144 21.617C190.235 21.617 190.327 21.617 190.418 21.5278C190.875 20.4563 191.15 19.2956 191.15 18.1349C191.15 13.4028 187.219 9.56348 182.282 9.56348C177.437 9.56348 173.506 13.4028 173.506 18.2242C173.506 19.2063 173.689 20.1885 174.055 21.1706C174.055 21.0813 174.146 21.1706 174.238 21.1706Z" fill="#FC4336"/>
<path d="M171.861 22.2418L173.232 21.6168C173.415 21.5275 173.323 21.4382 173.323 21.3489C171.587 16.5275 174.146 11.1704 179.083 9.38465C184.019 7.68822 189.504 10.1882 191.332 15.0096C191.698 15.9918 191.881 17.0632 191.881 18.0454C191.881 19.2954 191.606 20.5454 191.058 21.7061C190.967 21.7954 191.058 21.8846 191.149 21.9739L192.429 22.5096C192.521 22.5989 192.703 22.5989 192.795 22.3311C195.355 16.7061 192.703 10.0989 186.853 7.59893C181.094 5.09893 174.329 7.68822 171.769 13.4025C171.129 14.8311 170.764 16.3489 170.855 17.9561C170.855 19.2954 171.129 20.7239 171.587 21.9739C171.587 22.1525 171.678 22.3311 171.861 22.2418Z" fill="#FC4336"/>
<path d="M182.282 15.6349C182.922 15.6349 183.471 15.0992 183.471 14.4742C183.471 13.8492 182.922 13.3135 182.282 13.3135C181.642 13.3135 181.094 13.8492 181.094 14.4742C181.094 15.0992 181.642 15.6349 182.282 15.6349Z" fill="#FC4336"/>
<path d="M182.739 21.8853C183.014 21.8853 183.196 21.7068 183.196 21.4389V18.7603C183.288 18.4032 183.379 18.046 183.654 17.7782L186.213 15.3675C186.396 15.1889 186.396 14.921 186.213 14.7425L185.756 14.296C185.573 14.1175 185.299 14.1175 185.116 14.296L182.831 16.5282C182.739 16.7068 182.465 16.796 182.282 16.796C182.1 16.796 181.917 16.7068 181.734 16.5282L179.448 14.296C179.266 14.1175 178.991 14.1175 178.809 14.296L178.351 14.7425C178.169 14.921 178.169 15.1889 178.351 15.3675L180.911 17.8675C181.185 18.1353 181.368 18.4925 181.368 18.8496V21.5282C181.368 21.796 181.551 21.9746 181.825 21.9746L182.739 21.8853Z" fill="#FC4336"/>
<path d="M190.784 22.867C190.235 23.2242 189.687 23.6706 189.23 24.117H189.138C189.412 23.7599 189.687 23.4027 189.961 23.0456C190.418 22.3313 189.595 21.7063 188.681 22.1527C188.224 22.5099 187.858 22.7777 187.493 23.2242H187.401C187.676 22.867 187.95 22.5992 188.133 22.242C188.498 21.7063 187.676 21.0813 186.944 21.5277C186.487 21.8849 186.03 22.242 185.573 22.5992H185.482C185.573 22.5099 185.847 22.1527 186.03 22.0634C186.487 21.617 185.847 21.0813 185.207 21.3492C184.567 21.617 183.745 22.5099 182.739 23.1349C183.196 23.4027 184.019 23.4027 185.207 23.9384C186.122 24.2063 186.67 25.0992 186.396 25.992C186.304 26.2599 186.213 26.4384 186.03 26.617C185.299 27.5099 184.11 27.242 183.105 26.8849C181.916 26.5277 181.551 26.1706 180.18 25.7242C179.265 25.4563 178.9 25.4563 178.9 25.1884C178.9 24.9206 179.722 25.0992 180.454 25.367C182.465 26.0813 185.116 27.6884 185.847 25.992C186.396 24.6527 184.019 24.0277 183.105 23.8492C181.825 23.5813 181.002 22.6884 179.905 22.1527C178.808 21.4384 177.437 21.2599 176.066 21.4384C174.877 21.7956 173.78 22.242 172.775 22.9563C172.135 23.3134 172.226 23.8492 172.775 24.6527C176.432 29.742 183.471 30.9027 188.681 27.4206C189.961 26.5277 191.058 25.4563 191.881 24.117C192.429 23.2242 191.698 22.5099 190.784 22.867Z" fill="#FC4336"/>
<path d="M157.966 30.6352C157.966 30.9923 159.154 31.3495 159.794 31.3495C160.617 31.3495 161.44 30.8138 161.714 30.0102C162.171 28.8495 164.091 22.4209 164.091 22.4209H164.273C164.731 22.3316 164.822 22.0638 164.822 21.4388C164.822 21.1709 164.822 21.1709 164.548 21.1709H162.994C162.811 21.1709 162.811 21.1709 162.811 21.3495L161.531 26.3495L160.16 21.3495C160.16 21.1709 160.068 21.1709 159.977 21.1709H158.331C158.149 21.1709 158.057 21.1709 158.057 21.4388C158.057 22.0638 158.24 22.3316 158.697 22.4209H158.88C158.88 22.4209 160.16 26.7959 160.8 28.5816L160.708 28.9388C160.525 29.653 160.16 29.9209 159.52 29.9209C159.337 29.9209 158.606 29.8316 158.606 29.8316C158.149 29.8316 158.057 30.0102 157.966 30.0995C158.057 30.278 158.057 30.4566 157.966 30.6352Z" fill="white"/>
<path d="M152.572 18.6709H150.652C150.47 18.6709 150.47 18.6709 150.47 18.8495L149.373 25.3673L148.093 18.8495C148.093 18.6709 148.001 18.6709 147.818 18.6709H146.996C146.63 18.6709 146.63 18.6709 146.63 18.9388L145.259 25.3673L144.253 18.8495C144.253 18.6709 144.253 18.6709 144.07 18.6709H142.151C141.968 18.6709 141.876 18.6709 141.876 18.9388C141.876 19.653 142.059 19.9209 142.608 19.9209H142.791L144.253 27.8673C144.345 28.0459 144.345 28.1352 144.528 28.1352H145.807C145.99 28.1352 145.99 28.1352 146.082 27.8673L147.361 21.7066L148.458 27.8673C148.458 28.0459 148.458 28.0459 148.733 28.0459H150.012C150.195 28.0459 150.195 28.0459 150.287 27.778L151.932 19.8316H152.115C152.663 19.7423 152.846 19.4745 152.846 18.8495C152.755 18.6709 152.755 18.6709 152.572 18.6709Z" fill="white"/>
<path d="M155.771 26.5283C155.497 26.8855 155.132 27.064 154.674 27.064C154.126 27.064 153.76 26.5283 153.76 25.9926C153.76 24.6533 155.314 24.7426 155.771 24.8319V26.5283ZM157.508 26.8855C157.417 26.439 157.326 26.0819 157.326 25.6355V23.1355C157.326 21.5283 156.594 20.9033 155.04 20.9033C153.943 20.9033 152.755 21.3498 152.755 21.7069C152.755 21.8855 152.846 22.064 152.846 22.1533C152.846 22.2426 152.938 22.4212 153.395 22.4212C153.577 22.4212 154.4 22.2426 154.766 22.2426C155.68 22.2426 155.771 22.7783 155.771 23.4033V23.939C154.674 23.939 152.206 23.939 152.206 26.3498C152.023 27.4212 152.846 28.4033 153.852 28.4926C153.943 28.4926 154.035 28.4926 154.126 28.4926C154.766 28.4926 155.406 28.2248 155.771 27.689L155.863 27.5997V27.7783C155.954 28.0462 155.954 28.2248 156.229 28.2248H157.874C158.057 28.2248 158.148 28.2248 158.148 27.9569C158.24 27.1533 158.057 26.9748 157.508 26.8855Z" fill="white"/>
<path d="M145.99 15.1888H145.807V9.47447C145.807 9.2959 145.807 9.2959 145.624 9.2959H143.339C143.156 9.2959 143.156 9.2959 143.156 9.56376C143.156 10.3673 143.339 10.5459 144.07 10.5459H144.253V15.0995H144.07C143.43 15.0995 143.156 15.3673 143.156 16.0816C143.156 16.3495 143.156 16.3495 143.43 16.3495H146.721C146.904 16.3495 146.996 16.3495 146.996 16.0816C146.904 15.3673 146.721 15.1888 145.99 15.1888Z" fill="white"/>
<path d="M144.985 6.70605C144.436 6.70605 143.979 7.15248 143.979 7.6882C143.979 8.22391 144.436 8.67034 144.985 8.67034C145.533 8.58106 145.899 8.13463 145.899 7.6882C145.99 7.15248 145.533 6.70605 144.985 6.70605Z" fill="white"/>
<path d="M134.198 8.49261C134.929 8.49261 135.112 8.22475 135.112 7.42118C135.112 7.15332 135.112 7.15332 134.838 7.15332H131.73C131.547 7.15332 131.547 7.15332 131.547 7.24261V7.33189C131.547 8.13546 131.73 8.40332 132.461 8.40332V13.0462C132.461 13.939 132.461 15.189 130.998 15.189C129.536 15.189 129.536 14.2069 129.536 13.0462V8.49261H129.627C130.267 8.49261 130.541 8.22475 130.541 7.42118V7.24261C130.541 7.15332 130.45 7.15332 130.358 7.15332H127.25C127.067 7.15332 126.976 7.15332 126.976 7.42118C126.976 8.22475 127.159 8.49261 127.89 8.49261V13.1355C127.89 15.6355 128.804 16.7069 131.09 16.7069C133.375 16.7069 134.289 15.6355 134.289 13.1355L134.198 8.49261Z" fill="white"/>
<path d="M141.511 15.1886V11.3493C141.511 9.83147 140.962 9.11719 139.865 9.11719C139.042 9.11719 138.311 9.56362 137.763 10.1886L137.671 9.92076C137.58 9.56362 137.58 9.38504 137.306 9.38504H135.569C135.386 9.38504 135.294 9.38504 135.294 9.6529C135.294 10.3672 135.477 10.635 136.117 10.635C136.209 11.0815 136.3 11.5279 136.3 11.885V15.1886C135.66 15.1886 135.477 15.4565 135.477 16.1708C135.477 16.4386 135.477 16.4386 135.752 16.4386H137.854C137.945 16.4386 137.945 16.4386 137.945 16.26V11.1708C138.22 10.8136 138.677 10.635 139.134 10.5458C139.957 10.5458 139.957 11.4386 139.957 11.7958V16.26C139.957 16.3493 139.957 16.4386 140.048 16.4386H142.151C142.333 16.4386 142.425 16.4386 142.425 16.1708C142.333 15.3672 142.151 15.1886 141.511 15.1886Z" fill="white"/>
<path d="M149.921 16.6172C150.835 16.6172 151.658 16.3493 151.658 16.1708C151.658 16.1708 151.567 15.9029 151.567 15.7243C151.475 15.1886 151.384 15.01 150.378 15.0993C150.287 15.0993 150.104 15.0993 150.013 15.01C149.83 14.7422 149.738 14.385 149.83 14.1172V10.5458H150.744C151.475 10.5458 151.658 10.2779 151.658 9.56362C151.658 9.29576 151.658 9.29576 151.384 9.29576H149.921V7.42076C149.921 7.24219 149.921 7.24219 149.83 7.24219H149.281C148.733 7.33147 148.276 7.86719 148.367 8.49219V9.38504H147.453C147.27 9.38504 147.179 9.38504 147.179 9.6529C147.179 10.4565 147.362 10.635 148.093 10.635H148.367V13.9386C148.367 15.2779 148.367 16.7065 150.013 16.7065" fill="white"/>
<path d="M153.852 12.064V11.9747C153.852 11.5283 154.035 10.3676 155.04 10.3676C156.046 10.3676 156.046 11.5283 156.046 12.064H153.852ZM157.691 12.9569C157.691 10.3676 156.777 9.02832 155.04 9.02832C153.304 9.02832 152.207 10.5462 152.207 12.8676C152.207 15.9033 153.761 16.5283 155.132 16.5283C156.229 16.5283 157.509 15.9926 157.509 15.7247C157.509 15.5462 157.417 15.3676 157.417 15.189C157.326 15.0105 157.234 14.8319 156.777 14.9212C156.32 15.0105 155.863 15.0997 155.315 15.0997C154.309 15.0997 153.852 14.4747 153.761 13.2247H157.417C157.691 13.314 157.691 13.2247 157.691 12.9569Z" fill="white"/>
<path d="M161.256 15.2775C160.251 15.2775 160.068 14.3846 160.068 12.8668C160.068 11.3489 160.251 10.3668 161.348 10.3668C161.713 10.3668 162.079 10.4561 162.445 10.7239V14.7418C162.17 15.0989 161.713 15.3668 161.256 15.2775ZM164.182 15.1882C164.09 14.7418 163.999 14.3846 163.999 13.9382V6.88463C163.999 6.79534 163.999 6.70605 163.816 6.70605H161.713C161.531 6.70605 161.439 6.70605 161.439 6.97391C161.439 7.6882 161.622 7.95605 162.262 7.95605V9.5632L162.17 9.47391C161.805 9.20605 161.348 9.02748 160.891 9.11677C159.245 9.11677 158.331 10.5453 158.331 13.2239C158.331 15.4561 159.154 16.7061 160.525 16.7061C161.256 16.7061 161.896 16.3489 162.445 15.9025L162.536 16.1703C162.628 16.4382 162.628 16.4382 162.81 16.4382H164.639C164.822 16.4382 164.913 16.4382 164.913 16.1703C165.004 15.3668 164.822 15.1882 164.182 15.1882Z" fill="white"/>
<path d="M193.435 30.367H193.618C193.801 30.367 193.892 30.367 193.892 30.1885C193.892 30.0099 193.801 30.0099 193.709 30.0099H193.526L193.435 30.367ZM193.435 30.9028H193.252V29.9206H193.618C193.892 29.9206 193.984 30.0099 193.984 30.1885C193.984 30.367 193.892 30.4563 193.709 30.4563L193.984 30.9028H193.801L193.526 30.4563H193.344L193.435 30.9028ZM194.349 30.4563C194.349 30.0992 193.984 29.742 193.618 29.8313C193.252 29.8313 192.887 30.1885 192.978 30.5456C192.978 30.9028 193.344 31.1706 193.709 31.1706C193.984 31.0813 194.349 30.8135 194.349 30.4563C194.258 30.4563 194.258 30.4563 194.349 30.4563ZM192.795 30.4563C192.795 29.9206 193.161 29.5635 193.709 29.5635C194.258 29.5635 194.623 29.9206 194.623 30.4563C194.623 30.992 194.258 31.3492 193.709 31.3492C193.252 31.3492 192.795 30.992 192.795 30.5456C192.704 30.4563 192.704 30.4563 192.795 30.4563Z" fill="white"/>
<path d="M5.48498 7.42118C5.30215 7.95689 4.57083 8.76046 3.01677 8.76046C2.10261 8.84975 1.27988 8.49261 0.731384 7.77832C0.457138 7.42118 0.365723 6.88546 0.365723 6.43903V1.52832H1.82837V6.26046C1.82837 6.52832 1.82837 6.88546 1.91978 7.15332C2.10261 7.51046 2.55969 7.68903 2.92535 7.68903C3.47384 7.77832 3.93092 7.42118 4.02234 6.88546C4.02234 6.70689 4.02234 6.43903 4.02234 6.26046V1.52832H5.5764V6.34975C5.66781 6.70689 5.5764 7.06403 5.48498 7.42118Z" fill="#FC4336"/>
<path d="M9.87277 8.67104V5.18889C9.87277 4.56389 9.78135 4.38532 9.41569 4.38532C9.05003 4.38532 8.68437 4.5639 8.41012 4.83175V8.58175H6.94748V4.83175C6.94748 4.38532 6.85606 4.02818 6.76465 3.58175L8.04446 3.22461C8.13588 3.40318 8.22729 3.67104 8.22729 3.93889C8.41012 3.76032 8.59295 3.67104 8.8672 3.49247C9.14145 3.3139 9.50711 3.3139 9.87277 3.22461C10.4213 3.22461 10.9698 3.49247 11.1526 3.93889C11.244 4.20675 11.244 4.47461 11.244 4.65318V8.49247H9.87277" fill="#FC4336"/>
<path d="M12.6153 8.67076V3.49219L13.9866 3.31362V8.67076H12.6153ZM13.3467 2.7779C12.8896 2.7779 12.5239 2.33147 12.5239 1.88504C12.5239 1.34933 12.8896 0.992188 13.4381 0.992188C13.8952 0.992188 14.2608 1.34933 14.2608 1.79576C14.2608 1.79576 14.2608 1.79576 14.2608 1.88504C14.2608 2.42076 13.8037 2.7779 13.3467 2.7779Z" fill="#FC4336"/>
<path d="M17.0034 8.76018C16.4549 8.84947 15.815 8.49233 15.5408 7.95661C15.4494 7.68876 15.4494 7.4209 15.4494 7.15304V4.2959H14.9009V3.40304H15.4494C15.4494 2.95661 15.4494 2.59947 15.5408 2.15304L17.0034 1.7959C16.912 2.33161 16.912 2.86733 16.912 3.40304H18.1918L17.8262 4.38518H16.912V7.06376C16.912 7.77804 17.0034 7.86733 17.5519 7.86733C17.7348 7.86733 17.9176 7.77804 18.009 7.77804L18.1918 8.58161C17.8262 8.76018 17.3691 8.76018 17.0034 8.76018Z" fill="#FC4336"/>
<path d="M21.574 5.36747C21.574 5.09961 21.574 4.83175 21.3912 4.56389C21.2997 4.38532 21.0255 4.20675 20.7512 4.29604C20.2028 4.29604 19.9285 4.74247 19.9285 5.45675L21.574 5.36747ZM19.9285 6.52818C19.9285 7.33175 20.3856 7.77818 21.0255 7.77818C21.574 7.77818 22.0311 7.59961 22.3967 7.24247L22.9452 8.04604C22.3967 8.49247 21.6654 8.76032 20.9341 8.76032C19.5628 8.76032 18.3744 7.68889 18.3744 6.34961C18.3744 6.26032 18.3744 6.08175 18.3744 5.99247C18.283 5.27818 18.5573 4.47461 19.0144 3.93889C19.4714 3.49247 20.0199 3.22461 20.7512 3.22461C21.2997 3.22461 21.8482 3.40318 22.3053 3.76032C22.8538 4.38532 23.128 5.27818 23.0366 6.08175V6.43889H19.9285V6.52818Z" fill="#FC4336"/>
<path d="M26.8763 4.74219C26.6935 4.56362 26.4192 4.38504 26.145 4.38504C25.5051 4.38504 25.2308 4.92076 25.2308 6.08147C25.2308 7.24219 25.5051 7.59933 26.2364 7.59933C26.5106 7.59933 26.7849 7.42076 26.9677 7.24219L26.8763 4.74219ZM27.242 8.67076C27.242 8.58147 27.1505 8.49219 27.1505 8.31362C26.7849 8.58147 26.3278 8.76004 25.8707 8.76004C24.4995 8.76004 23.6768 7.68862 23.6768 6.08147C23.6768 4.47433 24.5909 3.31362 25.9621 3.31362C26.3278 3.31362 26.602 3.4029 26.8763 3.58147C26.8763 3.31362 26.8763 3.04576 26.8763 2.7779V0.992188L28.2475 1.17076V6.61719C28.1561 7.24219 28.2475 7.95647 28.4304 8.58147L27.242 8.67076Z" fill="#FC4336"/>
<path d="M38.12 8.67118H36.4746L35.8347 5.72475C35.6518 4.74261 35.469 3.84975 35.469 3.67118C35.469 3.67118 35.3776 4.65332 35.1033 5.72475L34.4634 8.67118H32.8179L31.0811 1.52832H32.6351L33.275 4.38546C33.4579 5.18903 33.5493 5.99261 33.6407 6.70689C33.6407 6.43903 33.8235 5.45689 34.0063 4.38546L34.7377 1.52832H36.3831L37.0231 4.74261C37.2059 5.45689 37.2973 6.61761 37.2973 6.61761C37.2973 6.34975 37.5715 4.92118 37.663 4.20689L38.3029 1.52832H39.8569L38.12 8.67118Z" fill="#FC4336"/>
<path d="M42.5994 6.3491C41.5938 6.3491 41.3196 6.52767 41.3196 7.15267C41.3196 7.50981 41.5024 7.77767 41.8681 7.86695C41.8681 7.86695 41.8681 7.86695 41.9595 7.86695C42.2337 7.86695 42.508 7.68838 42.6908 7.50981L42.5994 6.3491ZM43.8792 8.93838C43.605 8.8491 43.3307 8.58124 43.1479 8.31338C43.0565 8.40267 42.9651 8.49195 42.7822 8.58124C42.4166 8.75981 42.0509 8.8491 41.6852 8.8491C40.4968 8.8491 39.8569 8.2241 39.8569 7.24195C39.8569 5.99195 40.7711 5.45624 42.4166 5.45624H42.6908V5.18838C42.6908 4.56338 42.5994 4.38481 42.0509 4.38481C41.5024 4.4741 40.9539 4.65267 40.4968 5.00981L39.8569 4.02767C40.1312 3.8491 40.4968 3.67052 40.7711 3.58124C41.2282 3.40267 41.7767 3.31338 42.2337 3.31338C42.9651 3.2241 43.6964 3.58124 43.9706 4.20624C44.062 4.4741 44.062 4.83124 44.062 5.18838V6.9741C43.9706 7.42052 44.1535 7.86695 44.5191 8.13481L43.8792 8.93838Z" fill="#FC4336"/>
<path d="M47.9932 8.76032C47.8104 9.47461 47.4447 10.0103 46.9876 10.546C46.622 10.8139 46.1649 10.9925 45.7078 10.9925L45.2507 10.0996C45.6164 10.0103 45.8907 9.92104 46.1649 9.74247C46.3477 9.65318 46.4391 9.47461 46.5306 9.29604C46.622 9.11747 46.7134 8.9389 46.8048 8.67104H46.4391C46.2563 8.22461 45.9821 7.33175 45.9821 7.15318L44.6108 3.40318L46.0735 3.22461L46.9876 6.26032C47.0791 6.61747 47.2619 7.33175 47.2619 7.33175C47.2619 7.33175 47.3533 6.70675 47.4447 6.52818C47.5361 6.34961 47.5361 6.08175 47.6275 5.81389L48.4503 3.40318H49.9129L47.9932 8.76032Z" fill="#FC4336"/>
<path d="M3.01671 17.0639C2.74246 16.7068 2.28538 16.7068 1.91972 16.9746C1.82831 17.0639 1.73689 17.1532 1.73689 17.3318C1.64548 17.6889 1.55406 18.1353 1.55406 18.4925C1.55406 18.9389 1.55406 19.3853 1.73689 19.8318C1.82831 20.0996 2.10255 20.2782 2.46821 20.2782C3.10812 20.2782 3.38237 19.7425 3.38237 18.4925C3.38237 17.9568 3.29095 17.5103 3.01671 17.0639ZM4.2051 20.546C3.74803 21.0818 3.10812 21.3496 2.3768 21.2603C0.914153 21.2603 0 20.1889 0 18.4925C0 16.796 1.00557 15.7246 2.46821 15.7246C3.19954 15.7246 3.83944 15.9925 4.29652 16.5282C4.7536 17.0639 4.93643 17.7782 4.93643 18.4925C4.93643 19.2068 4.66218 19.921 4.2051 20.546Z" fill="#FC4336"/>
<path d="M8.41026 14.7422C8.22743 14.6529 8.0446 14.5636 7.86177 14.5636C7.58752 14.5636 7.31328 14.7422 7.31328 15.0993V15.1886V15.9029H8.68451L8.31884 16.885H7.31328V21.1708H5.85063V16.885H5.39355V15.9029H5.94205C5.94205 15.635 5.85063 15.4565 5.85063 15.1886C5.75922 14.2958 6.39912 13.5815 7.31328 13.4922C7.40469 13.4922 7.49611 13.4922 7.58752 13.4922C8.0446 13.4922 8.50167 13.5815 8.86734 13.8493L8.41026 14.7422Z" fill="#FC4336"/>
<path d="M14.1694 21.2599C13.1639 21.3492 12.2497 20.9028 11.7012 20.1885C11.1527 19.4742 10.8785 18.5813 10.8785 17.6885C10.7871 16.4385 11.3356 15.1885 12.4325 14.4742C12.981 14.117 13.6209 13.9385 14.1694 13.9385C14.9922 13.9385 15.8149 14.2063 16.4548 14.742L15.6321 15.6349C15.175 15.2778 14.6265 15.0992 14.078 15.0992C13.7124 15.0992 13.3467 15.1885 13.0724 15.4563C12.524 16.0813 12.3411 16.9742 12.4325 17.7778C12.3411 18.492 12.524 19.2063 12.981 19.8313C13.2553 20.0992 13.7124 20.2778 14.1694 20.2778C14.4437 20.2778 14.7179 20.1885 14.9922 20.0992V18.492H13.8952L13.7124 17.1528H16.5462V20.5456C15.8149 20.992 14.9922 21.2599 14.1694 21.2599Z" fill="#FC4336"/>
<path d="M20.5682 17.0635C20.4768 16.9742 20.294 16.9742 20.1112 16.9742C19.7455 16.9742 19.4713 17.1528 19.2884 17.4206V21.1706H17.9172V17.6885C17.9172 17.1528 17.8258 16.617 17.7344 16.1706L19.0142 15.8135C19.1056 16.0813 19.197 16.2599 19.197 16.5278C19.4713 16.0813 19.9283 15.8135 20.4768 15.8135C20.6597 15.8135 20.8425 15.8135 21.0253 15.9028L20.5682 17.0635Z" fill="#FC4336"/>
<path d="M24.1336 17.8669C24.1336 17.5991 24.1336 17.3312 23.9507 17.0633C23.8593 16.8848 23.5851 16.7062 23.3108 16.7062C22.7623 16.7062 22.4881 17.1526 22.4881 17.8669H24.1336ZM22.4881 18.9383C22.4881 19.7419 22.9452 20.1883 23.5851 20.1883C24.1336 20.1883 24.5906 20.0098 24.9563 19.6526L25.5048 20.4562C24.9563 20.9026 24.225 21.1705 23.4936 21.1705C22.1224 21.1705 20.934 20.0991 20.934 18.7598C20.934 18.6705 20.934 18.4919 20.934 18.4026C20.8426 17.6883 21.1169 16.8848 21.5739 16.3491C22.031 15.9026 22.5795 15.6348 23.3108 15.6348C23.8593 15.6348 24.4078 15.8133 24.8649 16.1705C25.4134 16.7955 25.6876 17.6883 25.5962 18.4919V18.8491H22.4881V18.9383Z" fill="#FC4336"/>
<path d="M28.8871 18.8495C27.8815 18.8495 27.6073 19.0281 27.6073 19.6531C27.6073 20.0102 27.7901 20.2781 28.1558 20.3674C28.1558 20.3674 28.1558 20.3674 28.2472 20.3674C28.5214 20.3674 28.7957 20.1888 28.9785 20.0102L28.8871 18.8495ZM30.0755 21.4388C29.8013 21.3495 29.527 21.0817 29.3442 20.8138C29.2528 20.9031 29.1613 20.9924 28.9785 21.0817C28.6129 21.2602 28.2472 21.3495 27.8815 21.3495C26.6931 21.3495 26.0532 20.7245 26.0532 19.6531C26.0532 18.4031 26.9674 17.8674 28.6129 17.8674H28.9785V17.6888C28.9785 17.0638 28.8871 16.8852 28.3386 16.8852C27.7901 16.9745 27.2416 17.1531 26.7845 17.5102L26.1446 16.5281C26.4189 16.3495 26.7845 16.1709 27.0588 16.0817C27.5159 15.9031 28.0644 15.8138 28.5214 15.7245C29.2528 15.6352 29.9841 15.9924 30.2583 16.6174C30.3497 16.8852 30.3497 17.2424 30.3497 17.5995V19.3852C30.2583 19.8317 30.4412 20.2781 30.8068 20.5459L30.0755 21.4388Z" fill="#FC4336"/>
<path d="M33.2754 21.2596C32.6355 21.3489 32.087 20.9918 31.8128 20.4561C31.7213 20.1882 31.7213 19.9203 31.7213 19.6525V16.7953H31.1729V15.8132H31.7213C31.7213 15.3668 31.7213 15.0096 31.8128 14.5632L33.2754 14.2061C33.184 14.7418 33.184 15.2775 33.184 15.8132H34.4638L34.0981 16.7953H33.184V19.4739C33.184 20.1882 33.2754 20.2775 33.8239 20.2775C34.0067 20.2775 34.1896 20.2775 34.281 20.1882L34.4638 20.9918C34.0067 21.2596 33.6411 21.2596 33.2754 21.2596Z" fill="#FC4336"/>
<path d="M37.846 17.8669C37.846 17.5991 37.846 17.3312 37.6631 17.0633C37.5717 16.8848 37.2975 16.7062 37.0232 16.7062C36.4747 16.7062 36.2005 17.1526 36.2005 17.8669H37.846ZM36.2005 18.9383C36.2005 19.7419 36.6576 20.1883 37.2975 20.1883C37.846 20.1883 38.303 20.0098 38.6687 19.6526L39.2172 20.4562C38.6687 20.9026 37.9374 21.1705 37.206 21.1705C35.8348 21.1705 34.6464 20.0991 34.6464 18.7598C34.6464 18.6705 34.6464 18.4919 34.6464 18.4026C34.555 17.6883 34.8292 16.8848 35.2863 16.3491C35.7434 15.9026 36.2919 15.6348 36.9318 15.6348C37.4803 15.6348 38.0288 15.8133 38.4859 16.1705C39.0344 16.7955 39.3086 17.6883 39.2172 18.4919V18.8491H36.2005V18.9383Z" fill="#FC4336"/>
<path d="M42.9653 17.0635C42.8739 16.9742 42.6911 16.9742 42.5083 16.9742C42.1426 16.9742 41.8683 17.1528 41.6855 17.4206V21.1706H40.2229V17.6885C40.2229 17.1528 40.1315 16.617 40.04 16.1706L41.3199 15.8135C41.4113 16.0813 41.5027 16.2599 41.5027 16.5278C41.7769 16.0813 42.234 15.8135 42.7825 15.8135C42.9653 15.8135 43.1482 15.8135 43.331 15.9028L42.9653 17.0635Z" fill="#FC4336"/>
<path d="M48.5415 15.189H47.5359V17.3319H48.2672C48.9071 17.3319 48.9985 17.2426 49.2728 16.9747C49.3642 16.7962 49.4556 16.5283 49.4556 16.2604C49.547 15.7247 49.1814 15.2783 48.6329 15.189H48.5415ZM49.8213 18.2247C49.3642 18.4033 48.8157 18.4926 48.3586 18.4926H47.5359V21.1712H46.0732V14.0283H47.993C48.7243 13.939 49.3642 14.0283 50.0041 14.3854C50.644 14.7426 51.1011 15.4569 51.1011 16.2604C51.1925 17.1533 50.644 17.9569 49.8213 18.2247Z" fill="#FC4336"/>
<path d="M55.0321 21.1712V17.5997C55.0321 17.064 54.8492 16.8855 54.4836 16.8855C54.0265 16.8855 53.6608 17.064 53.3866 17.3319V21.0819H51.9239V15.0105C51.9239 14.564 51.9239 14.2069 51.8325 13.7605L53.2952 13.4033C53.3866 13.8497 53.3866 14.2962 53.3866 14.6533V15.7247C53.3866 15.9033 53.3866 16.0819 53.3866 16.1712C53.8437 15.814 54.3921 15.6355 54.9406 15.6355C55.4891 15.5462 56.0376 15.9033 56.3119 16.3497C56.4033 16.7069 56.4947 16.9747 56.4947 17.3319V20.9926L55.0321 21.1712Z" fill="#FC4336"/>
<path d="M57.8659 21.1708V15.9922L59.2372 15.8136V21.1708H57.8659ZM58.5058 15.2779C58.0488 15.2779 57.6831 14.8315 57.6831 14.385C57.6831 13.8493 58.0488 13.4922 58.5973 13.4922C59.0543 13.4922 59.42 13.8493 59.42 14.2958C59.42 14.2958 59.42 14.2958 59.42 14.385C59.42 14.9208 58.9629 15.2779 58.5058 15.2779Z" fill="#FC4336"/>
<path d="M61.9797 21.26C61.4312 21.26 60.9742 20.9922 60.6999 20.5458C60.6085 20.1886 60.5171 19.7422 60.6085 19.385V15.4565C60.6085 14.9208 60.6085 14.385 60.5171 13.8493L61.9797 13.4922C62.0712 13.9386 62.0712 14.385 62.0712 14.8315V18.9386C62.0712 19.8315 62.0712 19.9208 62.1626 20.0993C62.254 20.1886 62.3454 20.2779 62.4368 20.2779C62.5282 20.2779 62.5282 20.2779 62.6196 20.2779L62.8939 21.0815C62.5282 21.1708 62.254 21.26 61.9797 21.26Z" fill="#FC4336"/>
<path d="M65.8192 18.8495C64.8137 18.8495 64.5394 19.0281 64.5394 19.6531C64.5394 20.0102 64.7222 20.2781 65.0879 20.3674C65.0879 20.3674 65.0879 20.3674 65.1793 20.3674C65.4536 20.3674 65.7278 20.1888 65.9106 20.0102L65.8192 18.8495ZM67.0076 21.4388C66.7334 21.3495 66.4591 21.0817 66.2763 20.8138C66.1849 20.9031 66.0935 20.9924 65.9106 21.0817C65.545 21.2602 65.1793 21.3495 64.8137 21.3495C63.6253 21.3495 62.9854 20.7245 62.9854 19.6531C62.9854 18.4031 63.8995 17.8674 65.545 17.8674H65.8192V17.6888C65.8192 17.0638 65.7278 16.8852 65.1793 16.8852C64.6308 16.9745 64.0823 17.1531 63.6253 17.5102L62.9854 16.5281C63.2596 16.3495 63.6253 16.1709 63.8995 16.0817C64.3566 15.9031 64.9051 15.8138 65.3621 15.7245C66.0935 15.6352 66.8248 15.9924 67.099 16.6174C67.1905 16.8852 67.1905 17.2424 67.1905 17.5995V19.3852C67.099 19.8317 67.2819 20.2781 67.7389 20.5459L67.0076 21.4388Z" fill="#FC4336"/>
<path d="M71.5784 17.2422C71.3956 17.0636 71.1214 16.885 70.8471 16.885C70.2072 16.885 69.933 17.4208 69.933 18.5815C69.933 19.7422 70.2072 20.0993 70.9385 20.0993C71.2128 20.0993 71.487 19.9208 71.6699 19.7422L71.5784 17.2422ZM71.9441 21.1708C71.9441 21.0815 71.8527 20.9922 71.8527 20.8136C71.487 21.0815 71.0299 21.26 70.5729 21.26C69.2016 21.26 68.3789 20.1886 68.3789 18.5815C68.3789 16.9743 69.2931 15.8136 70.6643 15.8136C71.03 15.8136 71.3042 15.9029 71.5784 16.0815C71.5784 15.8136 71.5784 15.5458 71.5784 15.2779V13.4922L72.9497 13.6708V19.1172C72.8583 19.7422 72.9497 20.3672 73.1325 20.9922L71.9441 21.1708Z" fill="#FC4336"/>
<path d="M77.2459 17.8669C77.2459 17.5991 77.2459 17.3312 77.063 17.0633C76.9716 16.8848 76.6974 16.7062 76.4231 16.7062C75.8746 16.7062 75.6004 17.1526 75.6004 17.8669H77.2459ZM75.6004 18.9383C75.6004 19.7419 75.966 20.1883 76.6974 20.1883C77.2459 20.1883 77.7029 20.0098 78.0686 19.6526L78.6171 20.4562C78.0686 20.9026 77.3373 21.1705 76.606 21.1705C75.2347 21.1705 74.0463 20.0991 74.0463 18.7598C74.0463 18.6705 74.0463 18.5812 74.0463 18.4026C73.9549 17.6883 74.2292 16.8848 74.6862 16.3491C75.1433 15.9026 75.6918 15.6348 76.3317 15.6348C76.8802 15.6348 77.4287 15.8133 77.8858 16.1705C78.4343 16.7955 78.7085 17.6883 78.6171 18.4919V18.8491H75.6004V18.9383Z" fill="#FC4336"/>
<path d="M80.9939 21.26C80.4454 21.26 79.9883 20.9922 79.7141 20.5458C79.6227 20.1886 79.5312 19.7422 79.6227 19.385V15.4565C79.6227 14.9208 79.6227 14.385 79.5312 13.8493L80.9939 13.4922C81.0853 13.9386 81.0853 14.385 81.0853 14.8315V18.9386C81.0853 19.8315 81.0853 19.9208 81.1767 20.0993C81.2681 20.1886 81.3596 20.2779 81.451 20.2779C81.5424 20.2779 81.5424 20.2779 81.6338 20.2779L81.908 21.0815C81.5424 21.1708 81.2681 21.26 80.9939 21.26Z" fill="#FC4336"/>
<path d="M85.4733 17.3316C85.3818 17.0638 85.1076 16.8852 84.8333 16.8852C84.4677 16.8852 84.1934 17.0638 83.9192 17.3316V19.9209C84.102 20.0995 84.3763 20.1888 84.6505 20.2781C85.3818 20.2781 85.6561 19.8316 85.6561 18.5816C85.5647 18.1352 85.5647 17.6888 85.4733 17.3316ZM86.3874 20.6352C86.0217 20.9923 85.4733 21.2602 84.9248 21.2602C84.5591 21.2602 84.102 21.1709 83.8278 20.9923C83.8278 21.1709 83.8278 21.2602 83.8278 21.4388V23.1352L82.548 23.4923V17.3316C82.548 16.8852 82.548 16.4388 82.4565 15.9923L83.7364 15.8138C83.8278 15.9923 83.8278 16.1709 83.8278 16.2602C84.1934 15.9031 84.6505 15.7245 85.1076 15.8138C85.4733 15.8138 85.8389 15.9031 86.2046 16.1709C86.9359 16.7066 87.3016 17.5995 87.2101 18.4031C87.2101 19.2066 86.9359 20.0102 86.3874 20.6352Z" fill="#FC4336"/>
<path d="M91.2327 21.1712V17.5997C91.2327 17.064 91.0499 16.8855 90.6842 16.8855C90.2272 16.8855 89.8615 17.064 89.5873 17.3319V21.0819H88.1246V15.0105C88.1246 14.564 88.1246 14.2069 88.0332 13.7605L89.4958 13.4033C89.5873 13.8497 89.5873 14.2962 89.5873 14.6533V15.7247C89.5873 15.9033 89.5873 16.0819 89.5873 16.1712C90.0443 15.814 90.5928 15.6355 91.1413 15.6355C91.6898 15.5462 92.2383 15.9033 92.5125 16.3497C92.604 16.7069 92.6954 16.9747 92.6954 17.3319V20.9926L91.2327 21.1712Z" fill="#FC4336"/>
<path d="M94.0661 21.1708V15.9922L95.4374 15.8136V21.1708H94.0661ZM94.706 15.2779C94.249 15.2779 93.8833 14.8315 93.8833 14.385C93.8833 13.8493 94.249 13.4922 94.7975 13.4922C95.2545 13.4922 95.6202 13.8493 95.6202 14.2958C95.6202 14.2958 95.6202 14.2958 95.6202 14.385C95.6202 14.9208 95.2545 15.2779 94.706 15.2779Z" fill="#FC4336"/>
<path d="M99.2772 18.8495C98.2717 18.8495 97.9974 19.0281 97.9974 19.6531C97.9974 20.0102 98.1803 20.2781 98.5459 20.3674C98.5459 20.3674 98.5459 20.3674 98.6373 20.3674C98.9116 20.3674 99.1858 20.1888 99.3686 20.0102L99.2772 18.8495ZM100.466 21.4388C100.191 21.3495 99.9171 21.0817 99.7343 20.8138C99.6429 20.9031 99.5515 20.9924 99.3686 21.0817C99.003 21.2602 98.6373 21.3495 98.2717 21.3495C97.0833 21.3495 96.4434 20.7245 96.4434 19.6531C96.4434 18.4031 97.3575 17.8674 99.003 17.8674H99.2772V17.6888C99.2772 17.0638 99.1858 16.8852 98.6373 16.8852C98.0888 16.9745 97.5403 17.1531 97.0833 17.5102L96.4434 16.5281C96.7176 16.3495 97.0833 16.1709 97.3575 16.0817C97.8146 15.9031 98.3631 15.8138 98.8202 15.7245C99.5515 15.6352 100.283 15.9924 100.557 16.6174C100.648 16.8852 100.648 17.2424 100.648 17.5995V19.3852C100.557 19.8317 100.74 20.2781 101.197 20.5459L100.466 21.4388Z" fill="#FC4336"/>
<path d="M2.83387 31.3497C1.82831 31.3497 1.55406 31.5282 1.55406 32.1532C1.55406 32.5104 1.73689 32.7782 2.10255 32.8675C2.10255 32.8675 2.10255 32.8675 2.19397 32.8675C2.46821 32.8675 2.74246 32.6889 2.92529 32.5104L2.83387 31.3497ZM4.02227 33.9389C3.65661 33.8497 3.47378 33.5818 3.29095 33.3139C3.19954 33.4032 3.10812 33.4925 2.92529 33.5818C2.55963 33.7604 2.19397 33.9389 1.82831 33.8497C0.639907 33.8497 0 33.2247 0 32.2425C0 30.9925 0.914153 30.4568 2.55963 30.4568H2.83387V30.2782C2.83387 29.6532 2.74246 29.4747 2.19397 29.4747C1.64548 29.5639 1.09698 29.7425 0.639907 30.0997L0 29.1175C0.274246 28.9389 0.639907 28.7604 0.914153 28.6711C1.37123 28.4925 1.91972 28.4032 2.3768 28.4032C3.10812 28.3139 3.83944 28.6711 4.11369 29.2961C4.2051 29.5639 4.2051 29.9211 4.2051 30.2782V32.0639C4.11369 32.5104 4.29652 32.9568 4.7536 33.2247L4.02227 33.9389Z" fill="#FC4336"/>
<path d="M8.50157 33.671V30.2782C8.50157 29.6532 8.41015 29.4746 8.04449 29.4746C7.67883 29.4746 7.31317 29.6532 7.03892 29.921V33.671H5.66769V29.8318C5.66769 29.3853 5.57628 29.0282 5.48486 28.5818L6.76468 28.2246C6.85609 28.4032 6.94751 28.671 6.94751 28.8496C7.13034 28.7603 7.31317 28.671 7.58742 28.4925C7.86166 28.3139 8.22732 28.3139 8.59298 28.2246C9.14148 28.2246 9.68997 28.4925 9.8728 28.9389C9.96421 29.2068 9.96421 29.4746 9.96421 29.6532V33.4925L8.50157 33.671Z" fill="#FC4336"/>
<path d="M14.2607 29.7418C14.0778 29.5632 13.8036 29.3846 13.5294 29.3846C12.8894 29.3846 12.6152 29.9203 12.6152 31.0811C12.6152 32.2418 12.8894 32.5989 13.6208 32.5989C13.895 32.5989 14.1693 32.4203 14.3521 32.2418L14.2607 29.7418ZM14.5349 33.6703C14.5349 33.5811 14.4435 33.4918 14.4435 33.4025C14.0778 33.6703 13.6208 33.8489 13.1637 33.8489C11.7925 33.8489 10.9697 32.7775 10.9697 31.1703C10.9697 29.5632 11.8839 28.4025 13.2551 28.4025C13.6208 28.4025 13.895 28.4918 14.1693 28.6703C14.1693 28.4025 14.1693 28.1346 14.1693 27.8668V26.0811L15.5405 26.2596V31.7061C15.4491 32.3311 15.5405 33.0453 15.7233 33.6703H14.5349Z" fill="#FC4336"/>
<path d="M21.1171 33.7603C20.203 33.7603 19.3802 33.4925 18.6489 33.1353L19.1974 31.9746C19.8373 32.3318 20.4772 32.5103 21.2086 32.5996C22.0313 32.5996 22.4884 32.2425 22.4884 31.6175C22.4884 31.171 22.2141 30.9032 21.5742 30.7246L20.7515 30.546C20.203 30.4568 19.6545 30.0996 19.2888 29.6532C19.106 29.296 19.0146 28.9389 19.0146 28.5818C19.0146 27.3318 20.1116 26.3496 21.3914 26.3496C21.4828 26.3496 21.5742 26.3496 21.5742 26.3496C22.4884 26.3496 23.3111 26.6175 24.0424 27.0639L23.3111 28.046C22.7626 27.6889 22.2141 27.5103 21.5742 27.5103C21.1171 27.421 20.6601 27.7782 20.5686 28.3139C20.5686 28.3139 20.5686 28.3139 20.5686 28.4032C20.5686 28.7603 20.7515 28.9389 21.3914 29.1175L22.3055 29.3853C23.4025 29.5639 24.1338 30.4568 24.1338 31.5282C24.2253 32.8675 23.0369 33.8496 21.1171 33.7603Z" fill="#FC4336"/>
<path d="M27.7901 29.5639C27.6073 29.3853 27.4245 29.296 27.1502 29.296C26.7846 29.296 26.5103 29.4746 26.4189 29.8318C26.3275 30.1889 26.2361 30.6353 26.2361 30.9925C26.2361 31.4389 26.2361 31.8853 26.4189 32.3318C26.5103 32.5996 26.7846 32.7782 27.1502 32.7782C27.7901 32.7782 28.0644 32.2425 28.0644 30.9925C28.1558 30.4568 28.0644 30.0103 27.7901 29.5639ZM28.9785 33.046C28.5215 33.5818 27.8816 33.8496 27.1502 33.7603C25.6876 33.7603 24.7734 32.6889 24.7734 30.9925C24.7734 29.296 25.779 28.2246 27.1502 28.2246C27.8816 28.2246 28.5215 28.4925 28.9785 29.0282C29.4356 29.5639 29.6185 30.2782 29.6185 30.9925C29.7099 31.7068 29.4356 32.421 28.9785 33.046Z" fill="#FC4336"/>
<path d="M34.1894 33.7603C34.0066 33.671 33.8237 33.4925 33.7323 33.2246C33.3666 33.5818 32.8182 33.7603 32.3611 33.7603C31.7212 33.8496 31.0813 33.4925 30.807 32.8675C30.7156 32.5103 30.6242 32.1532 30.7156 31.796V28.4925L32.0868 28.2246V31.6175C32.0868 31.8853 32.0868 32.2425 32.1782 32.5103C32.2697 32.6889 32.4525 32.7782 32.6353 32.7782C33.001 32.7782 33.3666 32.5996 33.5495 32.2425V28.4925L34.9207 28.2246V32.2425C34.9207 32.5996 35.0121 32.9568 35.195 33.2246L34.1894 33.7603Z" fill="#FC4336"/>
<path d="M37.7544 33.7596C37.1145 33.8489 36.566 33.4918 36.2918 32.9561C36.2003 32.6882 36.2003 32.4203 36.2003 32.1525V29.2953H35.6519V28.3132H36.2003C36.2003 27.8668 36.2003 27.5096 36.2918 27.0632L37.7544 26.7061C37.663 27.2418 37.663 27.7775 37.663 28.3132H38.9428L38.5771 29.2953H37.663V31.9739C37.663 32.6882 37.7544 32.8668 38.3029 32.8668C38.4857 32.8668 38.6686 32.8668 38.76 32.7775L38.9428 33.5811C38.4857 33.7596 38.1201 33.7596 37.7544 33.7596Z" fill="#FC4336"/>
<path d="M42.7825 33.6712V30.0997C42.7825 29.564 42.5997 29.3855 42.2341 29.3855C41.777 29.3855 41.4113 29.564 41.1371 29.8319V33.5819H39.6744V27.5105C39.6744 27.064 39.6744 26.7069 39.583 26.2605L41.0457 25.9033C41.1371 26.3497 41.1371 26.7962 41.1371 27.1533V28.2247C41.1371 28.4033 41.1371 28.5819 41.1371 28.6712C41.5941 28.314 42.1426 28.1355 42.6911 28.1355C43.2396 28.0462 43.7881 28.4033 44.0624 28.8497C44.1538 29.2069 44.2452 29.4747 44.2452 29.8319V33.4926L42.7825 33.6712Z" fill="#FC4336"/>
<path d="M48.45 30.3675C48.45 30.0996 48.45 29.8318 48.2671 29.5639C48.1757 29.3853 47.9015 29.2068 47.6272 29.2068C47.0787 29.2068 46.8045 29.6532 46.8045 30.3675H48.45ZM46.8045 31.5282C46.8045 32.3318 47.2616 32.7782 47.9015 32.7782C48.45 32.7782 48.907 32.5996 49.2727 32.2425L49.8212 33.046C49.2727 33.4925 48.5414 33.7603 47.8101 33.7603C46.4388 33.7603 45.2504 32.6889 45.2504 31.3496C45.2504 31.2603 45.2504 31.0818 45.2504 30.9925C45.159 30.2782 45.4333 29.4746 45.8903 28.9389C46.3474 28.4925 46.8959 28.2246 47.5358 28.2246C48.0843 28.2246 48.6328 28.4032 49.0899 28.7603C49.6384 29.3853 49.9126 30.2782 49.8212 31.0818V31.4389H46.8045V31.5282Z" fill="#FC4336"/>
<path d="M53.4779 29.5635C53.3865 29.4742 53.2037 29.4742 53.0208 29.4742C52.6552 29.4742 52.3809 29.6528 52.1981 29.9206V33.6706H50.8269V30.1885C50.8269 29.6528 50.7355 29.117 50.644 28.6706L51.9239 28.3135C52.0153 28.5813 52.1067 28.7599 52.1067 29.0278C52.3809 28.5813 52.838 28.3135 53.3865 28.3135C53.5693 28.3135 53.7522 28.3135 53.935 28.4028L53.4779 29.5635Z" fill="#FC4336"/>
<path d="M57.3175 33.671V30.2782C57.3175 29.6532 57.2261 29.4746 56.8604 29.4746C56.4947 29.4746 56.1291 29.6532 55.8548 29.921V33.671H54.4836V29.8318C54.4836 29.3853 54.3922 29.0282 54.3008 28.5818L55.5806 28.2246C55.672 28.4032 55.7634 28.671 55.7634 28.8496C55.9463 28.671 56.1291 28.5818 56.4033 28.4925C56.6776 28.3139 57.0432 28.3139 57.4089 28.2246C57.9574 28.2246 58.5059 28.4925 58.6887 28.9389C58.7801 29.2068 58.7801 29.4746 58.7801 29.6532V33.4925L57.3175 33.671Z" fill="#FC4336"/>
<path d="M65.9104 33.6712L64.6306 30.9033C64.2649 30.0105 63.8079 29.0283 63.625 28.5819C63.7164 29.2069 63.7164 30.0105 63.7164 30.6355V33.6712H62.3452V26.5283H63.9907L65.3619 29.3855C65.6362 30.0105 65.9104 30.7247 66.1847 31.439C66.0932 30.9033 66.0932 29.9212 66.0932 29.4747V26.5283H67.4645V33.6712H65.9104Z" fill="#FC4336"/>
<path d="M71.6697 30.3675C71.6697 30.0996 71.6697 29.8318 71.4868 29.5639C71.3954 29.3853 71.1212 29.2068 70.8469 29.2068C70.2985 29.2068 70.0242 29.6532 70.0242 30.3675H71.6697ZM70.0242 31.5282C70.0242 32.3318 70.3899 32.7782 71.1212 32.7782C71.6697 32.7782 72.1268 32.5996 72.4924 32.2425L73.0409 33.046C72.4924 33.4925 71.7611 33.7603 71.0298 33.7603C69.6585 33.7603 68.4702 32.6889 68.4702 31.3496C68.4702 31.2603 68.4702 31.0818 68.4702 30.9925C68.3787 30.2782 68.653 29.4746 69.1101 28.9389C69.5671 28.4925 70.1156 28.2246 70.7555 28.2246C71.304 28.2246 71.8525 28.4032 72.3096 28.7603C72.8581 29.3853 73.1323 30.2782 73.0409 31.0818V31.4389H70.0242V31.5282Z" fill="#FC4336"/>
<path d="M79.1658 33.6712H77.886L77.4289 31.8855C77.3375 31.439 77.1547 30.9926 77.1547 30.6355C77.1547 30.2783 77.0632 30.2783 77.0632 30.0997C77.0632 30.3676 76.9718 30.5462 76.9718 30.814C76.8804 31.2605 76.6062 32.1533 76.5147 32.689L76.2405 33.7605H74.9607L73.498 28.5819L74.8693 28.4033L75.3264 30.4569C75.5092 31.0819 75.6006 32.064 75.6006 32.064C75.692 31.439 75.8748 30.814 76.0577 30.189L76.6062 28.4033H77.7032L78.1602 30.189C78.4345 31.1712 78.5259 32.064 78.5259 32.064C78.5259 31.7962 78.7087 30.9926 78.8001 30.3676L79.1658 28.4926H80.6284L79.1658 33.6712Z" fill="#FC4336"/>
<path d="M85.0161 33.6712C84.7418 34.4747 84.1019 35.0997 83.2792 35.3676L82.5479 34.6533C82.9135 34.4747 83.1878 34.1176 83.3706 33.7605C83.5534 33.314 83.5534 32.8676 83.5534 32.4212V26.5283H85.0161V32.2426C85.1989 32.689 85.1075 33.2247 85.0161 33.6712Z" fill="#FC4336"/>
<path d="M89.4041 30.3675C89.4041 30.0996 89.4041 29.8318 89.2212 29.5639C89.1298 29.3853 88.8556 29.2068 88.5813 29.2068C88.0328 29.2068 87.7586 29.6532 87.7586 30.3675H89.4041ZM87.7586 31.5282C87.7586 32.3318 88.1242 32.7782 88.8556 32.7782C89.4041 32.7782 89.8611 32.5996 90.2268 32.2425L90.7753 33.046C90.2268 33.4925 89.4955 33.7603 88.7642 33.7603C87.3929 33.7603 86.2045 32.6889 86.2045 31.3496C86.2045 31.2603 86.2045 31.0818 86.2045 30.9925C86.1131 30.2782 86.3874 29.4746 86.8444 28.9389C87.3015 28.4925 87.85 28.2246 88.4899 28.2246C89.0384 28.2246 89.5869 28.4032 90.044 28.7603C90.5925 29.3853 90.8667 30.2782 90.7753 31.0818V31.4389H87.7586V31.5282Z" fill="#FC4336"/>
<path d="M94.4319 29.5635C94.3405 29.4742 94.1577 29.4742 94.0663 29.4742C93.7006 29.4742 93.4263 29.6528 93.2435 29.9206V33.6706H91.8723V30.1885C91.8723 29.6528 91.7809 29.117 91.6895 28.6706L92.9693 28.3135C93.0607 28.5813 93.1521 28.7599 93.1521 29.0278C93.4263 28.5813 93.8834 28.3135 94.4319 28.3135C94.6147 28.3135 94.7976 28.3135 94.9804 28.4028L94.4319 29.5635Z" fill="#FC4336"/>
<path d="M96.9918 33.8492C96.2605 33.8492 95.4378 33.5813 94.7979 33.2242L95.3463 32.242C95.8948 32.5992 96.5347 32.7778 97.1747 32.867C97.5403 32.867 97.8146 32.5992 97.906 32.242C97.906 31.8849 97.6317 31.7063 97.0832 31.617L96.4433 31.5278C96.0777 31.4385 95.712 31.2599 95.4378 30.992C95.2549 30.7242 95.1635 30.367 95.1635 30.0099C95.1635 28.9385 95.9863 28.3135 97.2661 28.3135C97.906 28.3135 98.6373 28.492 99.1858 28.7599L98.7287 29.6528C98.363 29.3849 97.906 29.2956 97.4489 29.2956C97.0832 29.2956 96.7176 29.4742 96.7176 29.8313C96.7176 30.1885 96.9004 30.2778 97.3575 30.367L97.9974 30.5456C98.4545 30.6349 98.8201 30.8135 99.0944 31.1706C99.2772 31.4385 99.3686 31.7063 99.3686 32.0635C99.2772 33.0456 98.363 33.7599 96.9918 33.8492Z" fill="#FC4336"/>
<path d="M103.116 30.3675C103.116 30.0996 103.116 29.8318 102.934 29.5639C102.842 29.3853 102.568 29.2068 102.294 29.2068C101.745 29.2068 101.471 29.6532 101.471 30.3675H103.116ZM101.471 31.5282C101.471 32.3318 101.837 32.7782 102.568 32.7782C103.116 32.7782 103.574 32.5996 103.939 32.2425L104.488 33.046C103.939 33.4925 103.208 33.7603 102.477 33.7603C101.105 33.7603 99.9169 32.6889 99.9169 31.3496C99.9169 31.2603 99.9169 31.0818 99.9169 30.9925C99.8255 30.2782 100.1 29.4746 100.557 28.9389C101.014 28.4925 101.562 28.2246 102.202 28.2246C102.751 28.2246 103.299 28.4032 103.756 28.7603C104.305 29.3853 104.579 30.2782 104.488 31.0818V31.4389H101.471V31.5282Z" fill="#FC4336"/>
<path d="M108.053 33.7603C107.87 34.4746 107.504 35.0103 107.047 35.546C106.682 35.8139 106.224 35.9925 105.767 35.9925L105.31 35.0996C105.676 35.0103 105.95 34.921 106.224 34.7425C106.407 34.6532 106.499 34.4746 106.59 34.296C106.682 34.1175 106.773 33.9389 106.864 33.671H106.499C106.316 33.2246 106.042 32.3318 105.95 32.1532L104.67 28.4032L106.133 28.2246L107.047 31.3496C107.139 31.7068 107.321 32.421 107.321 32.421C107.321 32.421 107.413 31.796 107.504 31.5282C107.596 31.2603 107.596 31.0818 107.687 30.8139L108.51 28.3139H109.972L108.053 33.7603Z" fill="#FC4336"/>
</g>
<defs>
<clipPath id="clip0">
<rect width="197" height="35" fill="white" transform="translate(0 0.992188)"/>
</clipPath>
</defs>
</svg>
